<svg width="17" height="17" viewBox="0 0 17 17" fill="none" xmlns="http://www.w3.org/2000/svg">
<g clip-path="url(#clip0_164_2356)">
<path d="M5.32928 17.0017L3.50721 13.8901C3.0866 14.146 2.82975 14.2677 2.78232 14.2194C2.734 14.1702 2.8566 13.9142 3.11165 13.4945L0 11.6725L4.47463 11.4792C5.50558 10.0312 6.92762 8.13661 8.53759 6.08455C8.58144 6.02817 8.62529 5.97805 8.66914 5.92257L1.2869 0.0760186L3.44904 0.212942L5.67651 1.19199C6.01837 0.706046 6.47389 0.504688 6.72536 0.754372C6.92046 0.953045 6.83544 1.27969 6.55175 1.57681L8.32817 2.35897C8.67361 1.86229 9.13271 1.65288 9.38776 1.90883C9.58733 2.10839 9.49695 2.4422 9.2043 2.7429L10.834 3.46063C13.4543 0.788379 15.8742 -0.610389 16.7441 0.255899C17.6112 1.12666 16.2125 3.54833 13.5402 6.16599L14.2588 7.79743C14.5595 7.50479 14.8924 7.41441 15.0947 7.61487C15.3471 7.86813 15.1386 8.32812 14.6437 8.67357L15.4249 10.4491C15.722 10.1654 16.0487 10.0795 16.2492 10.2773C16.4988 10.5261 16.2948 10.9816 15.8097 11.3234L16.7888 13.5527L16.9266 15.7139L11.0765 8.33081C11.0228 8.37556 10.9718 8.41941 10.9163 8.46236C8.86602 10.0723 6.97057 11.4944 5.52348 12.5262L5.33017 17L5.32928 17.0017Z" fill="#0069CA" fill-opacity="0.5"/>
<path d="M13.3094 11.1514L16.9258 15.7146L16.788 13.5533L15.809 11.3241C16.294 10.9813 16.4981 10.5258 16.2484 10.2779C16.0479 10.0792 15.7213 10.1651 15.4241 10.4497L14.6429 8.6742C15.1378 8.32876 15.3463 7.86877 15.0939 7.6155C14.8917 7.41504 14.5588 7.50543 14.2581 7.79807L13.5394 6.16662C16.2117 3.54896 17.6105 1.1264 16.7433 0.256531C16.7316 0.244897 16.7182 0.234158 16.7048 0.223419L2.77617 14.1511C2.7708 14.1843 2.7708 14.2075 2.78244 14.2192C2.82987 14.2666 3.08671 14.1458 3.50732 13.8898L5.32939 17.0015L5.5227 12.5277C6.96979 11.4959 8.86524 10.0748 10.9155 8.46389C10.971 8.42093 11.0229 8.37708 11.0757 8.33234L13.3094 11.1514Z" fill="#0069CA"/>
</g>
<defs>
<clipPath id="clip0_164_2356">
<rect width="17.0004" height="17.0017" fill="white"/>
</clipPath>
</defs>
</svg>
