<svg width="18" height="18" viewBox="0 0 18 18" fill="none" xmlns="http://www.w3.org/2000/svg">
<path fill-rule="evenodd" clip-rule="evenodd" d="M2.25 7.8C2.25 6.12 2.25 5.28 2.577 4.638C2.86462 4.07354 3.32354 3.61462 3.888 3.327C4.53 3 5.37 3 7.05 3H10.95C12.63 3 13.47 3 14.112 3.327C14.6765 3.61462 15.1354 4.07354 15.423 4.638C15.75 5.28 15.75 6.12 15.75 7.8V8.7C15.75 10.38 15.75 11.22 15.423 11.862C15.1354 12.4265 14.6765 12.8854 14.112 13.173C13.47 13.5 12.63 13.5 10.95 13.5H5.5605C5.3616 13.5 5.17087 13.5791 5.03025 13.7197L3.53025 15.2197C3.05775 15.6922 2.25 15.3577 2.25 14.6895V7.8ZM6.75 6C6.55109 6 6.36032 6.07902 6.21967 6.21967C6.07902 6.36032 6 6.55109 6 6.75C6 6.94891 6.07902 7.13968 6.21967 7.28033C6.36032 7.42098 6.55109 7.5 6.75 7.5H11.25C11.4489 7.5 11.6397 7.42098 11.7803 7.28033C11.921 7.13968 12 6.94891 12 6.75C12 6.55109 11.921 6.36032 11.7803 6.21967C11.6397 6.07902 11.4489 6 11.25 6H6.75ZM6.75 9C6.55109 9 6.36032 9.07902 6.21967 9.21967C6.07902 9.36032 6 9.55109 6 9.75C6 9.94891 6.07902 10.1397 6.21967 10.2803C6.36032 10.421 6.55109 10.5 6.75 10.5H9C9.19891 10.5 9.38968 10.421 9.53033 10.2803C9.67098 10.1397 9.75 9.94891 9.75 9.75C9.75 9.55109 9.67098 9.36032 9.53033 9.21967C9.38968 9.07902 9.19891 9 9 9H6.75Z" fill="#0069CA"/>
</svg>
