<svg width="20" height="20" viewBox="0 0 20 20" fill="none" xmlns="http://www.w3.org/2000/svg">
<path d="M10.21 15.4217C10.7374 15.3857 11.2604 15.3014 11.7725 15.1701C12.405 15.3602 13.0725 15.4032 13.7242 15.2959C13.7502 15.2927 13.7763 15.2908 13.8025 15.29C14.035 15.29 14.34 15.4234 14.785 15.7042V15.2425C14.7852 15.1621 14.8069 15.0832 14.848 15.014C14.889 14.9449 14.9478 14.8879 15.0183 14.8492C15.2122 14.7398 15.3914 14.6167 15.5558 14.48C16.2042 13.9384 16.57 13.215 16.57 12.45C16.57 12.1975 16.53 11.9459 16.4508 11.7059C16.6468 11.3459 16.8044 10.9663 16.9208 10.5734C17.2958 11.1276 17.4975 11.7817 17.5 12.45C17.5 13.49 17.01 14.46 16.1608 15.1692C16.0186 15.2875 15.87 15.3964 15.715 15.4959V16.5775C15.715 16.9492 15.28 17.1634 14.9733 16.9417C14.6828 16.7279 14.3824 16.5277 14.0733 16.3417C13.984 16.2902 13.8916 16.2443 13.7967 16.2042C13.5387 16.2424 13.2783 16.2616 13.0175 16.2617C11.9592 16.2617 10.9808 15.9476 10.21 15.4217ZM4.60917 13.2592C3.2725 12.14 2.5 10.6142 2.5 8.97922C2.5 5.63922 5.69333 2.96838 9.5925 2.96838C13.4925 2.96838 16.6867 5.63838 16.6867 8.97922C16.6867 12.32 13.4925 14.9892 9.5925 14.9892C9.15861 14.9897 8.72535 14.9562 8.29667 14.8892C8.11333 14.9317 7.37833 15.3625 6.32 16.1251C5.93667 16.4017 5.39333 16.135 5.39333 15.6692V13.8251C5.11885 13.6554 4.85705 13.466 4.61 13.2584M8.3225 13.7517C8.35472 13.7517 8.38722 13.7542 8.42 13.7592C8.80333 13.8225 9.19417 13.8545 9.5925 13.855C12.8867 13.855 15.5225 11.6509 15.5225 8.97838C15.5225 6.30672 12.8867 4.10338 9.59333 4.10338C6.3 4.10338 3.6625 6.30672 3.6625 8.97838C3.6625 10.2701 4.27917 11.4867 5.3675 12.3975C5.64194 12.6264 5.94083 12.832 6.26417 13.0142C6.35188 13.0629 6.42509 13.134 6.47633 13.2202C6.52758 13.3065 6.55501 13.4047 6.55583 13.505V14.5684C7.39333 14.0142 7.94417 13.7517 8.3225 13.7517Z" fill="url(#paint0_linear_214_1971)"/>
<path d="M6.71826 10C6.9669 10 7.20536 9.90123 7.38117 9.72541C7.55699 9.5496 7.65576 9.31114 7.65576 9.0625C7.65576 8.81386 7.55699 8.5754 7.38117 8.39959C7.20536 8.22377 6.9669 8.125 6.71826 8.125C6.46962 8.125 6.23116 8.22377 6.05535 8.39959C5.87953 8.5754 5.78076 8.81386 5.78076 9.0625C5.78076 9.31114 5.87953 9.5496 6.05535 9.72541C6.23116 9.90123 6.46962 10 6.71826 10Z" fill="url(#paint1_linear_214_1971)"/>
<path d="M9.76562 10C10.0143 10 10.2527 9.90123 10.4285 9.72541C10.6044 9.5496 10.7031 9.31114 10.7031 9.0625C10.7031 8.81386 10.6044 8.5754 10.4285 8.39959C10.2527 8.22377 10.0143 8.125 9.76562 8.125C9.51698 8.125 9.27853 8.22377 9.10271 8.39959C8.9269 8.5754 8.82812 8.81386 8.82812 9.0625C8.82812 9.31114 8.9269 9.5496 9.10271 9.72541C9.27853 9.90123 9.51698 10 9.76562 10Z" fill="url(#paint2_linear_214_1971)"/>
<path d="M12.8125 10C13.0611 10 13.2996 9.90123 13.4754 9.72541C13.6512 9.5496 13.75 9.31114 13.75 9.0625C13.75 8.81386 13.6512 8.5754 13.4754 8.39959C13.2996 8.22377 13.0611 8.125 12.8125 8.125C12.5639 8.125 12.3254 8.22377 12.1496 8.39959C11.9738 8.5754 11.875 8.81386 11.875 9.0625C11.875 9.31114 11.9738 9.5496 12.1496 9.72541C12.3254 9.90123 12.5639 10 12.8125 10Z" fill="url(#paint3_linear_214_1971)"/>
<defs>
<linearGradient id="paint0_linear_214_1971" x1="10" y1="2.96838" x2="10" y2="17.0317" gradientUnits="userSpaceOnUse">
<stop stop-color="#1BC9FA"/>
<stop offset="1" stop-color="#1778F0"/>
</linearGradient>
<linearGradient id="paint1_linear_214_1971" x1="9.99993" y1="2.96833" x2="9.99993" y2="17.0317" gradientUnits="userSpaceOnUse">
<stop stop-color="#1BC9FA"/>
<stop offset="1" stop-color="#1778F0"/>
</linearGradient>
<linearGradient id="paint2_linear_214_1971" x1="9.99979" y1="2.96833" x2="9.99979" y2="17.0317" gradientUnits="userSpaceOnUse">
<stop stop-color="#1BC9FA"/>
<stop offset="1" stop-color="#1778F0"/>
</linearGradient>
<linearGradient id="paint3_linear_214_1971" x1="10" y1="2.9675" x2="10" y2="17.0308" gradientUnits="userSpaceOnUse">
<stop stop-color="#1BC9FA"/>
<stop offset="1" stop-color="#1778F0"/>
</linearGradient>
</defs>
</svg>
