<svg width="16" height="16" viewBox="0 0 16 16" fill="none" xmlns="http://www.w3.org/2000/svg">
<rect width="16" height="16" rx="4" fill="#C28D3E"/>
<path d="M10.9003 4.64643C10.7664 4.57199 10.6191 4.52466 10.4669 4.50715C10.3147 4.48964 10.1605 4.5023 10.0131 4.54438C9.86578 4.58647 9.72818 4.65718 9.60816 4.75246C9.48815 4.84774 9.38809 4.96572 9.31368 5.09968L7.14776 8.99751L5.90818 7.75793C5.80056 7.6465 5.67182 7.55762 5.52949 7.49648C5.38715 7.43534 5.23406 7.40315 5.07915 7.40181C4.92424 7.40046 4.77061 7.42998 4.62723 7.48864C4.48385 7.5473 4.35359 7.63393 4.24405 7.74347C4.13451 7.85301 4.04788 7.98327 3.98922 8.12665C3.93056 8.27003 3.90104 8.42366 3.90239 8.57857C3.90373 8.73347 3.93592 8.88656 3.99706 9.0289C4.05821 9.17124 4.14708 9.29998 4.25851 9.4076L6.59185 11.7409C6.81235 11.962 7.10985 12.0833 7.41668 12.0833L7.57826 12.0717C7.75708 12.0467 7.92766 11.9805 8.07656 11.8784C8.22546 11.7762 8.34862 11.6409 8.43635 11.4831L11.353 6.2331C11.4275 6.09919 11.4748 5.95193 11.4924 5.79973C11.5099 5.64752 11.4973 5.49335 11.4553 5.34601C11.4133 5.19867 11.3426 5.06106 11.2474 4.94102C11.1522 4.82099 11.0343 4.72089 10.9003 4.64643Z" fill="white"/>
</svg>
