<svg width="32" height="32" viewBox="0 0 32 32" fill="none" xmlns="http://www.w3.org/2000/svg">
<path d="M25.3332 14.856C24.8906 14.7925 24.4458 14.7449 23.9998 14.7133M7.99984 17.2866C7.54473 17.2546 7.10028 17.2071 6.6665 17.144M19.3332 16C19.3332 16.884 18.982 17.7319 18.3569 18.357C17.7317 18.9821 16.8839 19.3333 15.9998 19.3333C15.1158 19.3333 14.2679 18.9821 13.6428 18.357C13.0177 17.7319 12.6665 16.884 12.6665 16C12.6665 15.1159 13.0177 14.2681 13.6428 13.6429C14.2679 13.0178 15.1158 12.6666 15.9998 12.6666C16.8839 12.6666 17.7317 13.0178 18.3569 13.6429C18.982 14.2681 19.3332 15.1159 19.3332 16Z" stroke="white" stroke-width="1.5" stroke-linecap="round" stroke-linejoin="round"/>
<path d="M15.9998 26C14.2238 26.8293 11.8892 27.3333 9.33317 27.3333C7.91184 27.3333 6.55984 27.1773 5.33317 26.8973C3.33317 26.4386 2.6665 25.2346 2.6665 23.1813V8.81863C2.6665 7.50529 4.05317 6.60396 5.33317 6.89729C6.55984 7.17729 7.91184 7.33329 9.33317 7.33329C11.8892 7.33329 14.2238 6.82929 15.9998 5.99996C17.7758 5.17063 20.1105 4.66663 22.6665 4.66663C24.0878 4.66663 25.4398 4.82263 26.6665 5.10263C28.7758 5.58663 29.3332 6.82663 29.3332 8.81863V23.1813C29.3332 24.4946 27.9465 25.396 26.6665 25.1026C25.4398 24.8226 24.0878 24.6666 22.6665 24.6666C20.1105 24.6666 17.7758 25.1706 15.9998 26Z" stroke="white" stroke-width="1.5" stroke-linecap="round" stroke-linejoin="round"/>
</svg>
