<svg width="302" height="241" viewBox="0 0 302 241" fill="none" xmlns="http://www.w3.org/2000/svg">
<rect width="301.25" height="241" fill="white"/>
<path d="M163.879 77.12C168.537 77.12 172.314 80.8962 172.314 85.5546C172.314 90.2131 168.537 93.9901 163.879 93.9901H240.999C245.657 93.9901 249.433 97.7663 249.434 102.425C249.434 107.083 245.658 110.86 240.999 110.86H267.509C272.167 110.86 275.944 114.636 275.944 119.295C275.944 123.953 272.167 127.73 267.509 127.73H244.614C239.956 127.73 236.179 131.506 236.179 136.165C236.179 140.823 239.956 144.6 244.614 144.6H251.844C256.502 144.6 260.279 148.377 260.279 153.035C260.279 157.694 256.502 161.47 251.844 161.47H189.184C188.563 161.47 187.959 161.403 187.377 161.276C186.795 161.403 186.19 161.47 185.569 161.47H75.9141C71.2556 161.47 67.4795 157.694 67.4795 153.035C67.4795 148.377 71.2555 144.6 75.9141 144.6H28.9189C24.2605 144.6 20.4844 140.823 20.4844 136.165C20.4844 131.506 24.2605 127.73 28.9189 127.73H77.1191C81.7776 127.73 85.5537 123.953 85.5537 119.295C85.5536 114.636 81.7775 110.86 77.1191 110.86H46.9941C42.3356 110.86 38.5586 107.083 38.5586 102.425C38.5588 97.7663 42.3357 93.9901 46.9941 93.9901H95.1943C90.5358 93.9901 86.7588 90.2131 86.7588 85.5546C86.759 80.8962 90.536 77.12 95.1943 77.12H163.879Z" fill="#EAEAEA"/>
<path fill-rule="evenodd" clip-rule="evenodd" d="M110.862 168.7C96.2205 168.7 84.3516 157.101 84.3516 142.793C84.3516 128.484 96.2205 116.885 110.862 116.885C111.484 116.885 112.102 116.906 112.714 116.947C112.288 114.581 112.067 112.144 112.067 109.655C112.067 87.028 130.409 68.6851 153.037 68.6851C171.101 68.6851 186.434 80.3759 191.884 96.6043C193.175 96.4693 194.486 96.4001 195.814 96.4001C216.112 96.4001 232.567 112.585 232.567 132.55C232.567 151.517 217.715 167.167 198.827 168.674V168.7H130.753M125.316 168.7H116.923H125.316Z" fill="white"/>
<path d="M110.862 170.206C111.693 170.206 112.368 169.532 112.368 168.7C112.368 167.868 111.693 167.194 110.862 167.194V168.7V170.206ZM112.714 116.947L112.612 118.45L114.537 118.58L114.196 116.681L112.714 116.947ZM191.884 96.6043L190.456 97.0838L190.84 98.2279L192.041 98.1024L191.884 96.6043ZM198.827 168.674L198.707 167.172L197.32 167.283V168.674H198.827ZM198.827 168.7V170.206H200.333V168.7H198.827ZM130.753 167.194C129.922 167.194 129.247 167.868 129.247 168.7C129.247 169.532 129.922 170.206 130.753 170.206V168.7V167.194ZM125.316 170.206C126.148 170.206 126.822 169.532 126.822 168.7C126.822 167.868 126.148 167.194 125.316 167.194V168.7V170.206ZM116.923 167.194C116.092 167.194 115.417 167.868 115.417 168.7C115.417 169.532 116.092 170.206 116.923 170.206V168.7V167.194ZM110.862 168.7V167.194C97.0195 167.194 85.8578 156.237 85.8578 142.793H84.3516H82.8453C82.8453 157.965 95.4214 170.206 110.862 170.206V168.7ZM84.3516 142.793H85.8578C85.8578 129.349 97.0195 118.391 110.862 118.391V116.885V115.379C95.4214 115.379 82.8453 127.62 82.8453 142.793H84.3516ZM110.862 116.885V118.391C111.45 118.391 112.034 118.411 112.612 118.45L112.714 116.947L112.815 115.444C112.169 115.401 111.518 115.379 110.862 115.379V116.885ZM112.714 116.947L114.196 116.681C113.787 114.402 113.573 112.054 113.573 109.655H112.067H110.56C110.56 112.234 110.79 114.76 111.231 117.214L112.714 116.947ZM112.067 109.655H113.573C113.573 87.8598 131.241 70.1913 153.037 70.1913V68.6851V67.1788C129.578 67.1788 110.56 86.1961 110.56 109.655H112.067ZM153.037 68.6851V70.1913C170.434 70.1913 185.206 81.4503 190.456 97.0838L191.884 96.6043L193.312 96.1248C187.663 79.3016 171.767 67.1788 153.037 67.1788V68.6851ZM191.884 96.6043L192.041 98.1024C193.28 97.9728 194.539 97.9063 195.814 97.9063V96.4001V94.8938C194.434 94.8938 193.071 94.9658 191.727 95.1062L191.884 96.6043ZM195.814 96.4001V97.9063C215.304 97.9063 231.06 113.44 231.06 132.55H232.567H234.073C234.073 111.73 216.92 94.8938 195.814 94.8938V96.4001ZM232.567 132.55H231.06C231.06 150.71 216.835 165.726 198.707 167.172L198.827 168.674L198.946 170.175C218.596 168.607 234.073 152.325 234.073 132.55H232.567ZM198.827 168.674H197.32V168.7H198.827H200.333V168.674H198.827ZM198.827 168.7V167.194H130.753V168.7V170.206H198.827V168.7ZM125.316 168.7V167.194H116.923V168.7V170.206H125.316V168.7Z" fill="#232323"/>
<path fill-rule="evenodd" clip-rule="evenodd" d="M140.52 77.5329C140.52 116.362 175.489 148.357 220.517 152.677C214.874 159.616 206.16 164.323 196.232 165.062V165.085H115.372C105.562 165.085 89.1719 160.952 89.1719 142.851C89.1719 124.75 101.914 120.617 115.372 120.617C115.945 120.617 116.512 120.635 117.075 120.67C116.684 118.639 116.615 116.546 116.48 114.412C115.566 99.996 121.855 81.8279 140.541 75.915C140.527 76.4541 140.52 76.9928 140.52 77.5329Z" fill="#EAEAEA"/>
<path d="M153.439 77.2802C160.729 79.2094 166.485 84.9105 168.492 92.1685" stroke="#232323" stroke-width="2.8" stroke-linecap="round"/>
<path d="M130.14 122.307C130.14 126.633 133.916 130.14 138.575 130.14C143.233 130.14 147.01 126.633 147.01 122.307" stroke="#232323" stroke-width="3.0125" stroke-linecap="round"/>
<path d="M165.085 122.307C165.085 126.633 168.862 130.14 173.52 130.14C178.179 130.14 181.955 126.633 181.955 122.307" stroke="#232323" stroke-width="3.0125" stroke-linecap="round"/>
<path d="M147.01 144.6H164.482" stroke="#232323" stroke-width="3.0125" stroke-linecap="round"/>
<path d="M99.4941 92.9009L91.4736 102.752H99.6865V104.835H88.4082V102.869L96.4287 93.1509H89.0254V91.0688H99.4941V92.9009ZM83.334 75.1704L72.3057 88.7173H83.5986V91.5796H68.0898V88.8765L79.1182 75.5151H68.9385V72.6519H83.334V75.1704Z" fill="#C28D3E"/>
</svg>
