<svg width="21" height="21" viewBox="0 0 21 21" fill="none" xmlns="http://www.w3.org/2000/svg">
<path d="M4.39331 12.9672C4.32374 13.148 4.16657 13.6349 4.1272 14.4155C4.79657 14.2826 5.30123 13.6864 5.30123 12.9698H4.4271C4.41562 12.9695 4.40479 12.9672 4.39331 12.9672Z" fill="#05090A"/>
<path d="M7.34045 13.523C7.50137 13.523 7.63182 13.2753 7.63182 12.9698C7.63182 12.6643 7.50137 12.4166 7.34045 12.4166C7.17953 12.4166 7.04907 12.6643 7.04907 12.9698C7.04907 13.2753 7.17953 13.523 7.34045 13.523Z" fill="#05090A"/>
<path d="M8.5063 13.1542C8.66741 13.1542 8.79801 12.9067 8.79801 12.6013C8.79801 12.296 8.66741 12.0484 8.5063 12.0484C8.3452 12.0484 8.2146 12.296 8.2146 12.6013C8.2146 12.9067 8.3452 13.1542 8.5063 13.1542Z" fill="#05090A"/>
<path d="M9.67142 12.7854C9.83216 12.7854 9.96246 12.5377 9.96246 12.2322C9.96246 11.9266 9.83216 11.679 9.67142 11.679C9.51068 11.679 9.38037 11.9266 9.38037 12.2322C9.38037 12.5377 9.51068 12.7854 9.67142 12.7854Z" fill="#05090A"/>
<path d="M18.4121 15.5961L12.6876 13.0377C12.7399 12.9671 12.7923 12.8958 12.8448 12.8238C12.9859 12.6302 13.1355 12.4264 13.3019 12.2263C14.0622 12.1636 15.5322 11.6137 16.0532 11.0962C16.1015 11.0483 16.1346 10.9515 16.1559 10.8304L20.3438 8.37769L17.0202 9.31284L17.3585 7.67222L18.459 7.25288L17.4176 7.38511L17.5482 6.75216L18.0879 6.88669L19.2862 6.03225L17.7903 5.57747L17.7985 5.53612L18.023 4.44872L17.0353 4.86544L16.8033 4.96322L15.7904 3.9375L14.6246 4.30598L15.2224 5.62997L15.1069 5.6782L15.0095 5.85408L13.9175 7.82939L13.3738 7.89863C13.346 7.87434 13.3108 7.86012 13.274 7.85827C13.274 7.85827 11.3663 8.10895 10.6516 8.77833C10.5151 8.9063 10.3731 9.09628 10.3626 9.47198C9.5087 9.72834 8.65612 9.98888 7.80482 10.2536L5.00952 7.9928V6.14939L4.42677 6.5182L3.84402 8.36128L5.17752 11.1034C5.05218 11.1467 4.93274 11.1884 4.82446 11.2278C3.21369 11.8082 2.8754 12.4592 2.48394 13.2133C2.25163 13.6605 2.01144 14.1228 1.41097 14.7289C0.995897 15.1482 0.473193 15.7789 0.719287 16.4151C0.885318 16.8443 1.31812 17.0625 2.00521 17.0625C3.27899 17.0625 5.71893 16.3665 9.12913 15.038L18.1207 16.8407L19.2862 15.9866V13.8908L18.7206 14.2777L18.4121 15.5961ZM18.2293 9.27806L16.1825 10.4767C16.1835 10.2733 16.1608 10.0705 16.1149 9.8723L18.2293 9.27806ZM13.7409 8.14931L13.5641 8.46923C13.5632 8.37047 13.5503 8.27218 13.5257 8.17655L13.7409 8.14931ZM11.7108 12.6013L7.24044 14.6593L8.05058 14.8217C4.97769 15.9748 3.00304 16.4719 2.00521 16.4719C1.01165 16.4719 0.985068 15.9797 1.80341 15.1528C2.26935 14.6826 2.54465 14.2787 2.74972 13.9223L2.74612 13.9286C3.01288 14.2416 3.40335 14.4437 3.84435 14.4437L3.85157 14.4431C3.87979 13.733 3.99726 13.2241 4.09143 12.9242C3.88469 12.8752 3.69131 12.7812 3.52508 12.6489C3.26718 12.9252 3.11919 13.2277 2.93643 13.5775C3.32296 12.8366 3.54969 12.3106 5.00821 11.7849C7.32543 10.9499 13.9017 9.03558 13.9017 9.03558L15.4751 6.19008L15.498 6.24094L16.9982 6.61467L16.4063 9.48445L16.0004 9.59864C15.9699 9.56189 15.9364 9.5422 15.8993 9.5468C15.1634 9.64327 13.8266 10.0784 13.167 10.7576C13.0312 10.8974 12.8753 11.0873 12.8753 11.4945C12.8753 11.6055 12.8858 11.7095 12.9032 11.8043C12.6125 12.1505 12.3766 12.5006 12.1489 12.7965L11.7108 12.6013ZM2.84422 13.7524L2.85866 13.7251C2.85429 13.7343 2.84947 13.7434 2.84422 13.7524Z" fill="#05090A"/>
</svg>
