<svg width="36" height="36" viewBox="0 0 36 36" fill="none" xmlns="http://www.w3.org/2000/svg">
<rect x="0.5" y="0.5" width="35" height="35" rx="11.5" fill="white"/>
<rect x="0.5" y="0.5" width="35" height="35" rx="11.5" stroke="#ECECEC"/>
<path d="M11.1251 17.375C10.9594 17.375 10.8004 17.4409 10.6832 17.5581C10.566 17.6753 10.5001 17.8342 10.5001 18C10.5001 18.1658 10.566 18.3247 10.6832 18.4419C10.8004 18.5592 10.9594 18.625 11.1251 18.625H23.2464L18.2076 23.16C18.0872 23.2715 18.0155 23.4259 18.008 23.5898C18.0004 23.7537 18.0576 23.914 18.1673 24.0361C18.2769 24.1582 18.4301 24.2323 18.5939 24.2424C18.7577 24.2524 18.9188 24.1977 19.0426 24.09L25.2926 18.465C25.3579 18.4064 25.4101 18.3347 25.4458 18.2546C25.4815 18.1745 25.5 18.0877 25.5 18C25.5 17.9123 25.4815 17.8255 25.4458 17.7454C25.4101 17.6653 25.3579 17.5936 25.2926 17.535L19.0426 11.91C18.9188 11.8023 18.7577 11.7476 18.5939 11.7577C18.4301 11.7677 18.2769 11.8418 18.1673 11.9639C18.0576 12.086 18.0004 12.2463 18.008 12.4102C18.0155 12.5741 18.0872 12.7285 18.2076 12.84L23.2464 17.375H11.1251Z" fill="#C28D3E"/>
</svg>
