<svg width="231" height="183" viewBox="0 0 231 183" fill="none" xmlns="http://www.w3.org/2000/svg">
<path d="M51.3197 94.2706C16.37 114.444 16.37 147.163 51.3197 167.336C86.2693 187.51 142.928 187.51 177.877 167.336C212.827 147.163 212.827 114.444 177.877 94.2706C142.928 74.0971 86.2693 74.0971 51.3197 94.2706Z" fill="#EAEAEA"/>
<path d="M30.3713 11.43H34.737C34.713 11.2861 34.689 11.1422 34.689 11.0222V10.0627C34.689 8.35962 36.2722 6.99233 38.2391 6.99233C39.0307 6.99233 39.7503 7.20822 40.35 7.59202C40.6619 5.3372 42.8927 3.56213 45.6033 3.56213C48.5297 3.56213 50.9045 5.62505 50.9045 8.14373V9.58297C50.9045 10.2306 50.7366 10.8543 50.4487 11.43H54.0948C55.1743 11.43 56.0618 12.1976 56.0618 13.1331C56.0618 14.0686 55.1743 14.8362 54.0948 14.8362H30.3713C29.2918 14.8362 28.4043 14.0686 28.4043 13.1331C28.4043 12.1976 29.2918 11.43 30.3713 11.43Z" fill="#EAEAEA"/>
<path d="M18.4703 41.3663H15.328C15.3519 41.2703 15.3519 41.1744 15.3519 41.0545V40.3588C15.3519 39.1355 14.2006 38.152 12.8093 38.152C12.2336 38.152 11.7059 38.3199 11.2981 38.5838C11.0582 36.9526 9.47503 35.6813 7.53205 35.6813C5.42116 35.6813 3.71805 37.1685 3.71805 38.9676V39.999C3.71805 40.4788 3.83799 40.9105 4.02989 41.3183H1.41526C0.623672 41.3183 0 41.87 0 42.5417C0 43.2133 0.623672 43.765 1.41526 43.765H18.4703C19.2619 43.765 19.8856 43.2133 19.8856 42.5417C19.8856 41.918 19.2379 41.3663 18.4703 41.3663Z" fill="#EAEAEA"/>
<path d="M194.912 41.966H199.278C199.254 41.8221 199.23 41.6782 199.23 41.5582V40.5987C199.23 38.8956 200.813 37.5283 202.78 37.5283C203.572 37.5283 204.291 37.7442 204.891 38.128C205.203 35.8732 207.434 34.0981 210.144 34.0981C213.071 34.0981 215.446 36.1611 215.446 38.6797V40.095C215.446 40.7427 215.278 41.3663 214.99 41.942H218.636C219.715 41.942 220.603 42.7096 220.603 43.6451C220.603 44.5806 219.715 45.3482 218.636 45.3482H194.912C193.833 45.3482 192.945 44.5806 192.945 43.6451C192.945 42.7096 193.809 41.966 194.912 41.966Z" fill="#EAEAEA"/>
<path d="M229.13 16.925H225.988C226.012 16.8291 226.012 16.7331 226.012 16.6132V15.9175C226.012 14.6942 224.861 13.7107 223.469 13.7107C222.894 13.7107 222.366 13.8786 221.958 14.1425C221.718 12.5113 220.135 11.24 218.192 11.24C216.081 11.24 214.378 12.7272 214.378 14.5263V15.5577C214.378 16.0375 214.498 16.4692 214.69 16.877H212.075C211.284 16.877 210.66 17.4287 210.66 18.1004C210.66 18.772 211.284 19.3237 212.075 19.3237H229.13C229.922 19.3237 230.546 18.772 230.546 18.1004C230.546 17.4527 229.898 16.925 229.13 16.925Z" fill="#EAEAEA"/>
<path d="M188.239 7.58002H185.672C185.696 7.4361 185.696 7.31616 185.696 7.17224V6.26072C185.696 4.62957 184.161 3.31026 182.29 3.31026C181.523 3.31026 180.827 3.52615 180.251 3.88596C179.939 1.70311 177.805 0 175.19 0C172.383 0 170.081 1.96697 170.081 4.41369V5.78097C170.081 6.40464 170.225 7.00433 170.512 7.55604H168.713C167.658 7.55604 166.818 8.29965 166.818 9.18718C166.818 10.0987 167.658 10.8183 168.713 10.8183H188.215C189.271 10.8183 190.11 10.0747 190.11 9.18718C190.134 8.29965 189.271 7.58002 188.239 7.58002Z" fill="#EAEAEA"/>
<path d="M31.0274 128.357C31.1473 127.901 31.0994 127.085 30.3318 126.438C29.5642 125.79 28.5327 125.55 28.4368 125.598C28.3408 125.67 28.4368 126.702 29.2283 127.565C29.9959 128.405 30.7396 128.357 31.0274 128.357Z" fill="#232323"/>
<path d="M31.4585 130.779C31.3626 130.324 30.9308 129.604 29.9713 129.388C29.0118 129.172 27.9563 129.412 27.9084 129.508C27.8364 129.604 28.4121 130.492 29.5155 130.899C30.595 131.283 31.1946 130.899 31.4585 130.779Z" fill="#232323"/>
<path d="M33.3302 131.163C33.762 130.971 34.3857 130.444 34.4336 129.46C34.4816 128.477 34.1458 127.541 34.0498 127.517C33.9299 127.469 33.0664 128.261 32.8025 129.268C32.5386 130.348 33.1623 130.923 33.3302 131.163Z" fill="#232323"/>
<path d="M34.4087 139.535C34.6246 138.671 34.5527 137.736 34.4807 136.872C34.3848 136.057 34.2408 135.217 34.025 134.425C33.5692 132.77 32.8736 131.139 31.986 129.652C31.4343 128.716 30.7866 127.733 29.9471 127.013C29.9231 126.989 29.8751 127.037 29.8991 127.061C30.7627 128.117 31.0745 128.716 31.5782 129.58C32.01 130.324 32.4418 131.115 32.7776 132.003C33.4013 133.586 33.7371 134.905 33.953 136.464C34.0969 137.472 34.0729 138.479 34.0969 139.511C34.0729 139.703 34.3368 139.751 34.4087 139.535Z" fill="#37474F"/>
<path d="M33.1371 131.931C33.353 131.523 33.497 131.115 33.6169 130.659C33.7368 130.252 33.8088 129.796 33.7368 129.388C33.7368 129.34 33.6889 129.412 33.6649 129.436C33.5929 129.82 33.497 130.18 33.401 130.563C33.2811 130.947 33.0892 131.331 32.8733 131.667C32.8253 131.763 32.8253 131.907 32.8973 131.979C32.9692 132.051 33.0892 132.027 33.1371 131.931Z" fill="#37474F"/>
<path d="M33.0417 131.811C32.6339 131.331 32.2021 131.043 31.5544 130.659C31.2906 130.515 31.0747 130.396 30.7868 130.3C30.499 130.18 29.9713 130.06 29.8034 130.06C29.7794 130.06 29.7074 130.084 29.7314 130.084C29.9953 130.156 30.3791 130.324 30.6669 130.443C31.0027 130.587 31.2186 130.707 31.4585 130.875C32.0582 131.259 32.442 131.571 32.8737 132.003C32.9697 132.075 33.1136 131.883 33.0417 131.811Z" fill="#37474F"/>
<path d="M32.8248 134.21C32.8248 133.73 32.5609 132.962 31.6494 132.53C30.7379 132.123 29.6824 132.123 29.6104 132.219C29.5385 132.315 29.8983 133.298 30.8818 133.898C31.8653 134.521 32.5609 134.258 32.8248 134.21Z" fill="#232323"/>
<path d="M34.169 135.505C33.8812 134.953 33.4974 134.569 32.9457 134.066C32.7058 133.85 32.5139 133.706 32.25 133.538C31.9862 133.37 31.5064 133.13 31.3385 133.106C31.3145 133.106 31.2426 133.106 31.2665 133.13C31.5064 133.25 31.8662 133.49 32.1061 133.658C32.4179 133.874 32.5859 134.018 32.8017 134.233C33.3055 134.737 33.6173 135.121 33.9531 135.625C34.0251 135.769 34.217 135.601 34.169 135.505Z" fill="#37474F"/>
<path d="M37.3829 123.799C37.167 123.343 37.0471 122.456 37.7427 121.616C38.4383 120.801 39.4938 120.321 39.6137 120.369C39.7337 120.417 39.8296 121.568 39.134 122.624C38.4863 123.655 37.6947 123.727 37.3829 123.799Z" fill="#232323"/>
<path d="M37.3828 126.462C37.4068 125.958 37.7186 125.118 38.7021 124.687C39.6856 124.255 40.861 124.327 40.933 124.423C41.0289 124.519 40.5731 125.574 39.4937 126.222C38.4143 126.846 37.6707 126.534 37.3828 126.462Z" fill="#232323"/>
<path d="M35.4644 127.205C34.9607 127.085 34.1931 126.654 33.9532 125.598C33.7133 124.543 33.8812 123.511 33.9772 123.439C34.0971 123.367 35.1766 124.039 35.6323 125.07C36.1361 126.222 35.5844 126.942 35.4644 127.205Z" fill="#232323"/>
<path d="M35.9434 136.369C35.5356 135.481 35.4396 134.474 35.3677 133.514C35.2957 132.602 35.3197 131.715 35.3917 130.803C35.5596 128.932 35.9674 127.085 36.639 125.31C37.0468 124.183 37.5505 123.032 38.3181 122.096C38.3421 122.072 38.3901 122.096 38.3901 122.12C37.6705 123.415 37.4546 124.111 37.0948 125.142C36.7829 126.03 36.4711 126.941 36.2792 127.973C35.9194 129.772 35.8234 131.259 35.8954 132.962C35.9434 134.066 36.1593 135.145 36.3272 136.249C36.3272 136.488 36.0393 136.584 35.9434 136.369Z" fill="#37474F"/>
<path d="M35.8247 128.021C35.5128 127.637 35.273 127.205 35.0811 126.774C34.8892 126.366 34.7213 125.886 34.6973 125.43C34.6973 125.358 34.7692 125.43 34.7692 125.478C34.9132 125.886 35.0811 126.246 35.273 126.63C35.4649 127.013 35.7527 127.373 36.0406 127.709C36.1125 127.781 36.1605 127.949 36.0885 128.045C36.0166 128.117 35.8966 128.093 35.8247 128.021Z" fill="#37474F"/>
<path d="M35.8963 127.853C36.2321 127.253 36.6639 126.869 37.2636 126.342C37.5274 126.126 37.7433 125.982 38.0312 125.79C38.319 125.622 38.8467 125.382 39.0386 125.358C39.0626 125.358 39.1346 125.382 39.1106 125.382C38.8467 125.526 38.4629 125.766 38.1751 125.934C37.8393 126.15 37.6474 126.318 37.4075 126.534C36.8318 127.061 36.496 127.469 36.1122 127.997C36.0402 128.141 35.8483 127.949 35.8963 127.853Z" fill="#37474F"/>
<path d="M36.5684 130.372C36.4964 129.868 36.6163 128.98 37.4799 128.357C38.3674 127.733 39.4948 127.541 39.6148 127.637C39.7107 127.709 39.5188 128.836 38.5833 129.7C37.6718 130.516 36.8802 130.372 36.5684 130.372Z" fill="#232323"/>
<path d="M35.4159 132.027C35.6078 131.379 35.9436 130.899 36.4474 130.276C36.6633 130.012 36.8312 129.82 37.071 129.58C37.3109 129.34 37.7667 129.004 37.9826 128.932C38.0066 128.932 38.0785 128.932 38.0545 128.932C37.8147 129.124 37.4788 129.436 37.2629 129.676C36.9751 129.964 36.8312 130.156 36.6393 130.444C36.1835 131.067 35.9436 131.547 35.6798 132.147C35.6078 132.291 35.3919 132.147 35.4159 132.027Z" fill="#37474F"/>
<path d="M198.675 128.357C198.555 127.901 198.603 127.085 199.37 126.438C200.138 125.79 201.17 125.55 201.265 125.598C201.361 125.67 201.265 126.702 200.474 127.565C199.682 128.405 198.963 128.357 198.675 128.357Z" fill="#232323"/>
<path d="M198.219 130.779C198.315 130.324 198.746 129.604 199.706 129.388C200.665 129.172 201.721 129.412 201.769 129.508C201.841 129.604 201.265 130.492 200.162 130.899C199.106 131.283 198.483 130.899 198.219 130.779Z" fill="#232323"/>
<path d="M196.348 131.163C195.917 130.971 195.293 130.444 195.245 129.46C195.197 128.477 195.533 127.541 195.629 127.517C195.749 127.469 196.612 128.261 196.876 129.268C197.14 130.348 196.516 130.923 196.348 131.163Z" fill="#232323"/>
<path d="M195.292 139.535C195.076 138.671 195.148 137.736 195.22 136.872C195.316 136.057 195.46 135.217 195.676 134.425C196.132 132.77 196.828 131.139 197.715 129.652C198.267 128.716 198.914 127.733 199.754 127.013C199.778 126.989 199.826 127.037 199.802 127.061C198.938 128.117 198.627 128.716 198.123 129.58C197.691 130.324 197.259 131.115 196.924 132.003C196.3 133.586 195.964 134.905 195.748 136.464C195.604 137.472 195.628 138.479 195.604 139.511C195.604 139.703 195.34 139.751 195.292 139.535Z" fill="#37474F"/>
<path d="M196.564 131.931C196.348 131.523 196.204 131.115 196.084 130.659C195.964 130.252 195.892 129.796 195.964 129.388C195.964 129.34 196.012 129.412 196.036 129.436C196.108 129.82 196.204 130.18 196.3 130.563C196.42 130.947 196.612 131.331 196.828 131.667C196.876 131.763 196.876 131.907 196.804 131.979C196.708 132.051 196.588 132.027 196.564 131.931Z" fill="#37474F"/>
<path d="M196.66 131.811C197.068 131.331 197.5 131.043 198.147 130.659C198.411 130.515 198.627 130.396 198.915 130.3C199.203 130.18 199.73 130.06 199.898 130.06C199.922 130.06 199.994 130.084 199.97 130.084C199.706 130.156 199.323 130.324 199.035 130.443C198.699 130.587 198.483 130.707 198.243 130.875C197.644 131.259 197.26 131.571 196.828 132.003C196.732 132.075 196.588 131.883 196.66 131.811Z" fill="#37474F"/>
<path d="M196.852 134.21C196.852 133.73 197.115 132.962 198.027 132.53C198.938 132.123 199.994 132.123 200.066 132.219C200.138 132.315 199.778 133.298 198.795 133.898C197.811 134.521 197.139 134.258 196.852 134.21Z" fill="#232323"/>
<path d="M195.532 135.505C195.82 134.953 196.204 134.569 196.755 134.066C196.995 133.85 197.187 133.706 197.451 133.538C197.715 133.37 198.194 133.13 198.362 133.106C198.386 133.106 198.458 133.106 198.434 133.13C198.194 133.25 197.835 133.49 197.595 133.658C197.283 133.874 197.115 134.018 196.899 134.233C196.395 134.737 196.084 135.121 195.748 135.625C195.652 135.769 195.484 135.601 195.532 135.505Z" fill="#37474F"/>
<path d="M193.061 123.799C193.277 123.343 193.397 122.456 192.702 121.616C192.006 120.801 190.95 120.321 190.831 120.369C190.711 120.417 190.615 121.568 191.31 122.624C191.982 123.655 192.773 123.727 193.061 123.799Z" fill="#232323"/>
<path d="M193.086 126.462C193.062 125.958 192.75 125.118 191.767 124.687C190.783 124.255 189.608 124.327 189.536 124.423C189.44 124.519 189.896 125.574 190.975 126.222C192.055 126.846 192.774 126.534 193.086 126.462Z" fill="#232323"/>
<path d="M195.004 127.205C195.508 127.085 196.276 126.654 196.515 125.598C196.755 124.543 196.587 123.511 196.491 123.439C196.372 123.367 195.292 124.039 194.836 125.07C194.309 126.222 194.884 126.942 195.004 127.205Z" fill="#232323"/>
<path d="M194.525 136.369C194.933 135.481 195.029 134.474 195.101 133.514C195.172 132.602 195.149 131.715 195.077 130.803C194.909 128.932 194.501 127.085 193.829 125.31C193.421 124.183 192.918 123.032 192.15 122.096C192.126 122.072 192.078 122.096 192.078 122.12C192.798 123.415 193.014 124.111 193.373 125.142C193.685 126.03 193.997 126.941 194.189 127.973C194.549 129.772 194.645 131.259 194.573 132.962C194.525 134.066 194.309 135.145 194.141 136.249C194.141 136.488 194.429 136.584 194.525 136.369Z" fill="#37474F"/>
<path d="M194.645 128.021C194.957 127.637 195.197 127.205 195.389 126.774C195.581 126.366 195.749 125.886 195.773 125.43C195.773 125.358 195.701 125.43 195.701 125.478C195.557 125.886 195.389 126.246 195.197 126.63C195.005 127.013 194.717 127.373 194.429 127.709C194.357 127.781 194.309 127.949 194.381 128.045C194.453 128.117 194.573 128.093 194.645 128.021Z" fill="#37474F"/>
<path d="M194.549 127.853C194.213 127.253 193.782 126.869 193.182 126.342C192.918 126.126 192.702 125.982 192.414 125.79C192.126 125.622 191.599 125.382 191.407 125.358C191.383 125.358 191.311 125.382 191.335 125.382C191.599 125.526 191.983 125.766 192.27 125.934C192.606 126.15 192.798 126.318 193.038 126.534C193.614 127.061 193.95 127.469 194.333 127.997C194.429 128.141 194.621 127.949 194.549 127.853Z" fill="#37474F"/>
<path d="M193.877 130.372C193.949 129.868 193.829 128.98 192.966 128.357C192.078 127.733 190.951 127.541 190.831 127.637C190.735 127.709 190.927 128.836 191.862 129.7C192.798 130.516 193.565 130.372 193.877 130.372Z" fill="#232323"/>
<path d="M195.054 132.027C194.862 131.379 194.526 130.899 194.022 130.276C193.806 130.012 193.638 129.82 193.398 129.58C193.159 129.34 192.703 129.004 192.487 128.932C192.463 128.932 192.391 128.932 192.415 128.932C192.655 129.124 192.991 129.436 193.207 129.676C193.494 129.964 193.638 130.156 193.83 130.444C194.286 131.067 194.526 131.547 194.79 132.147C194.862 132.291 195.078 132.147 195.054 132.027Z" fill="#37474F"/>
<path d="M111.336 173.069C122.822 173.069 132.133 167.689 132.133 161.052C132.133 154.414 122.822 149.034 111.336 149.034C99.8502 149.034 90.5391 154.414 90.5391 161.052C90.5391 167.689 99.8502 173.069 111.336 173.069Z" fill="#BFC0C1"/>
<path d="M176.342 153.735C187.828 153.735 197.139 148.355 197.139 141.718C197.139 135.08 187.828 129.7 176.342 129.7C164.856 129.7 155.545 135.08 155.545 141.718C155.545 148.355 164.856 153.735 176.342 153.735Z" fill="#BFC0C1"/>
<path d="M53.0705 153.735C64.5564 153.735 73.8676 148.355 73.8676 141.718C73.8676 135.08 64.5564 129.7 53.0705 129.7C41.5846 129.7 32.2734 135.08 32.2734 141.718C32.2734 148.355 41.5846 153.735 53.0705 153.735Z" fill="#BFC0C1"/>
<path d="M184.955 146.659C185.099 147.979 185.315 148.866 185.843 149.634C186.37 150.377 187.282 150.593 188.193 150.329C189.105 150.065 190.088 149.37 190.496 148.266C190.832 147.331 190.832 146.323 190.568 145.124L184.955 146.659Z" fill="#263238"/>
<path d="M188.72 137.904C188.936 138.767 189.032 139.367 189.32 140.59C189.776 142.461 190.256 143.253 190.52 144.788C190.831 146.563 190.639 147.427 189.968 148.458C189.272 149.514 187.113 150.713 185.938 149.226C184.978 148.002 184.882 146.611 184.882 144.836C184.906 142.989 184.715 141.718 184.571 140.35V140.326C184.523 139.847 184.451 138.911 184.379 138.431C184.235 137.4 184.93 137.28 185.218 137.136C185.602 136.92 186.01 136.776 186.466 136.68C186.897 136.608 187.353 136.656 187.809 136.752C188.289 136.824 188.505 137.064 188.72 137.904Z" fill="#232323"/>
<path d="M159.263 141.142C159.191 141.142 159.072 142.03 159.551 142.389C160.079 142.797 161.638 143.469 163.629 143.157C165.644 142.845 166.699 142.221 167.491 141.526C168.283 140.854 169.386 139.895 170.274 139.679C171.113 139.463 172.217 139.007 172.48 138.743C172.744 138.479 172.672 137.352 172.672 137.352L159.263 141.142Z" fill="#263238"/>
<path d="M171.713 133.754C171.809 133.754 171.905 133.778 171.977 133.826C172.193 133.946 172.241 134.234 172.265 134.498C172.289 134.713 172.289 134.953 172.361 135.169C172.625 135.841 172.793 137.064 172.625 137.784C172.481 138.359 170.97 138.863 170.106 139.223C169.219 139.583 168.187 140.302 167.3 141.046C166.388 141.838 164.397 142.653 163.102 142.701C161.111 142.797 159.792 142.317 159.36 141.622C158.832 140.782 159.216 140.278 161.495 139.175C161.927 138.959 163.438 138.048 163.942 137.712C164.493 137.352 164.997 136.968 165.477 136.536C165.717 136.321 165.957 136.081 166.148 135.841C166.46 135.481 166.868 135.193 167.252 134.881C167.516 134.665 167.804 134.426 168.115 134.258C168.619 133.97 169.171 133.85 169.747 133.802C170.322 133.754 170.874 133.874 171.45 133.826C171.546 133.778 171.642 133.754 171.713 133.754Z" fill="#232323"/>
<path d="M188.482 137.448C188.026 133.61 188.338 129.364 187.762 123.367C187.666 121.832 187.546 120.177 187.378 118.714C186.826 113.796 185.963 112.141 185.843 111.182C185.843 111.182 185.795 101.491 185.027 90.7205C184.668 85.6592 183.084 84.1719 181.741 81.5333L166.653 82.133C165.31 88.8495 165.622 104.01 165.933 110.87C166.101 114.372 167.013 126.894 167.061 132.579C167.085 134.258 166.749 134.857 166.149 135.505C164.902 136.896 163.295 137.904 161.784 138.983C161.376 139.895 163.487 140.422 165.262 139.463C166.773 138.647 168.5 137.64 169.004 137.232C170.299 136.225 171.69 135.553 171.954 134.114C172.05 133.538 174.785 120.177 174.833 117.275C174.881 114.78 174.401 110.558 174.401 110.558L175.648 99.9317C175.648 99.9317 177.303 108.039 178.287 112.309C179.27 116.579 180.374 121.664 181.501 125.91C182.629 130.803 184.116 135.529 184.452 137.976C184.548 138.551 185.483 144.308 185.819 145.628C186.155 146.947 189.153 146.851 189.249 144.572C189.321 143.037 188.578 138.168 188.482 137.448Z" fill="#B16669"/>
<path d="M182.173 81.6293C184.02 84.5797 185.387 87.0025 185.915 95.9737C186.442 104.945 186.395 110.39 186.49 111.47C186.562 112.549 187.138 113.341 187.93 118.642C188.721 123.943 188.337 130.42 188.337 130.42C188.337 130.42 187.834 131.403 185.723 131.667C183.78 131.907 182.796 131.259 182.796 131.259C182.796 131.259 180.158 121.424 179.294 117.778C178.527 114.564 175.792 102.139 175.792 102.139L174.857 110.75C174.857 110.75 175.648 113.892 175.024 118.594C174.401 123.271 173.345 127.925 173.345 127.925C173.345 127.925 172.362 128.261 170.323 128.309C168.644 128.357 166.797 127.661 166.797 127.661C166.797 127.661 165.789 114.108 165.573 108.807C165.358 103.506 164.926 88.7775 166.605 82.3729L182.173 81.6293Z" fill="#232323"/>
<path d="M184.595 111.518C184.595 111.518 183.492 110.486 181.429 110.798C179.366 111.134 178.574 112.333 178.574 112.333C180.733 111.278 184.595 111.518 184.595 111.518ZM179.774 112.669C180.997 112.861 182.22 112.909 184.859 112.285C183.564 112.045 179.774 112.669 179.774 112.669Z" fill="#B16669"/>
<path d="M165.598 109.599C165.598 109.79 165.622 109.982 165.622 110.174C166.149 110.126 168.5 109.886 170.875 110.15C170.107 109.766 167.373 109.335 165.598 109.599Z" fill="#B16669"/>
<path d="M165.67 110.942C165.67 111.11 165.694 111.302 165.694 111.47C166.102 111.422 168.572 111.182 169.628 110.87C167.853 110.798 166.078 110.894 165.67 110.942Z" fill="#B16669"/>
<path d="M185.963 113.317C185.315 110.87 185.315 106.12 185.147 102.019C185.099 100.771 185.051 99.4999 184.979 98.1326C184.715 92.7834 184.044 86.8105 181.069 83.0685L180.853 83.2364C182.844 85.7551 183.78 89.3052 184.259 92.9993C181.453 92.7594 180.733 90.1208 179.774 86.5227C179.63 86.0189 179.51 85.5152 179.342 84.9875L179.078 85.0594C179.222 85.5872 179.366 86.0909 179.51 86.5946C180.493 90.1927 181.261 93.0712 184.307 93.2871C184.499 94.9183 184.619 96.5494 184.715 98.1566C184.787 99.5238 184.835 100.795 184.883 102.043C185.051 106.168 185.051 110.918 185.699 113.389C185.771 113.676 185.843 113.964 185.939 114.252C186.778 117.418 187.786 122.72 187.594 131.115C187.69 131.043 187.786 130.995 187.882 130.923C188.049 122.6 187.066 117.346 186.226 114.18C186.106 113.868 186.034 113.58 185.963 113.317Z" fill="#37474F"/>
<path d="M175.769 102.138L173.61 92.0157C173.61 92.0157 169.916 91.9198 167.805 89.9288C168.26 91.6799 171.235 93.0472 172.578 93.2871L172.986 95.0621C172.962 96.0216 172.938 97.0291 172.89 98.0606C172.722 103.77 172.602 109.67 172.89 111.014C173.466 113.604 173.322 116.075 172.986 119.457C172.674 122.504 172.17 126.27 171.835 128.213C171.931 128.213 172.026 128.189 172.122 128.189C172.458 126.27 172.89 122.912 173.322 119.481C173.754 116.027 173.874 113.676 173.178 110.966C172.866 109.67 173.01 103.53 173.178 98.0846C173.202 97.4369 173.226 96.7892 173.226 96.1416L174.665 102.402L174.833 110.726L175.769 102.138Z" fill="#37474F"/>
<path d="M147.366 67.0209C147.198 66.3493 147.078 65.6536 147.03 64.958C147.006 64.5982 147.006 64.2144 147.006 63.8546C147.03 63.3748 147.126 63.5907 147.486 63.4228C147.582 63.3748 147.63 63.2549 147.63 63.1589C147.63 63.063 147.606 62.943 147.63 62.8471C147.654 62.6792 147.773 62.5592 147.917 62.4873C147.989 62.4633 148.085 62.4393 148.157 62.3913C148.301 62.2714 148.253 62.0315 148.325 61.8636C148.421 61.6477 148.709 61.5758 148.925 61.6717C149.141 61.7677 149.285 61.9835 149.333 62.1994C149.357 62.2474 149.357 62.2954 149.381 62.3194C149.429 62.3913 149.549 62.3913 149.62 62.3913C149.884 62.4153 150.124 62.6312 150.244 62.8711C150.58 63.4708 150.532 64.2144 150.676 64.862C150.772 65.3178 150.964 65.7256 151.252 66.0854C151.3 66.1334 151.348 66.2053 151.42 66.1813C151.492 66.1574 151.516 66.0854 151.539 66.0134C151.635 65.2938 151.276 64.5502 151.516 63.8785C151.611 63.6387 151.755 63.4468 151.923 63.2549C151.947 63.2069 151.995 63.1829 152.043 63.1589C152.163 63.111 152.283 63.2069 152.331 63.3029C152.403 63.4948 152.403 63.7586 152.451 63.9505C152.571 64.5022 152.691 65.006 152.907 65.5337C153.075 65.9894 153.195 66.4452 153.267 66.9249C153.339 67.3087 153.219 67.8605 153.387 68.2203C153.434 68.3162 153.482 68.3882 153.554 68.4601C154.106 69.0598 157.057 71.5305 157.944 72.2022C158.592 72.6819 159.215 73.1617 159.863 73.6414C159.863 73.6414 162.262 70.643 163.629 69.1318C166.772 65.6296 167.251 64.958 169.986 65.1979L167.587 73.8093C167.587 73.8093 164.996 76.28 162.262 78.6788C160.655 80.094 159.479 80.3099 157.129 77.8872C155.761 76.4719 152.835 73.1857 152.163 72.49C151.563 71.8424 150.796 71.4106 150.124 70.8349C149.165 69.9953 148.061 69.1318 147.63 67.8844C147.534 67.5966 147.438 67.3088 147.366 67.0209Z" fill="#B16669"/>
<path d="M170.105 65.0779C168.33 65.1259 167.106 65.0299 165.451 66.8769C164.228 68.2682 163.748 68.8439 163.748 68.8439C163.748 68.8439 163.412 70.643 164.66 72.562C165.571 73.9772 166.747 74.7448 166.747 74.7448L168.018 73.5934L170.105 65.0779Z" fill="#263238"/>
<path d="M184.57 86.2347C183.491 82.9005 182.387 81.3173 182.579 79.7581C182.867 77.3594 183.827 74.361 183.899 72.7058C184.138 66.8289 183.011 66.2532 181.956 65.7975C181.956 65.7975 180.085 65.3897 179.053 65.1498C178.429 65.0059 177.206 64.838 177.206 64.838C176.247 64.814 174.328 64.838 173.536 64.9099C173.152 64.9579 172.457 64.9099 172.457 64.9099L170.058 65.0778C170.058 65.0778 168.259 66.5891 166.46 69.0118C164.637 71.4825 163.917 74.4329 166.58 76.6398C166.58 76.6398 166.7 78.9426 166.676 79.998C166.58 81.4852 166.076 84.1478 165.836 87.2422C169.89 91.0322 179.989 90.1447 184.57 86.2347Z" fill="#C28D3E"/>
<path d="M175.047 72.562L170.609 68.748L173.991 51.1172L167.467 45.4802L162.382 47.2552L160.007 59.6088L155.089 55.339L172.864 26.6501L165.86 20.6052L160.774 22.3803L141.752 52.8683L140.457 59.7047L157.248 74.1931L155.281 84.3878L161.83 90.0248L166.915 88.2497L167.851 83.3323L168.186 83.6202L173.272 81.8451L175.047 72.562Z" fill="#AB6CAD"/>
<path d="M175.047 72.562L170.609 68.748L173.991 51.1172L167.467 45.4802L162.382 47.2552L160.007 59.6088L155.089 55.339L172.864 26.6501L165.86 20.6052L160.774 22.3803L141.752 52.8683L140.457 59.7047L157.248 74.1931L155.281 84.3878L161.83 90.0248L166.915 88.2497L167.851 83.3323L168.186 83.6202L173.272 81.8451L175.047 72.562Z" fill="#9B1C20"/>
<path d="M165.524 70.5231L168.906 52.8924L162.382 47.2553L158.999 64.8861L150.004 57.1141L167.779 28.4252L160.774 22.3804L141.752 52.8684L140.457 59.7048L157.248 74.1932L155.281 84.3878L161.83 90.0249L163.773 79.8062L168.186 83.6202L169.962 74.3371L165.524 70.5231Z" fill="#CF3A34"/>
<path d="M160.773 22.3803L167.778 28.4251L172.863 26.6501L165.859 20.6052L160.773 22.3803Z" fill="#AB6CAD"/>
<path d="M160.773 22.3803L167.778 28.4251L172.863 26.6501L165.859 20.6052L160.773 22.3803Z" fill="#F69799"/>
<path d="M162.381 47.2553L167.466 45.4802L173.991 51.1173L168.905 52.8923L162.381 47.2553Z" fill="#AB6CAD"/>
<path d="M162.381 47.2553L167.466 45.4802L173.991 51.1173L168.905 52.8923L162.381 47.2553Z" fill="#F69799"/>
<path d="M165.523 70.5231L170.609 68.748L175.046 72.562L169.961 74.3371L165.523 70.5231Z" fill="#AB6CAD"/>
<path d="M165.523 70.5231L170.609 68.748L175.046 72.562L169.961 74.3371L165.523 70.5231Z" fill="#F69799"/>
<path d="M150.004 57.1141L155.089 55.339L160.007 59.6087L158.999 64.886L150.004 57.1141Z" fill="#AB6CAD"/>
<path d="M150.004 57.1141L155.089 55.339L160.007 59.6087L158.999 64.886L150.004 57.1141Z" fill="#F69799"/>
<path d="M181.571 58.0736C181.979 58.0736 182.362 57.9057 182.674 57.6178C183.13 57.186 183.322 56.4904 183.874 56.2025C184.257 56.0106 184.737 56.0586 185.169 55.9387C185.817 55.7708 186.344 55.1231 186.368 54.4515C186.392 53.7558 185.96 53.0602 186.128 52.3646C186.224 51.9328 186.536 51.573 186.704 51.1652C187.04 50.3256 186.704 49.2702 185.912 48.7904C185.553 48.5745 185.145 48.4786 184.785 48.2867C184.041 47.8789 184.161 46.9674 183.514 46.4157C182.962 45.9359 182.17 45.744 181.499 45.9599C181.019 46.1038 180.539 46.4397 180.06 46.3437C179.772 46.2957 179.556 46.1038 179.292 45.9599C178.38 45.4802 177.133 45.792 176.557 46.6316C176.389 46.8954 176.246 47.2073 175.982 47.3752C175.454 47.687 175.382 48.0468 175.142 48.5985C174.902 49.1502 174.854 49.8459 175.214 50.3256C175.454 50.6854 175.886 50.9013 176.078 51.3091C176.413 52.0527 175.79 52.8443 175.694 53.6599C175.55 55.291 177.181 55.1711 177.925 56.1066C178.165 56.4184 178.308 56.7782 178.5 57.0901C178.908 57.7617 179.748 57.4739 180.443 57.7377C180.683 57.8337 180.923 57.9536 181.187 58.0256C181.307 58.0496 181.451 58.0736 181.571 58.0736Z" fill="#263238"/>
<path d="M179.724 48.6226C180.132 48.8864 180.515 49.2223 180.755 49.654C180.851 49.822 180.923 50.0139 180.851 50.2058C180.755 50.5416 180.323 50.6135 179.988 50.6375C178.692 50.6855 177.229 50.1818 176.749 48.8385C176.15 47.1114 179.124 48.2388 179.724 48.6226Z" fill="#2F70B0"/>
<path d="M177.83 61.9116C177.374 62.0076 176.942 61.6957 176.63 61.3839C175.887 60.6403 175.383 59.6808 174.639 58.9612C173.728 58.0736 172.528 57.5459 171.353 57.0422C170.729 56.7783 170.202 56.6104 169.53 56.5864C168.978 56.5624 168.499 56.0587 168.259 55.5789C167.971 55.0512 167.923 54.4275 168.091 53.8758C168.259 53.3481 168.618 52.8684 168.642 52.2927C168.666 51.8849 168.522 51.5011 168.522 51.1173C168.499 50.3737 168.978 49.654 169.674 49.3662C170.346 49.1023 171.185 49.2463 171.761 48.8385C172.217 48.5266 172.432 47.927 172.912 47.6151C173.152 47.4472 173.44 47.3992 173.728 47.3513C174.663 47.2313 175.647 47.4712 176.438 48.0229C176.75 48.2388 177.038 48.5027 177.398 48.6466C177.854 48.8385 178.381 48.8145 178.861 48.9344C179.773 49.1503 180.684 49.798 180.972 50.7095C181.164 51.3332 181.092 51.9568 181.26 52.5805C181.452 53.2282 181.883 53.7559 182.195 54.3556C182.555 55.0752 182.699 55.8908 182.627 56.6824C182.603 56.9942 182.531 57.306 182.363 57.5699C181.931 58.2176 180.948 58.3855 180.66 59.1051C180.564 59.321 180.564 59.5609 180.516 59.8007C180.324 60.9521 179.245 61.8636 178.093 61.9116C177.854 61.8876 178.093 61.8636 177.83 61.9116Z" fill="#263238"/>
<path d="M178.43 63.9746C178.454 63.3989 178.669 60.4724 178.669 60.4724C178.693 60.6883 179.725 61.3359 180.708 60.2565C181.74 59.1531 181.644 57.5219 180.972 56.8743C179.917 55.8428 178.358 56.6824 178.118 58.0976C177.278 58.5054 177.014 57.498 177.59 56.3466C177.542 55.411 176.583 55.2431 176.703 53.2042C176.631 52.1727 173.512 51.1893 170.778 51.693C170.202 52.8684 169.506 53.8279 169.602 55.3151C169.65 55.8428 169.194 56.4665 169.123 57.1621C168.859 60.2565 169.674 61.7677 170.634 62.3194C171.281 62.7032 171.857 62.8471 173.008 62.8951L172.913 63.8786C172.865 64.3584 172.913 64.8141 172.433 64.958C172.217 65.2699 171.689 67.5007 173.344 69.0599C176.535 68.3643 179.053 65.7016 179.293 65.2459C178.502 64.934 178.406 64.5503 178.43 63.9746Z" fill="#B16669"/>
<path d="M170.033 54.7154L171.329 54.4755C171.281 54.1157 170.945 53.8758 170.585 53.9238C170.225 53.9958 169.985 54.3556 170.033 54.7154Z" fill="#263238"/>
<path d="M174.832 54.3795L175.815 55.291C175.576 55.5789 175.168 55.6029 174.88 55.339C174.616 55.0991 174.592 54.6674 174.832 54.3795Z" fill="#263238"/>
<path d="M171.281 55.8428C171.281 56.1546 171.041 56.3945 170.729 56.3945C170.418 56.3945 170.178 56.1546 170.178 55.8668C170.178 55.5549 170.418 55.3151 170.729 55.3151C171.041 55.3151 171.281 55.5549 171.281 55.8428Z" fill="#263238"/>
<path d="M175.119 56.4664C175.119 56.7783 174.879 57.0182 174.567 57.0182C174.255 57.0182 174.016 56.7783 174.016 56.4904C174.016 56.1786 174.255 55.9387 174.567 55.9387C174.879 55.9387 175.119 56.1786 175.119 56.4664Z" fill="#263238"/>
<path d="M170.658 58.1216L172.289 58.8412L172.937 55.7708C172.241 55.7228 171.45 56.8262 170.658 58.1216Z" fill="#9A4B4E"/>
<path d="M172.791 60.4004C173.083 60.4004 173.319 60.1641 173.319 59.8727C173.319 59.5812 173.083 59.345 172.791 59.345C172.5 59.345 172.264 59.5812 172.264 59.8727C172.264 60.1641 172.5 60.4004 172.791 60.4004Z" fill="#9A4B4E"/>
<path d="M173.295 59.7288C173.295 59.7767 173.319 59.8247 173.319 59.8727C173.319 60.1605 173.079 60.4004 172.791 60.4004C172.648 60.4004 172.528 60.3524 172.432 60.2565C172.624 59.9926 172.935 59.7767 173.295 59.7288Z" fill="#F3908F"/>
<path d="M173.033 62.8711C174.592 62.8711 175.672 62.6072 176.391 62.1754C176.991 61.7916 177.447 61.2879 177.662 60.8801C177.662 60.8801 177.327 62.0315 176.559 62.6072C175.12 63.7106 172.961 63.6147 172.961 63.6147L173.033 62.8711Z" fill="#9A4B4E"/>
<path d="M173.751 79.1585C173.751 79.1585 173.631 79.7821 173.631 79.8781C173.607 81.0535 174.303 81.8451 175.383 82.3008C176.894 82.9485 179.412 83.7401 182.675 84.6036C186.369 85.5871 188.264 84.9634 188.935 84.2918C189.607 83.6201 189.895 82.037 189.487 80.3099C188.216 75.0326 187.928 74.1451 187.304 72.0822C185.673 66.685 184.738 66.5891 182.123 65.8455C180.66 67.4766 180.468 70.6669 181.355 73.5214C182.531 77.3834 183.394 79.4943 183.394 79.4943C183.394 79.4943 180.372 79.2065 176.966 78.4868C175.574 78.199 175.958 76.16 175.958 76.16L173.751 79.1585Z" fill="#B16669"/>
<path d="M175.839 75.4885C176.055 74.4091 176.007 74.1932 175.599 73.4016C175.191 72.634 175.023 72.2502 174.832 71.9624C174.64 71.6745 173.824 70.787 173.608 70.667C173.176 70.4512 172.961 71.2907 173.32 71.8424C173.656 72.4181 174.16 73.1138 174.16 73.1138L175.839 75.4885Z" fill="#9A4B4E"/>
<path d="M174.976 80.358C174.88 80.0701 175.887 79.3985 175.791 78.8708C175.695 78.367 175.599 78.3431 175.887 77.8873C176.175 77.4555 176.151 77.0477 175.983 76.8079C175.815 76.568 176.343 76.3761 176.199 75.8244C176.079 75.3926 175.455 74.3372 175.168 73.9294C174.88 73.5216 173.68 72.8739 173.129 72.6341C172.577 72.3702 172.457 72.8499 172.481 73.1858C172.505 73.5456 172.913 74.0013 172.913 74.0013C172.913 74.0013 172.265 73.7854 172.145 74.0013C171.977 74.2652 172.025 74.8409 172.673 75.3206C172.145 75.0808 171.905 75.2727 171.953 75.7044C172.001 76.0163 172.265 76.3761 172.673 76.7359C173.201 77.1677 173.848 77.6714 173.92 78.2231L173.752 79.2066L174.976 80.358Z" fill="#B16669"/>
<path d="M174.975 80.358C174.927 80.238 174.999 80.1181 175.047 80.0221C175.095 79.9262 175.167 79.8302 175.239 79.7343C175.359 79.5424 175.527 79.3745 175.598 79.1826C175.646 79.0866 175.67 78.9907 175.67 78.9187L175.622 78.5829C175.598 78.463 175.598 78.319 175.67 78.1991C175.742 78.0792 175.814 78.0072 175.886 77.9113C175.838 78.0312 175.79 78.1271 175.79 78.2471C175.766 78.343 175.79 78.439 175.814 78.5589C175.838 78.6549 175.886 78.7748 175.91 78.8947C175.934 79.0387 175.886 79.1826 175.838 79.3025C175.718 79.5424 175.551 79.7103 175.407 79.8782L175.167 80.1181C175.071 80.1421 174.975 80.238 174.975 80.358Z" fill="#9A4B4E"/>
<path d="M172.912 74.0013C173.224 74.1213 173.536 74.2412 173.824 74.3851C174.111 74.5291 174.423 74.673 174.711 74.8649C174.975 75.1288 175.143 75.3926 175.335 75.6805C175.503 75.9683 175.671 76.2562 175.815 76.544C175.599 76.3041 175.383 76.0403 175.167 75.8004L174.855 75.4166C174.759 75.2967 174.639 75.1527 174.543 75.0808C174.303 74.9129 173.992 74.745 173.728 74.577C173.44 74.3851 173.176 74.2172 172.912 74.0013Z" fill="#9A4B4E"/>
<path d="M175.288 77.8393C175.097 77.5994 174.929 77.3116 174.761 77.0717C174.593 76.8318 174.377 76.6399 174.137 76.448C173.657 76.0882 173.13 75.7284 172.674 75.2966C173.25 75.5365 173.777 75.8723 174.281 76.2321C174.521 76.424 174.785 76.6639 174.929 76.9518C175.073 77.2396 175.169 77.5275 175.288 77.8393Z" fill="#9A4B4E"/>
<path d="M183.395 79.5424C184.834 79.5424 186.13 79.7343 187.185 80.8377C186.345 79.0866 184.666 79.0866 183.203 79.0146L183.395 79.5424Z" fill="#9A4B4E"/>
<path d="M181.956 65.7976C184.331 66.3493 184.763 66.5652 185.434 67.3568C186.106 68.1724 186.466 68.892 187.305 71.5306C186.658 73.1857 181.428 74.3131 181.428 74.3131C181.428 74.3131 180.901 72.8019 180.709 71.3627C180.493 69.9474 180.469 67.3568 181.956 65.7976Z" fill="#C28D3E"/>
<path d="M98.1187 152.44C98.3586 148.986 98.4785 147.379 98.8143 141.214C98.8383 139.631 98.9103 137.952 99.0062 136.44C99.366 131.379 100.014 130.18 100.445 128.453C100.877 126.725 100.829 122.024 101.477 111.158C101.837 105.137 102.724 101.779 103.492 98.8761H119.06C120.667 105.689 121.123 120.441 121.075 127.469C121.051 131.043 121.003 149.562 121.099 151.025C121.195 152.584 121.986 153.567 122.586 154.239C123.881 155.606 124.793 156.182 126.4 157.381C126.16 158.005 122.802 157.981 121.842 157.501C120.307 156.758 118.34 155.534 117.812 155.127C116.493 154.143 116.181 153.567 116.157 152.08C116.157 151.888 116.157 151.624 116.181 151.6C116.157 150.737 113.639 137.76 113.111 134.833C112.679 132.554 113.159 128.165 113.159 128.165L111.504 117.322C111.504 117.322 110.04 125.958 109.057 130.348C108.337 133.562 106.514 138.647 105.339 143.805C103.948 149.034 103.852 149.49 103.036 153.256C102.628 155.151 101.621 161.507 101.165 162.803C99.6779 167.024 96.3436 164.913 96.1517 162.587C96.0078 161.004 98.0707 153.184 98.1187 152.44Z" fill="#F7A7A8"/>
<path d="M111.504 117.322L112.703 109.503C112.703 109.503 117.357 108.951 119.06 107.32C119.06 107.32 116.925 110.342 113.759 110.822L112.439 117.298L113.135 128.045L111.504 117.322Z" fill="#C76251"/>
<path d="M129.974 159.108C130.069 159.108 130.213 160.068 129.734 160.476C129.182 160.956 127.599 161.747 125.464 161.483C123.329 161.243 122.178 160.596 121.314 159.876C120.451 159.18 119.251 158.173 118.292 157.981C117.404 157.789 115.941 157.309 115.653 157.046C115.365 156.782 115.389 155.558 115.389 155.558L129.974 159.108Z" fill="#263238"/>
<path d="M116.158 151.265C116.158 151.265 115.87 151.409 115.822 151.696C115.75 152.032 115.75 152.464 115.63 153.016C115.438 153.783 115.318 155.366 115.462 155.99C115.582 156.614 117.525 157.142 118.46 157.477C119.42 157.837 120.523 158.557 121.483 159.348C122.49 160.164 124.601 160.956 125.992 160.98C128.103 160.98 129.471 160.404 129.878 159.636C130.382 158.701 129.974 158.149 127.528 157.046C127.072 156.83 125.441 155.894 124.889 155.558C124.313 155.199 123.738 154.791 123.234 154.335C122.97 154.095 122.73 153.855 122.49 153.615C122.274 153.4 121.987 153.112 121.867 152.848C121.843 152.776 121.819 152.704 121.795 152.632C121.723 152.44 121.675 152.272 121.627 152.056C121.579 151.864 121.555 151.552 121.363 151.433C121.147 151.289 120.739 151.313 120.499 151.337C120.187 151.361 119.876 151.409 119.564 151.481C119.204 151.576 118.316 151.505 118.101 151.84C117.933 152.104 117.909 152.416 117.909 152.728C117.909 152.872 117.909 153.016 117.909 153.16C117.909 153.232 117.933 153.328 117.861 153.304C117.789 153.28 117.693 153.064 117.645 152.992C117.573 152.824 117.525 152.656 117.453 152.512C117.357 152.344 117.285 152.128 117.141 152.008C116.733 151.672 116.349 151.744 116.23 151.624C116.206 151.648 116.158 151.385 116.158 151.265Z" fill="#C28D3E"/>
<path d="M127.911 157.214C124.865 157.453 123.905 159.348 123.785 160.524C124.553 160.788 125.32 160.956 125.968 160.956C128.079 160.956 129.518 160.38 129.95 159.612C130.43 158.725 130.094 158.029 127.911 157.214Z" fill="#232323"/>
<path d="M123.329 157.309C123.305 157.309 123.257 157.309 123.233 157.285C123.161 157.237 123.161 157.142 123.209 157.07C123.641 156.542 124.84 155.846 125.968 155.942C126.04 155.942 126.112 156.014 126.112 156.11C126.112 156.182 126.04 156.254 125.944 156.254C124.912 156.158 123.785 156.854 123.449 157.261C123.425 157.285 123.377 157.309 123.329 157.309Z" fill="#F1F0F0"/>
<path d="M122.011 156.542C121.987 156.542 121.939 156.542 121.915 156.518C121.843 156.47 121.843 156.374 121.891 156.302C122.323 155.774 123.522 155.079 124.649 155.175C124.721 155.175 124.793 155.247 124.793 155.343C124.793 155.414 124.721 155.486 124.625 155.486C123.594 155.39 122.467 156.086 122.131 156.494C122.083 156.542 122.059 156.542 122.011 156.542Z" fill="#F1F0F0"/>
<path d="M120.786 155.678C120.762 155.678 120.714 155.678 120.69 155.654C120.618 155.606 120.618 155.51 120.666 155.438C121.098 154.911 122.321 154.215 123.425 154.311C123.497 154.311 123.569 154.383 123.569 154.479C123.569 154.551 123.497 154.623 123.401 154.623C122.369 154.527 121.242 155.223 120.906 155.63C120.858 155.678 120.81 155.678 120.786 155.678Z" fill="#F1F0F0"/>
<path d="M119.564 154.815C119.54 154.815 119.492 154.815 119.468 154.791C119.396 154.743 119.396 154.647 119.444 154.575C120.019 153.831 121.339 153.328 122.442 153.447C122.514 153.447 122.586 153.519 122.586 153.615C122.586 153.687 122.514 153.759 122.418 153.759C121.411 153.663 120.187 154.119 119.683 154.791C119.659 154.791 119.612 154.815 119.564 154.815Z" fill="#F1F0F0"/>
<path d="M101.596 163.258C101.356 164.674 101.021 165.609 100.421 166.401C99.8212 167.192 98.8377 167.336 97.8782 166.976C96.9427 166.617 95.7673 165.825 95.6234 164.554C95.4795 163.282 95.4075 162.419 95.7913 161.124L101.596 163.258Z" fill="#263238"/>
<path d="M98.1185 152.44C97.7108 152.416 97.6148 154.335 97.159 156.23C96.6793 158.269 96.2955 159.061 95.8877 160.716C95.432 162.611 95.6478 163.522 96.1995 164.77C96.7513 166.017 99.0061 167.432 100.373 165.873C101.477 164.626 101.693 163.114 101.813 161.171C101.933 159.157 102.292 157.837 102.604 156.35C102.94 154.815 103.324 153.424 102.988 153.208C102.94 153.424 102.7 154.503 102.58 154.743C102.532 154.839 102.34 155.103 102.316 154.695C102.316 154.575 102.388 154.311 102.388 154.191C102.388 153.855 102.196 153.783 102.076 153.687C101.813 153.495 101.189 153.208 100.421 153.136C99.6298 153.04 98.9581 152.944 98.5023 153.112C98.2145 153.208 98.2145 153.471 98.1425 153.711C98.0706 153.999 98.0466 154.167 97.9986 154.119C97.9027 153.975 98.1425 152.656 98.1185 152.44Z" fill="#C28D3E"/>
<path d="M95.672 161.819C95.4801 163.019 95.672 163.858 96.1038 164.842C96.6555 166.089 99.1262 167.528 100.47 165.969C101.141 165.201 101.405 164.242 101.597 163.234C101.045 161.891 96.8954 160.86 95.672 161.819Z" fill="#232323"/>
<path d="M100.973 161.052C100.949 161.052 100.949 161.052 100.925 161.028C100.901 161.028 99.1497 160.044 97.3027 160.26C97.2307 160.26 97.1588 160.212 97.1348 160.14C97.1348 160.068 97.1827 159.972 97.2547 159.972C99.1977 159.732 100.997 160.74 101.069 160.788C101.141 160.836 101.165 160.932 101.117 161.004C101.093 161.052 101.021 161.076 100.973 161.052Z" fill="#F1F0F0"/>
<path d="M97.5421 158.845C97.4941 158.845 97.4461 158.797 97.4221 158.725C97.3981 158.653 97.4461 158.557 97.5421 158.557C99.4131 158.149 101.284 159.276 101.356 159.324C101.428 159.372 101.452 159.468 101.404 159.54C101.356 159.612 101.26 159.636 101.188 159.588C101.164 159.588 99.3411 158.485 97.59 158.869C97.5661 158.845 97.5661 158.845 97.5421 158.845Z" fill="#F1F0F0"/>
<path d="M97.7589 157.501C97.7109 157.501 97.6629 157.454 97.6389 157.382C97.6149 157.31 97.6629 157.214 97.7589 157.214C99.7978 156.734 101.597 157.933 101.645 157.981C101.717 158.029 101.717 158.125 101.669 158.197C101.621 158.269 101.525 158.269 101.453 158.221C101.429 158.221 99.7258 157.046 97.8068 157.501C97.7829 157.501 97.7589 157.501 97.7589 157.501Z" fill="#F1F0F0"/>
<path d="M97.9992 156.158C97.9512 156.158 97.9033 156.11 97.8793 156.038C97.8553 155.966 97.9033 155.87 97.9752 155.846C99.8942 155.367 101.813 156.614 101.885 156.662C101.957 156.71 101.957 156.806 101.909 156.878C101.861 156.95 101.765 156.95 101.693 156.902C101.669 156.902 99.8223 155.678 98.0232 156.134C98.0472 156.182 98.0232 156.182 97.9992 156.158Z" fill="#EBEBEB"/>
<path d="M102.075 98.8761C101.668 103.026 101.476 104.177 100.852 113.628C100.228 122.816 100.588 125.598 100.492 126.725C100.276 129.268 99.149 130.132 98.8372 136.129C98.5253 141.622 98.3574 148.386 98.3574 148.386C98.3574 148.386 99.101 149.394 101.188 149.586C103.107 149.753 104.09 149.034 104.09 149.034C104.09 149.034 107.665 136.249 108.672 133.034C110.015 128.668 111.527 119.553 111.527 119.553L112.798 128.333C112.798 128.333 112.39 132.53 113.206 136.512C114.213 141.43 115.245 146.779 115.245 146.779C115.245 146.779 116.516 147.307 118.147 147.139C120.402 146.923 121.169 146.395 121.169 146.395C121.169 146.395 121.793 131.523 121.793 126.102C121.793 120.681 121.577 107.344 121.121 98.8761H102.075Z" fill="#232323"/>
<path d="M111.504 119.529L113.063 110.03C113.063 110.03 116.205 109.191 118.22 107.08C118.076 108.663 115.27 110.678 113.975 110.99L112.224 119.409L112.751 128.309L111.504 119.529Z" fill="#37474F"/>
<path d="M107.858 100.339C107.354 101.107 106.994 101.97 106.683 102.834C106.371 103.698 106.107 104.585 105.891 105.473C105.675 106.36 105.507 107.272 105.387 108.183C105.267 109.095 105.195 110.006 105.195 110.942C105.411 110.054 105.627 109.167 105.819 108.279C106.035 107.392 106.227 106.504 106.443 105.617C106.659 104.729 106.874 103.866 107.09 102.978C107.33 102.09 107.57 101.203 107.858 100.339Z" fill="#37474F"/>
<path d="M106.634 100.675C106.178 101.107 105.77 101.563 105.387 102.066C105.003 102.57 104.691 103.098 104.379 103.626C104.091 104.177 103.827 104.753 103.611 105.329C103.396 105.928 103.252 106.528 103.18 107.152L104.019 105.497C104.307 104.969 104.595 104.417 104.883 103.889C105.171 103.362 105.482 102.834 105.77 102.282C106.082 101.779 106.37 101.227 106.634 100.675Z" fill="#37474F"/>
<path d="M108.649 111.661C108.241 114.516 107.905 117.37 107.545 120.201C107.185 123.055 106.898 127.637 106.37 130.468C105.842 133.274 102.532 144.308 102.076 147.139C102.724 144.332 106.37 133.394 106.922 130.563C107.449 127.733 107.689 123.103 107.977 120.249C108.265 117.394 108.457 114.54 108.649 111.661Z" fill="#37474F"/>
<path d="M118.867 111.661L119.347 119.145C119.419 120.393 119.491 121.64 119.563 122.887C119.611 124.135 119.683 125.382 119.683 126.63C119.659 127.877 119.587 139.823 119.755 142.341C120.043 139.559 120.186 129.172 120.258 126.654C120.258 124.111 120.043 121.64 119.803 119.145C119.563 116.627 119.251 114.132 118.867 111.661Z" fill="#37474F"/>
<path d="M114.98 145.532L115.412 148.146C115.412 148.146 116.444 148.818 118.651 148.578C120.833 148.362 121.145 147.643 121.145 147.643V145.196C121.145 145.196 120.618 145.7 118.627 145.939C116.612 146.155 114.98 145.532 114.98 145.532Z" fill="#37474F"/>
<path d="M98.4067 146.539L98.2148 149.178C98.2148 149.178 99.0784 150.065 101.261 150.353C103.444 150.641 103.924 150.017 103.924 150.017L104.5 147.642C104.5 147.642 103.876 148.026 101.885 147.762C99.846 147.547 98.4067 146.539 98.4067 146.539Z" fill="#37474F"/>
<path d="M117.404 78.2229C119.419 78.4628 121.554 79.7101 125.248 81.773C128.223 83.4282 129.206 83.9559 129.206 83.9559C129.206 83.9559 132.516 77.6232 133.74 75.5843C135.515 72.6099 136.906 76.0401 136.45 77.2634C135.587 79.5662 135.299 82.2288 133.884 87.1942C133.14 89.7609 132.636 90.8643 129.398 89.8088C126.735 88.9453 120.067 86.4746 120.067 86.4746L117.404 78.2229Z" fill="#F7A7A8"/>
<path d="M137.77 71.4105C137.961 70.1632 137.002 68.7959 137.002 68.7959V70.6669L137.77 71.4105Z" fill="#F3908F"/>
<path d="M117.26 77.9591C119.347 78.223 120.33 78.5828 121.697 79.4223C123.065 80.2619 128.102 83.1164 128.102 83.1164C128.102 83.1164 128.486 84.2678 128.27 86.2588C128.054 88.2497 126.687 89.0653 126.687 89.0653L119.395 86.6426L117.26 77.9591Z" fill="#C28D3E"/>
<path d="M102.076 79.7582C102.076 79.7582 100.493 82.9965 101.476 88.9213C101.932 91.6319 102.268 93.7428 102.076 97.3409C101.908 100.387 101.284 105.952 101.284 105.952C104.427 108.615 118.196 108.735 121.41 104.729C121.41 104.729 121.242 98.1565 121.242 92.9752C121.242 89.1132 121.026 85.851 120.594 84.0279C119.611 79.9021 118.124 78.5588 117.284 77.9351C115.029 77.7672 113.83 77.7432 110.52 78.0551C107.953 78.2949 104.93 78.9666 103.107 79.3983C102.34 79.5902 102.076 79.7582 102.076 79.7582Z" fill="#C28D3E"/>
<path d="M102.076 79.7582C99.365 80.6937 98.8613 81.941 96.9183 85.2753C94.9753 88.6095 93.0083 93.1192 92.2647 95.278C91.5211 97.4369 92.6725 99.7397 93.68 100.147C94.4716 100.483 95.1432 100.795 96.1267 100.052C96.7024 99.6198 97.6859 98.5883 98.2856 97.7008C100.229 94.6784 103.227 89.4491 103.227 89.4491C103.227 89.4491 105.29 82.3488 102.076 79.7582Z" fill="#F7A7A8"/>
<path d="M96.7993 97.5088C97.303 94.9422 96.8712 94.0306 96.6553 92.4235C96.4395 90.8403 96.1756 88.3696 96.0317 86.9064C95.312 88.2737 94.5924 89.7609 93.9688 91.1042L96.7993 97.5088Z" fill="#F3908F"/>
<path d="M94.1836 90.2406C94.3515 91.0562 96.3185 95.1341 99.5808 95.8537L103.635 89.2571C103.635 89.2571 105.242 85.0593 103.083 79.3983C100.636 79.8541 99.6047 80.3818 98.1175 82.7566C96.6063 85.1313 94.1836 90.2406 94.1836 90.2406Z" fill="#C28D3E"/>
<path d="M92.1461 88.3217C92.1221 88.8014 92.2181 89.1612 92.1221 90.7684C92.0502 92.3755 91.9782 92.6154 91.8583 94.3185C91.7143 96.1895 91.3785 97.4129 92.6019 99.3319C93.8252 101.299 95.2405 100.843 96.4399 99.7637C97.0395 97.8926 96.8716 94.8942 96.104 92.7353C95.3604 90.5765 95.2165 88.7534 95.2165 88.7534L92.1461 88.3217Z" fill="#F7A7A8"/>
<path d="M90.5143 83.812C90.3943 83.6681 89.9865 83.5961 89.8186 83.7401C89.6507 83.884 89.8906 84.3637 90.2264 84.9874C90.4423 85.3952 90.922 86.9064 91.4018 87.5541C91.8815 88.1777 92.1454 88.6815 92.2174 89.4731C92.6731 87.4581 91.8576 85.2033 90.5143 83.812Z" fill="#F3908F"/>
<path d="M107.137 75.6563C105.818 73.7613 104.594 72.5619 103.635 70.427C103.227 69.5635 102.603 67.5725 102.987 66.3491C103.251 65.5096 103.707 64.8139 104.594 64.718C104.283 63.5906 104.762 62.847 105.194 62.3193C105.626 61.7915 106.393 61.5517 107.041 61.7436C107.065 61.1679 107.449 60.5922 107.977 60.3523C108.504 60.1124 109.176 60.2084 109.632 60.5922C109.968 59.7286 110.783 59.5847 111.191 59.5847C111.887 59.5607 112.558 59.9925 112.846 60.6401C114.069 59.5367 116.132 60.2323 116.204 62.3912C116.492 62.1513 116.9 62.0794 117.26 62.2473C117.596 62.4152 117.811 62.775 117.787 63.1588C117.763 63.3987 117.668 63.6386 117.716 63.8784C117.763 64.0943 117.931 64.2622 118.147 64.3102C118.363 64.3582 118.579 64.2622 118.723 64.0943C118.843 64.4781 118.771 64.9099 118.531 65.2217C118.291 65.5336 117.883 65.7015 117.476 65.6535C117.572 65.9893 117.476 66.3731 117.212 66.589C117.02 66.7569 116.708 66.8289 116.468 66.8049C116.444 66.8049 107.185 75.6083 107.137 75.6563Z" fill="#263238"/>
<path d="M116.924 72.7298C116.756 74.361 116.108 75.1766 115.077 75.6803C114.357 76.0161 113.326 76.1361 113.326 76.1361L113.47 77.8871C117.02 81.3653 109.32 81.8451 107.497 78.6787L106.873 73.4015C106.873 73.4015 106.273 74.265 105.026 73.6654C104.187 73.2576 103.443 71.9862 103.875 70.6909C104.283 69.4196 105.434 69.3476 106.058 69.8514C106.753 70.4031 106.753 71.0028 107.065 70.9308C107.545 70.8348 107.713 70.595 107.785 70.2831C107.929 69.7554 107.905 69.2037 107.785 68.0523C108.192 67.7645 108.648 67.3087 108.792 66.9489C109.176 66.0134 108.792 65.1258 108.456 64.5501C109.704 63.9265 111.191 65.1498 112.582 65.1738C114.189 65.1978 114.189 63.8545 115.053 63.8785C115.82 64.4302 116.3 65.8455 116.348 66.781C116.468 68.58 117.26 69.4915 116.924 72.7298Z" fill="#F7A7A8"/>
<path d="M113.303 76.1121C111.432 76.208 109.417 75.8482 108.649 75.2245C107.882 74.6009 107.426 73.2096 107.426 73.2096C107.426 73.2096 107.762 75.0087 108.361 75.7523C108.985 76.4959 110.328 76.6638 111.168 76.7837C111.983 76.8797 113.351 76.8797 113.351 76.8797L113.303 76.1121Z" fill="#F3908F"/>
<path d="M115.629 67.3086L114.357 66.9008C114.453 66.541 114.813 66.3251 115.173 66.4451C115.509 66.565 115.725 66.9248 115.629 67.3086Z" fill="#263238"/>
<path d="M109.727 68.0762L110.807 67.2366C110.591 66.9248 110.159 66.8768 109.871 67.0927C109.583 67.3326 109.511 67.7643 109.727 68.0762Z" fill="#263238"/>
<path d="M114.453 68.508C114.477 68.8198 114.765 69.0357 115.053 69.0357C115.364 69.0117 115.58 68.7479 115.556 68.4361C115.532 68.1242 115.244 67.9083 114.957 67.9083C114.669 67.9323 114.429 68.1962 114.453 68.508Z" fill="#263238"/>
<path d="M110.28 69.0357C110.304 69.3476 110.591 69.5634 110.879 69.5634C111.191 69.5395 111.407 69.2756 111.383 68.9638C111.359 68.6519 111.071 68.436 110.783 68.436C110.471 68.46 110.232 68.7239 110.28 69.0357Z" fill="#263238"/>
<path d="M114.957 70.7388L113.182 71.5304L112.486 68.0283C113.134 67.8603 114.261 69.5635 114.957 70.7388Z" fill="#F3908F"/>
<path d="M112.966 72.6578C112.822 72.3699 112.486 72.226 112.174 72.1541C112.006 72.1061 111.838 72.1061 111.67 72.1061C111.502 72.1061 111.31 72.1301 111.167 72.226C111.095 72.274 111.167 72.3939 111.238 72.3939C111.55 72.3699 111.838 72.322 112.15 72.3699C112.294 72.3939 112.462 72.4419 112.606 72.5139C112.726 72.5618 112.822 72.6338 112.942 72.7058C112.966 72.7537 112.966 72.6818 112.966 72.6578Z" fill="#B16669"/>
<path d="M137.026 68.3161C137.026 54.6433 125.944 43.5371 112.247 43.5371C98.5744 43.5371 87.4922 54.6193 87.4922 68.3161C87.4922 68.9158 87.4922 71.3385 87.4922 71.9382C87.4922 85.611 98.5744 96.7172 112.247 96.7172C125.92 96.7172 137.026 85.611 137.026 71.9382C137.026 71.3385 137.026 68.9158 137.026 68.3161ZM112.247 83.5481C104.451 83.5481 98.0227 77.6712 97.1351 70.1392C98.0227 62.5831 104.451 56.7062 112.247 56.7062C120.043 56.7062 126.472 62.5591 127.383 70.1392C126.472 77.6712 120.043 83.5481 112.247 83.5481Z" fill="#AB6CAD"/>
<path d="M137.026 68.3161C137.026 54.6433 125.944 43.5371 112.247 43.5371C98.5744 43.5371 87.4922 54.6193 87.4922 68.3161C87.4922 68.9158 87.4922 71.3385 87.4922 71.9382C87.4922 85.611 98.5744 96.7172 112.247 96.7172C125.92 96.7172 137.026 85.611 137.026 71.9382C137.026 71.3385 137.026 68.9158 137.026 68.3161ZM112.247 83.5481C104.451 83.5481 98.0227 77.6712 97.1351 70.1392C98.0227 62.5831 104.451 56.7062 112.247 56.7062C120.043 56.7062 126.472 62.5591 127.383 70.1392C126.472 77.6712 120.043 83.5481 112.247 83.5481Z" fill="#F69799"/>
<path d="M112.247 47.1592C98.5744 47.1592 87.4922 58.2414 87.4922 71.9382C87.4922 85.611 98.5744 96.7172 112.247 96.7172C125.92 96.7172 137.026 85.611 137.026 71.9382C137.026 58.2654 125.92 47.1592 112.247 47.1592ZM112.247 87.1702C103.828 87.1702 97.0152 80.3338 97.0152 71.9382C97.0152 63.5186 103.828 56.7062 112.247 56.7062C120.667 56.7062 127.479 63.5186 127.479 71.9382C127.479 80.3578 120.667 87.1702 112.247 87.1702Z" fill="#CF3A34"/>
<path d="M112.248 83.5481C104.452 83.5481 98.0231 77.6951 97.1356 70.1631C97.0636 70.7628 97.0156 71.3385 97.0156 71.9621C97.0156 80.3577 103.828 87.1942 112.248 87.1942C120.667 87.1942 127.48 80.3577 127.48 71.9621C127.48 71.3625 127.432 70.7628 127.36 70.1631C126.472 77.6951 120.044 83.5481 112.248 83.5481Z" fill="#AB6CAD"/>
<path d="M112.248 83.5481C104.452 83.5481 98.0231 77.6951 97.1356 70.1631C97.0636 70.7628 97.0156 71.3385 97.0156 71.9621C97.0156 80.3577 103.828 87.1942 112.248 87.1942C120.667 87.1942 127.48 80.3577 127.48 71.9621C127.48 71.3625 127.432 70.7628 127.36 70.1631C126.472 77.6951 120.044 83.5481 112.248 83.5481Z" fill="#9B1C20"/>
<path d="M138.083 72.1782C138.442 71.4825 138.394 71.4106 138.107 71.1227C137.819 70.8349 137.195 70.3791 136.38 70.523C135.828 70.619 135.276 70.6909 135.012 70.8828C134.748 71.0747 135.084 71.6264 135.828 71.6984C137.003 71.7944 137.051 72.1062 137.051 72.1062C137.051 72.1062 135.972 72.0342 135.54 72.0582C135.108 72.1062 134.365 72.394 133.909 72.562C133.429 72.7059 133.429 73.3295 134.269 73.4255C134.269 73.4255 133.669 73.6174 133.405 73.6894C132.805 73.8813 132.637 74.2411 133.189 74.5529C133.309 74.6249 133.501 74.6968 133.765 74.6728C133.765 74.6728 133.117 74.7688 133.117 74.9847C133.165 75.6084 133.597 75.7283 134.988 75.9202C136.164 76.0881 136.595 76.4959 136.547 76.9517L136.499 77.2395C136.499 77.2395 136.955 76.8797 137.363 76.4959C137.651 76.208 137.915 75.9202 137.675 75.4165C137.675 75.4165 138.394 75.3205 138.37 74.8647C138.346 74.409 138.059 73.9292 138.059 73.9292C138.059 73.9292 138.442 73.6654 138.346 73.1377C138.251 72.6099 137.963 72.394 137.963 72.394L138.083 72.1782Z" fill="#F7A7A8"/>
<path d="M134.244 73.4255C134.508 73.3535 134.748 73.2576 135.036 73.2336C135.324 73.2096 135.587 73.3056 135.851 73.3775C136.355 73.5215 136.859 73.6894 137.363 73.9292C136.835 73.8813 136.307 73.7613 135.803 73.6174C135.539 73.5455 135.3 73.4495 135.06 73.4495C134.772 73.4015 134.508 73.4255 134.244 73.4255Z" fill="#F3908F"/>
<path d="M133.74 74.6729C134.004 74.5529 134.316 74.505 134.604 74.5289C134.892 74.5529 135.179 74.6009 135.467 74.6729C136.019 74.8168 136.571 75.0087 137.098 75.2726C136.523 75.2006 135.971 75.0567 135.419 74.9127C134.844 74.7448 134.316 74.6009 133.74 74.6729Z" fill="#F3908F"/>
<path d="M91.0659 86.9304C90.3703 86.5706 90.3703 86.4746 90.4183 86.0908C90.4902 85.683 90.7301 84.9634 91.4737 84.5796C91.9775 84.3397 92.4812 84.0519 92.793 84.0519C93.1288 84.0519 93.1768 84.6995 92.6251 85.1793C91.7376 85.9469 91.9535 86.1388 91.9535 86.1388C91.9535 86.1388 92.7211 85.5151 93.0809 85.2992C93.4407 85.0833 94.2323 84.8914 94.688 84.7475C95.1438 84.5796 95.5276 85.1073 94.9039 85.683C94.9039 85.683 95.4796 85.4911 95.7675 85.3952C96.3671 85.2033 96.703 85.3952 96.4631 85.9469C96.3911 86.0908 96.3192 86.2587 96.0553 86.4026C96.0553 86.4026 96.631 86.0908 96.7509 86.2827C97.0868 86.8344 96.7989 87.1702 95.7915 88.1297C94.9279 88.9453 94.832 89.521 95.1438 89.8808L95.3597 90.0967C95.3597 90.0967 94.76 90.0727 94.2083 90.0008C93.8005 89.9528 93.4407 89.8568 93.3207 89.3291C93.3207 89.3291 92.7451 89.497 92.3133 89.0892C92.0734 88.8734 92.1454 88.3696 92.1454 88.3696C92.1454 88.3696 91.6416 88.3456 91.4257 87.8659C91.2099 87.3861 91.3058 87.0743 91.3058 87.0743L91.0659 86.9304Z" fill="#F7A7A8"/>
<path d="M94.9041 85.6591C94.6402 85.755 94.4004 85.803 94.1605 85.9469C93.9206 86.1148 93.7527 86.3307 93.5848 86.5226C93.249 86.9304 92.9371 87.3622 92.6973 87.8419C93.1051 87.4821 93.4409 87.0743 93.7767 86.6665C93.9446 86.4506 94.0885 86.2348 94.2804 86.0908C94.4483 85.9709 94.7122 85.827 94.9041 85.6591Z" fill="#F3908F"/>
<path d="M96.0544 86.3787C95.7666 86.4266 95.5027 86.5706 95.2629 86.7625C95.023 86.9544 94.8311 87.1702 94.6392 87.3861C94.2794 87.8419 93.9435 88.2977 93.6797 88.8254C94.0875 88.4176 94.4713 87.9858 94.8311 87.554C95.1909 87.0983 95.5507 86.6665 96.0544 86.3787Z" fill="#F3908F"/>
<path d="M123.33 39.7471L123.234 36.053C123.234 36.053 130.622 35.0695 129.831 27.4175C129.351 22.644 126.76 18.926 111.72 19.3578C95.1208 19.8375 96.632 29.7683 98.455 32.5988C101.214 36.8446 107.906 37.3243 119.78 36.6767L122.754 39.9869C122.97 40.1788 123.354 40.0349 123.33 39.7471Z" fill="#FAFBFB"/>
<path d="M122.994 40.5147L119.707 36.8686C107.714 37.5402 101.069 36.9885 98.2865 32.6948C97.2551 31.1116 96.7753 27.7774 98.3825 24.731C99.6538 22.3082 102.988 19.3818 111.719 19.1419C126.184 18.7341 129.494 22.1403 130.046 27.3936C130.765 34.4699 124.601 36.0051 123.449 36.2209L123.569 40.2748C123.569 40.5866 123.209 40.7306 122.994 40.5147ZM119.875 36.4368L123.137 40.0349L123.018 35.8611L123.209 35.8371C123.497 35.7892 130.382 34.7817 129.638 27.4176C129.206 23.1958 127.479 19.0939 111.743 19.5497C104.979 19.7416 100.493 21.5886 98.7663 24.9229C97.2551 27.8014 97.6868 30.9677 98.6703 32.4789C101.357 36.6047 107.929 37.1085 119.827 36.4608L119.875 36.4368Z" fill="#C28D3E"/>
<path d="M113.975 19.1179C126.545 19.1179 129.543 22.4282 130.047 27.3936C130.766 34.4699 124.602 36.0051 123.45 36.221L123.57 40.2748C123.57 40.4667 123.426 40.6107 123.258 40.6107C123.186 40.6107 123.09 40.5867 123.018 40.5147L119.708 36.8686C117.046 37.0125 114.647 37.1085 112.512 37.1085C104.98 37.1085 100.47 36.0291 98.2874 32.6948C97.2559 31.1116 96.7761 27.7774 98.3833 24.731C99.6546 22.3083 102.989 19.3818 111.72 19.1419C112.512 19.1179 113.255 19.1179 113.975 19.1179ZM112.488 36.7007C114.671 36.7007 117.093 36.6048 119.78 36.4608H119.876L123.138 40.0589L123.018 35.8851L123.21 35.8611C123.498 35.8132 130.383 34.8057 129.639 27.4416C129.231 23.4357 127.648 19.5257 113.999 19.5257C113.279 19.5257 112.512 19.5257 111.72 19.5497C104.956 19.7416 100.47 21.5886 98.7431 24.9229C97.2319 27.8014 97.6637 30.9677 98.6472 32.4789C100.71 35.6692 105.1 36.7007 112.488 36.7007ZM113.975 18.8781C113.255 18.8781 112.488 18.8781 111.72 18.902C102.869 19.1419 99.4627 22.1403 98.1674 24.611C96.6082 27.6095 96.968 31.0637 98.0955 32.8147C100.182 36.0291 104.356 37.3244 112.512 37.3244C114.479 37.3244 116.806 37.2524 119.612 37.0845L122.826 40.6346C122.922 40.7546 123.09 40.8265 123.234 40.8265C123.378 40.8265 123.522 40.7546 123.642 40.6586C123.738 40.5627 123.81 40.4188 123.786 40.2508L123.69 36.3889C125.297 36.0291 130.982 34.278 130.287 27.3456C129.999 24.4191 128.871 22.5002 126.664 21.1569C124.098 19.6217 119.948 18.8781 113.975 18.8781ZM112.488 36.4608C104.692 36.4608 100.734 35.2615 98.8391 32.359C97.8316 30.8238 97.5437 27.7534 98.959 25.0428C100.662 21.8045 105.076 19.9815 111.744 19.8136C112.536 19.7896 113.279 19.7896 113.999 19.7896C127.48 19.7896 128.991 23.5796 129.399 27.4895C130.119 34.6378 123.474 35.5973 123.186 35.6453L122.994 35.6692L122.779 35.6932V35.9091L122.874 39.4353L120.068 36.3169L119.996 36.221H119.876H119.78C116.878 36.3649 114.503 36.4608 112.488 36.4608Z" fill="#C28D3E"/>
<path d="M57.0768 133.562L56.4531 128.093L62.6659 127.541C62.6659 127.541 62.402 131.763 62.45 133.682C62.474 134.593 63.1216 136.297 63.1216 136.297C63.1216 136.297 60.507 137.64 59.1637 137.088C57.8204 136.536 56.9089 134.402 56.9569 134.018C56.9808 133.634 57.0768 133.562 57.0768 133.562Z" fill="#FABCA7"/>
<path d="M70.3401 142.174C70.4361 142.174 70.4841 142.965 70.0283 143.349C69.4766 143.805 67.7495 144.644 65.6626 144.356C63.5757 144.045 62.4723 143.397 61.6327 142.701C60.8171 142.006 59.6657 140.998 58.7062 140.782C57.8427 140.566 56.6673 139.847 56.3795 139.583C56.1156 139.319 56.1636 138.12 56.1636 138.12L70.3401 142.174Z" fill="#C28D3E"/>
<path d="M57.076 133.562C57.076 133.562 56.8122 133.562 56.7642 133.826C56.6922 134.162 56.5963 135.097 56.4524 135.625C56.2365 136.369 56.0925 137.904 56.1885 138.503C56.2844 139.103 57.9396 139.871 58.8511 140.231C59.7866 140.59 60.8421 141.334 61.7776 142.126C62.7371 142.941 64.8 143.805 66.1433 143.829C67.7504 143.853 69.5735 143.373 70.0052 142.629C70.533 141.718 70.9408 140.686 68.566 139.559C68.1102 139.343 66.5511 138.383 66.0233 138.048C64.5841 137.112 63.5526 136.273 62.929 134.641C62.857 134.45 62.785 134.234 62.5931 134.138C62.4492 134.066 62.2813 134.066 62.1374 134.09C61.7296 134.138 60.1464 134.33 59.7866 134.498C59.4748 134.641 58.995 134.809 58.995 135.217C58.995 135.361 59.043 135.505 59.067 135.625C59.091 135.697 59.115 135.817 59.043 135.865C58.971 135.913 58.8751 135.865 58.8271 135.793C58.5872 135.577 58.3953 135.289 58.2034 135.025C58.0835 134.881 57.7477 134.45 57.6038 134.33C57.4838 134.234 57.3159 134.186 57.196 134.066C57.052 133.922 57.076 133.754 57.076 133.562Z" fill="#C28D3E"/>
<path d="M61.7777 142.149C61.37 141.814 60.9382 141.478 60.4824 141.166C60.4824 141.166 63.265 142.893 64.4164 142.149C65.16 141.67 64.8241 141.07 64.8002 140.878C64.7762 140.686 67.3908 139.391 68.1104 139.319C68.3023 139.439 68.4702 139.535 68.5662 139.559C70.4132 140.326 70.6531 141.286 70.3173 142.461C69.8855 143.181 68.2543 143.925 66.1674 143.877C64.8241 143.853 62.7372 142.965 61.7777 142.149Z" fill="#232323"/>
<path d="M64.6323 140.326C66.0956 140.926 65.4719 141.19 65.0401 141.262C64.6323 141.31 62.1616 139.823 60.6504 138.623C59.0913 137.352 57.8679 135.673 57.2922 135.217C57.0763 135.049 56.8364 134.833 56.6445 134.641C56.6925 134.33 56.7165 134.018 56.7645 133.874C56.8124 133.61 57.0763 133.61 57.0763 133.61C57.0763 133.802 57.0523 133.97 57.1723 134.114C57.2922 134.234 57.4601 134.282 57.58 134.378C57.724 134.498 58.0598 134.929 58.1797 135.073C58.3956 135.337 58.5635 135.625 58.8034 135.841C60.0747 137.448 63.1451 139.703 64.6323 140.326Z" fill="#232323"/>
<path d="M64.9444 141.022C64.9204 141.022 64.8724 141.022 64.8484 140.998C64.7765 140.95 64.7765 140.854 64.8245 140.782C65.2562 140.278 67.2712 139.127 68.3506 139.247C68.4226 139.247 68.4945 139.319 68.4705 139.415C68.4705 139.487 68.3986 139.559 68.3026 139.535C67.2952 139.415 65.3762 140.566 65.0403 140.95C65.0403 140.998 64.9924 141.022 64.9444 141.022Z" fill="white"/>
<path d="M63.6729 140.206C63.6489 140.206 63.6009 140.206 63.577 140.183C63.505 140.135 63.505 140.039 63.553 139.967C63.9847 139.463 65.9997 138.311 67.0791 138.431C67.1511 138.431 67.223 138.503 67.1991 138.599C67.1991 138.671 67.1271 138.743 67.0311 138.719C66.0237 138.599 64.1047 139.751 63.7689 140.135C63.7449 140.206 63.6969 140.206 63.6729 140.206Z" fill="white"/>
<path d="M62.378 139.439C62.354 139.439 62.306 139.439 62.282 139.415C62.2101 139.367 62.2101 139.271 62.258 139.199C62.6898 138.695 64.7048 137.544 65.7842 137.664C65.8562 137.664 65.9281 137.736 65.9041 137.832C65.9041 137.904 65.8322 137.976 65.7362 137.952C64.7287 137.832 62.8098 138.983 62.4739 139.367C62.4739 139.439 62.426 139.463 62.378 139.439Z" fill="white"/>
<path d="M61.2022 138.575C61.1782 138.575 61.1302 138.575 61.1063 138.551C61.0343 138.503 61.0343 138.407 61.0823 138.335C61.514 137.832 63.529 136.68 64.6084 136.8C64.6804 136.8 64.7523 136.872 64.7284 136.968C64.7284 137.04 64.6564 137.112 64.5604 137.088C63.553 136.968 61.634 138.12 61.2982 138.503C61.2742 138.575 61.2502 138.575 61.2022 138.575Z" fill="white"/>
<path d="M60.0264 137.712C60.0024 137.712 59.9545 137.712 59.9305 137.688C59.8585 137.64 59.8585 137.544 59.9065 137.496C60.5062 136.8 62.5931 135.817 63.6725 135.961C63.7445 135.961 63.8164 136.033 63.7924 136.129C63.7924 136.201 63.7205 136.273 63.6245 136.249C62.641 136.129 60.6261 137.064 60.1224 137.688C60.1224 137.688 60.0744 137.712 60.0264 137.712Z" fill="white"/>
<path d="M46.7616 136.129L48.2488 129.58L41.7722 128.573L41.6763 135.049C41.6763 135.049 41.1725 136.8 41.5563 137.4C41.9161 138 45.8021 138.623 46.1619 138.24C46.4977 137.808 46.7616 136.129 46.7616 136.129Z" fill="#FABCA7"/>
<path d="M46.1137 146.467C45.9458 147.93 45.634 148.89 45.0103 149.682C44.3627 150.473 43.2353 150.617 42.1078 150.209C40.9804 149.825 39.5652 148.962 39.3013 147.643C39.0375 146.323 39.1574 145.46 39.4692 144.116L46.1137 146.467Z" fill="#C28D3E"/>
<path d="M41.6765 135.049C41.1968 135.025 41.3407 136.177 41.1248 138.168C40.8849 140.302 39.9254 142.006 39.5656 143.709C39.1818 145.676 39.2538 146.587 39.9734 147.882C40.717 149.202 43.4516 150.713 44.9148 149.154C46.1142 147.882 46.2341 146.323 46.2341 144.308C46.2341 142.221 46.2102 140.758 46.3781 139.199C46.546 137.712 47.1696 136.345 46.7619 136.129C46.7139 136.345 46.3301 137.856 46.0662 137.832C46.0422 137.64 46.0662 137.448 46.0902 137.256C46.1142 137.088 46.1142 136.896 45.9943 136.752C45.8743 136.608 45.4186 136.416 45.2507 136.369C44.7949 136.225 43.9793 136.057 43.5236 135.961C43.2837 135.913 43.0678 135.865 42.8279 135.841C42.636 135.817 42.4201 135.817 42.2282 135.841C42.1083 135.865 42.0124 135.913 41.9644 136.009C41.9404 136.081 41.9404 136.153 41.9404 136.225C41.9404 136.369 41.9164 136.488 41.8684 136.632C41.8444 136.68 41.7965 136.752 41.7245 136.728C41.6765 136.704 41.6525 136.656 41.6525 136.608C41.6286 136.392 41.6525 135.169 41.6765 135.049Z" fill="#C28D3E"/>
<path d="M39.6851 143.157C39.6372 143.445 39.2534 145.316 39.8291 145.724C40.4527 146.179 40.8605 144.716 40.8605 144.716C40.8605 144.716 42.3717 144.5 44.5066 145.604C44.3867 145.892 44.6745 146.971 45.2742 146.827C45.8739 146.683 46.2097 144.524 46.2337 144.5C46.2337 146.419 46.0898 147.93 44.9144 149.178C43.4512 150.737 40.6926 149.202 39.973 147.907C39.2294 146.587 39.1574 145.7 39.5652 143.733C39.5892 143.517 39.6372 143.325 39.6851 143.157Z" fill="#232323"/>
<path d="M41.029 144.86C40.981 145.58 40.1894 145.244 40.2134 144.212C40.2374 143.181 40.7651 140.686 40.981 139.007C41.1249 136.584 41.2209 135.001 41.6767 135.025C41.6767 135.049 41.6767 135.073 41.6767 135.097C41.6767 135.097 41.6287 136.465 41.6287 136.632C41.5327 138.096 41.5327 140.974 41.3168 142.293C41.101 143.613 41.077 144.141 41.029 144.86Z" fill="#232323"/>
<path d="M44.2658 145.556C44.4577 144.86 44.6016 144.404 44.8415 143.061C45.0574 141.742 45.8489 139.103 46.2567 137.688C46.3767 137.448 46.7845 136.129 46.7845 136.129C47.1203 136.225 46.7845 137.496 46.6405 138.072C46.4966 138.671 46.3047 139.295 46.1128 140.135C45.6331 141.814 45.5851 144.308 45.2733 145.292C44.9374 146.275 44.0739 146.251 44.2658 145.556Z" fill="#232323"/>
<path d="M44.5547 145.676C44.5307 145.676 44.5067 145.652 44.4827 145.652C44.4587 145.652 42.8036 144.668 40.8846 144.884C40.7886 144.884 40.6927 144.836 40.6687 144.74C40.6447 144.644 40.7167 144.572 40.8126 144.572C42.8516 144.332 44.5787 145.364 44.6506 145.388C44.7226 145.436 44.7706 145.532 44.7226 145.604C44.6986 145.652 44.6266 145.676 44.5547 145.676Z" fill="white"/>
<path d="M45.0336 144.141C45.0096 144.141 44.9857 144.141 44.9857 144.117C44.9617 144.117 43.0906 143.085 40.9798 143.253C40.8838 143.253 40.7879 143.205 40.7879 143.109C40.7639 143.013 40.8358 142.941 40.9318 142.941C43.1866 142.749 45.1056 143.805 45.1775 143.853C45.2735 143.901 45.2975 143.997 45.2495 144.069C45.1775 144.141 45.1056 144.164 45.0336 144.141Z" fill="white"/>
<path d="M41.1481 141.79C41.0761 141.766 41.0281 141.742 41.0042 141.67C40.9802 141.574 41.0281 141.502 41.1241 141.478C43.259 141.094 45.2739 142.293 45.3699 142.365C45.4418 142.413 45.4898 142.509 45.4418 142.581C45.3939 142.653 45.2979 142.653 45.202 142.629C45.178 142.629 43.211 141.454 41.244 141.814C41.1961 141.79 41.1721 141.79 41.1481 141.79Z" fill="white"/>
<path d="M41.3395 140.399C41.2675 140.375 41.2196 140.351 41.1956 140.279C41.1716 140.183 41.2196 140.111 41.3155 140.087C43.6663 139.631 45.5613 140.902 45.6332 140.974C45.7052 141.022 45.7292 141.118 45.6812 141.19C45.6332 141.262 45.5133 141.262 45.4413 141.214C45.4174 141.19 43.5943 139.991 41.4115 140.399C41.3875 140.399 41.3635 140.399 41.3395 140.399Z" fill="white"/>
<path d="M41.5563 138.839C41.4843 138.815 41.4364 138.791 41.4124 138.719C41.3884 138.647 41.4364 138.551 41.5323 138.527C43.7391 138.072 45.8021 139.391 45.874 139.439C45.946 139.487 45.97 139.583 45.922 139.655C45.874 139.727 45.7541 139.727 45.6821 139.679C45.6581 139.655 43.6672 138.384 41.6282 138.815C41.6043 138.839 41.5803 138.839 41.5563 138.839Z" fill="white"/>
<path d="M44.1472 85.5391C42.0843 90.5765 43.4516 97.3169 43.2357 102.81C42.9958 109.383 42.8759 114.54 42.8759 114.54C42.8039 115.427 42.3002 116.651 41.8924 121.017C41.4606 125.622 41.4846 132.195 41.4846 132.195C41.4846 132.195 45.3706 133.85 47.7933 132.986C47.7933 132.986 50.3839 123.127 51.6553 117.706C52.8547 112.573 53.7182 104.561 53.7182 104.561L55.1335 112.285C55.1335 112.285 54.9655 115.595 55.0375 117.922C55.1335 120.633 56.5967 130.971 56.5967 130.971C56.5967 130.971 60.2188 133.13 62.7135 131.067C62.7135 131.067 63.9368 115.883 64.0088 112.645C64.1767 106.264 64.3446 93.7428 63.601 85.5151H44.1472V85.5391Z" fill="#232323"/>
<path d="M53.6934 104.585L55.3005 94.4864C55.3005 94.4864 58.7787 93.9107 60.2899 92.4475C60.2899 92.4475 59.1625 94.6783 56.4039 95.4219L54.7248 104.777L55.1086 112.285L53.6934 104.585Z" fill="#232323"/>
<path d="M41.3887 132.435C42.4681 133.274 45.6344 134.018 47.7933 133.226L48.2251 131.403C46.5939 131.955 43.2357 131.595 41.4127 130.492L41.3887 132.435Z" fill="#C28D3E"/>
<path d="M56.5714 131.211C57.315 131.955 60.6972 132.578 62.7121 131.403L62.8561 129.58C61.3449 130.42 57.8427 130.276 56.3555 129.412L56.5714 131.211Z" fill="#C28D3E"/>
<path d="M43.1158 103.722C43.1158 103.722 42.78 111.901 42.804 112.501C42.8279 113.101 47.2896 114.276 47.3856 113.892C47.5775 113.269 47.5295 111.853 47.9133 105.065C44.2432 104.609 43.1158 103.722 43.1158 103.722Z" fill="#C28D3E"/>
<path d="M47.2417 107.416C47.0978 107.368 46.9538 107.392 46.8099 107.392C46.642 107.392 46.4741 107.392 46.3302 107.368C45.9943 107.344 45.6345 107.296 45.2987 107.2C44.9149 107.104 44.5311 107.008 44.1713 106.864C43.8834 106.744 43.5956 106.6 43.2838 106.48C43.2598 106.48 43.2598 106.528 43.2598 106.528C43.5476 106.744 43.8834 106.888 44.1953 107.008C44.5071 107.128 44.8189 107.224 45.1308 107.296C45.4666 107.368 45.8024 107.44 46.1622 107.488C46.3302 107.512 46.4981 107.512 46.69 107.536C46.8579 107.536 47.0978 107.584 47.2417 107.488C47.2657 107.488 47.2657 107.44 47.2417 107.416Z" fill="#37474F"/>
<path d="M45.2993 106.288C45.2514 106.192 45.2274 106.144 45.1314 106.144C45.0595 106.144 44.9635 106.144 44.9155 106.192C44.8436 106.24 44.8196 106.312 44.7956 106.384C44.7716 106.504 44.8436 106.624 44.9635 106.696C45.0595 106.744 45.2034 106.768 45.2754 106.696C45.3233 106.648 45.3473 106.576 45.3473 106.504C45.3473 106.432 45.3233 106.336 45.2993 106.288ZM45.2274 106.528C45.1794 106.6 45.0835 106.6 45.0115 106.576C44.8916 106.504 44.9155 106.288 45.0595 106.264C45.1074 106.264 45.1554 106.264 45.1794 106.288C45.2274 106.36 45.2754 106.456 45.2274 106.528Z" fill="#37474F"/>
<path d="M58.1074 64.2144C60.3383 64.6221 61.4417 65.1978 63.1208 67.8844C64.7999 70.595 68.2301 78.295 68.2301 78.295L75.5703 83.932L71.1326 85.923C71.2525 86.1149 70.0771 85.6591 67.1507 84.0759C64.536 82.6607 64.3202 82.6607 62.5931 79.6862C61.0819 77.0476 58.8031 73.2096 58.8031 73.2096L58.1074 64.2144Z" fill="#FABCA7"/>
<path d="M43.4746 68.0284C46.545 68.0284 49.0157 65.5337 49.0157 62.4873V48.6226H48.1042C45.5375 48.6226 43.4746 50.6855 43.4746 53.2521V68.0284Z" fill="#37474F"/>
<path d="M46.2088 50.3736C46.1368 50.6135 46.0889 50.8294 46.0649 51.0692C46.0409 51.2132 46.0409 51.3811 46.0649 51.525C46.1608 52.2446 46.8804 52.7723 47.5761 52.7963C48.2957 52.7963 48.9673 52.3885 49.3991 51.8128C49.9988 51.0452 50.8863 49.2702 49.7349 48.6225C48.9673 48.2147 47.9839 48.3107 47.2882 48.8144C46.7845 49.1982 46.4007 49.7499 46.2088 50.3736Z" fill="#AB6CAD"/>
<path d="M46.2088 50.3736C46.1368 50.6135 46.0889 50.8294 46.0649 51.0692C46.0409 51.2132 46.0409 51.3811 46.0649 51.525C46.1608 52.2446 46.8804 52.7723 47.5761 52.7963C48.2957 52.7963 48.9673 52.3885 49.3991 51.8128C49.9988 51.0452 50.8863 49.2702 49.7349 48.6225C48.9673 48.2147 47.9839 48.3107 47.2882 48.8144C46.7845 49.1982 46.4007 49.7499 46.2088 50.3736Z" fill="#2F70B0"/>
<path d="M45.8979 80.094C45.778 80.6697 44.4107 83.5961 43.6191 86.7385C48.4646 92.9752 62.7851 89.569 63.8405 86.0669C63.6246 81.893 63.4328 71.3626 62.4972 69.4676C60.8661 66.0613 58.1075 64.2383 58.1075 64.2383C56.8122 63.9505 55.4449 63.8785 55.0611 63.8305C54.2696 63.7586 52.6144 63.5427 50.4795 63.9504C49.4961 64.1423 47.9129 64.5262 46.3297 65.1978C44.6506 65.8934 44.2668 68.1243 44.8185 71.7703C45.0584 73.4255 46.7855 76.16 45.8979 80.094Z" fill="#C28D3E"/>
<path d="M83.6289 68.724L79.2152 64.91L82.5735 47.2792L76.0489 41.6422L70.9636 43.4172L68.5888 55.7708L63.6714 51.501L81.4461 22.812L74.4417 16.7672L69.3564 18.5423L50.3344 49.0303L49.0391 55.8667L65.8303 70.3551L63.8633 80.5498L70.4119 86.1868L75.4972 84.4117L76.4327 79.4943L76.7685 79.7822L81.8539 78.0311L83.6289 68.724Z" fill="#AB6CAD"/>
<path d="M83.6289 68.724L79.2152 64.91L82.5735 47.2792L76.0489 41.6422L70.9636 43.4172L68.5888 55.7708L63.6714 51.501L81.4461 22.812L74.4417 16.7672L69.3564 18.5423L50.3344 49.0303L49.0391 55.8667L65.8303 70.3551L63.8633 80.5498L70.4119 86.1868L75.4972 84.4117L76.4327 79.4943L76.7685 79.7822L81.8539 78.0311L83.6289 68.724Z" fill="#9B1C20"/>
<path d="M74.1299 66.685L77.4881 49.0542L70.9636 43.4172L67.5813 61.0479L58.5861 53.276L76.3607 24.5871L69.3564 18.5422L50.3344 49.0302L49.0391 55.8667L65.8303 70.3551L63.8633 80.5497L70.4119 86.1868L72.3548 75.9921L76.7685 79.7821L78.5436 70.499L74.1299 66.685Z" fill="#CF3A34"/>
<path d="M69.3555 18.5423L76.3598 24.5871L81.4451 22.812L74.4408 16.7672L69.3555 18.5423Z" fill="#AB6CAD"/>
<path d="M69.3555 18.5423L76.3598 24.5871L81.4451 22.812L74.4408 16.7672L69.3555 18.5423Z" fill="#F69799"/>
<path d="M70.9629 43.4173L76.0482 41.6422L82.5728 47.2793L77.4875 49.0543L70.9629 43.4173Z" fill="#AB6CAD"/>
<path d="M70.9629 43.4173L76.0482 41.6422L82.5728 47.2793L77.4875 49.0543L70.9629 43.4173Z" fill="#F69799"/>
<path d="M74.1309 66.685L79.2162 64.9099L83.6299 68.7239L78.5445 70.499L74.1309 66.685Z" fill="#AB6CAD"/>
<path d="M74.1309 66.685L79.2162 64.9099L83.6299 68.7239L78.5445 70.499L74.1309 66.685Z" fill="#F69799"/>
<path d="M58.5859 53.276L63.6713 51.501L68.5887 55.7707L67.5812 61.048L58.5859 53.276Z" fill="#AB6CAD"/>
<path d="M58.5859 53.276L63.6713 51.501L68.5887 55.7707L67.5812 61.048L58.5859 53.276Z" fill="#F69799"/>
<path d="M71.0116 68.796C70.6278 68.7 71.5153 67.2128 71.3234 66.2293C71.2275 65.7496 70.6278 65.2938 70.4119 65.9415C69.9561 67.3088 69.3804 67.7885 68.9727 68.6041" fill="#FABCA7"/>
<path d="M68.9733 68.6041C68.5895 69.4196 68.1337 69.9713 67.0303 70.7629C65.8549 71.6025 58.8506 73.0657 58.8506 73.0657C58.8506 73.0657 57.1955 72.0822 54.365 70.1872C50.7908 67.7885 47.4566 64.958 46.3292 65.1499C42.779 66.1573 43.6186 71.3146 44.9859 72.466C45.8974 73.2336 46.9289 73.9293 50.5989 75.8962C54.5809 78.0311 55.1566 78.1031 56.3319 78.6068C58.3949 79.4704 58.8266 79.3025 61.4173 78.3909C64.0079 77.4794 65.5431 76.6638 68.9733 74.9607C70.7244 74.0972 71.3481 73.4735 72.6674 72.586C73.315 72.1542 73.6748 71.8424 74.0346 71.4106C74.3945 70.9788 74.6823 70.4991 74.7783 69.9713C74.8022 69.8754 74.8022 69.7794 74.8502 69.6835C74.8982 69.5875 74.9462 69.5156 75.0181 69.4436C75.1381 69.2997 75.258 69.1558 75.33 68.9639C75.4019 68.772 75.4019 68.5801 75.4259 68.3642C75.4499 68.2682 75.4499 68.1723 75.4739 68.1003C75.4979 68.0044 75.5459 67.9084 75.5698 67.8365C75.6898 67.6206 75.8097 67.3807 75.8337 67.1408C75.8577 66.901 75.6898 66.781 75.6898 66.781C75.6898 66.781 75.8817 66.5172 75.9297 66.4212C76.0016 66.3013 76.0736 66.1573 76.1216 66.0134C76.1455 65.9655 76.1695 65.8935 76.1216 65.8455C76.0976 65.8215 76.0736 65.7975 76.0496 65.7736C75.5459 65.5097 75.0421 65.8215 74.6583 66.1334C73.6269 66.9249 73.1471 67.6446 72.0197 68.3402C71.396 68.724 71.2521 68.796 70.9882 68.796" fill="#FABCA7"/>
<path d="M75.6903 66.853C75.5223 67.1169 75.3065 67.3807 75.1146 67.6446C74.9227 67.9085 74.7068 68.1483 74.4909 68.4122C74.3949 68.5321 74.299 68.6761 74.179 68.796C74.0591 68.9159 73.9632 69.0359 73.8432 69.1558C73.6033 69.3717 73.3635 69.5876 73.0996 69.8035L73.4354 69.4437C73.5554 69.3237 73.6513 69.2038 73.7713 69.0839C73.8912 68.9639 73.9871 68.844 74.1071 68.724C74.203 68.6041 74.299 68.4602 74.4189 68.3403C74.6348 68.0764 74.8507 67.8365 75.0666 67.5966L75.6903 66.853Z" fill="#F0997A"/>
<path d="M75.4748 68.0524C75.3789 68.2922 75.259 68.5321 75.115 68.724C74.9711 68.9399 74.8272 69.1318 74.6833 69.3477C74.5393 69.5396 74.3714 69.7315 74.2035 69.9234C74.0356 70.1153 73.8677 70.2832 73.6758 70.4511C73.8437 70.2592 73.9876 70.0433 74.1315 69.8514L74.5873 69.2517L75.0431 68.6521C75.211 68.4841 75.3549 68.2683 75.4748 68.0524Z" fill="#F0997A"/>
<path d="M59.474 56.4665L59.9298 56.3225C61.9687 55.2191 61.8728 52.5565 61.369 51.1892C60.2656 48.0948 56.9074 46.9434 54.8444 46.8235C50.9105 46.6076 48.9915 47.6151 48.6077 49.654C48.08 49.606 47.3364 50.0378 46.9046 50.6375C45.9451 51.9568 44.7937 56.5384 49.879 61.3599L59.474 56.4665Z" fill="#37474F"/>
<path d="M48.9188 59.8247C48.1991 59.9207 47.6714 59.5608 47.2396 59.0811C46.3281 58.0017 46.2802 56.9222 46.7599 56.2266C47.1437 55.6509 48.0552 55.3151 48.6789 55.7468C49.3266 56.2026 49.3505 56.5384 49.5664 57.0182C49.8063 57.5219 50.7898 57.4979 51.1016 55.5789C51.3895 53.8039 51.3175 51.9328 52.229 51.1413C53.5963 49.9899 54.9876 50.3737 55.4673 51.1173C56.043 50.3017 57.2664 50.2537 58.1299 50.7575C58.7776 51.1413 59.4492 51.7409 59.3773 53.7319C59.3533 54.3556 59.7611 55.507 59.8091 56.3705C59.977 59.8487 59.4013 60.7122 58.4897 61.5518C57.938 62.0555 57.0505 62.3914 55.7552 62.3914L55.8032 64.1664C55.8032 64.1664 57.3863 66.4692 57.4343 67.6206L49.9742 64.0705L49.7823 59.273C49.8063 59.297 49.6144 59.7048 48.9188 59.8247Z" fill="#FABCA7"/>
<path d="M57.771 52.6045L58.8024 53.516C58.5626 53.8039 58.1308 53.8518 57.8429 53.588C57.5551 53.3241 57.5311 52.8923 57.771 52.6045Z" fill="#263238"/>
<path d="M54.2449 53.7319L52.9735 54.4755C52.7577 54.1397 52.8536 53.6839 53.2134 53.492C53.5732 53.2761 54.029 53.3961 54.2449 53.7319Z" fill="#263238"/>
<path d="M52.2536 51.3811C51.9418 51.7649 51.7259 52.1727 51.7738 53.564C51.7978 54.1397 51.7499 55.507 51.3661 56.3225C51.0302 57.0422 50.6704 57.45 49.9268 57.5939C49.543 57.6658 48.9193 57.6179 48.5595 57.45C48.2957 57.33 47.5521 56.8023 47.624 56.0107C47.744 56.1546 47.9598 56.3225 48.1757 56.3945C48.3436 56.4665 48.5116 56.5144 48.6795 56.5144C49.1832 56.5384 49.6869 56.2266 49.9748 55.7948C50.4785 55.0512 50.4545 54.0198 50.5985 53.1562C50.7904 52.0528 50.9823 50.8294 51.9657 50.2777C53.1411 49.6301 55.252 49.9179 55.4919 51.1173C54.6763 50.3497 53.0452 50.3737 52.2536 51.3811Z" fill="#37474F"/>
<path d="M56.043 54.5955L56.4508 58.0017L58.2978 57.2821L56.043 54.5955Z" fill="#F0997A"/>
<path d="M54.8679 55.6749C54.8679 55.9627 54.6281 56.2026 54.3402 56.2026C54.0524 56.2026 53.8125 55.9627 53.8125 55.6749C53.8125 55.387 54.0524 55.1472 54.3402 55.1472C54.6281 55.1232 54.8679 55.363 54.8679 55.6749Z" fill="#263238"/>
<path d="M58.1547 55.6509C58.4461 55.6509 58.6824 55.4146 58.6824 55.1232C58.6824 54.8317 58.4461 54.5955 58.1547 54.5955C57.8632 54.5955 57.627 54.8317 57.627 55.1232C57.627 55.4146 57.8632 55.6509 58.1547 55.6509Z" fill="#263238"/>
<path d="M56.114 59.0811C56.114 59.369 55.8742 59.6089 55.5863 59.6089C55.2985 59.6089 55.0586 59.369 55.0586 59.0811C55.0586 58.7933 55.2985 58.5534 55.5863 58.5534C55.8742 58.5294 56.114 58.7693 56.114 59.0811Z" fill="#B16669"/>
<path d="M55.0591 58.9373C55.0591 58.9852 55.0352 59.0332 55.0352 59.0812C55.0352 59.369 55.275 59.6089 55.5629 59.6089C55.7068 59.6089 55.8267 59.5609 55.9227 59.465C55.7308 59.1771 55.419 58.9852 55.0591 58.9373Z" fill="#F3908F"/>
<path d="M55.7549 62.4153C54.2437 62.3674 52.8764 62.1035 52.0129 61.5758C51.6291 61.3359 50.9094 60.7362 50.4297 59.8727C50.4297 59.8727 50.5016 61.3359 51.8449 62.2954C53.2122 63.2549 55.7549 63.4228 55.7549 63.4228V62.4153Z" fill="#F0997A"/>
<path d="M76.3861 85.0114C77.1776 85.0114 77.2016 84.9155 77.3216 84.5317C77.4415 84.1479 77.5375 83.3803 77.0337 82.7086C76.6979 82.2768 76.3621 81.7971 76.0742 81.6532C75.7864 81.5093 75.4266 82.061 75.7384 82.7566C76.1942 83.836 75.9543 84.0279 75.9543 84.0279C75.9543 84.0279 75.5225 83.0205 75.2826 82.6846C75.0428 82.3248 74.4431 81.8211 74.0833 81.4613C73.7474 81.1254 73.1717 81.4133 73.4836 82.2049C73.4836 82.2049 73.0518 81.7731 72.8359 81.5812C72.3802 81.1254 71.9964 81.1494 71.9724 81.7731C71.9724 81.917 71.9724 82.1089 72.1403 82.3488C72.1403 82.3488 71.7565 81.8211 71.5646 81.941C71.0369 82.2768 71.1328 82.7086 71.6126 84.0279C72.0203 85.1553 71.8524 85.707 71.4207 85.875L71.1328 85.9709C71.1328 85.9709 71.6845 86.2108 72.2122 86.4027C72.596 86.5466 72.9798 86.6186 73.3157 86.1868C73.3157 86.1868 73.7235 86.7865 74.1312 86.5466C74.515 86.3067 74.8029 85.827 74.8029 85.827C74.8029 85.827 75.2347 86.0429 75.6424 85.707C76.0502 85.3712 76.1222 85.0354 76.1222 85.0354L76.3861 85.0114Z" fill="#FABCA7"/>
<path d="M73.5078 82.205C73.6997 82.3969 73.8916 82.5648 74.0595 82.8046C74.2034 83.0685 74.2514 83.3324 74.3234 83.5722C74.4193 84.1 74.5153 84.6277 74.5393 85.1554C74.3474 84.6517 74.2034 84.1479 74.0835 83.6202C74.0355 83.3564 73.9876 83.0925 73.8916 82.8766C73.7717 82.6607 73.6277 82.4448 73.5078 82.205Z" fill="#F0997A"/>
<path d="M72.1641 82.3489C72.4039 82.5168 72.5718 82.7806 72.6918 83.0445C72.8117 83.3084 72.9077 83.5962 72.9796 83.8601C73.0996 84.4118 73.1955 84.9875 73.2195 85.5632C73.0276 85.0115 72.8837 84.4598 72.7637 83.9081C72.5958 83.3563 72.4999 82.8286 72.1641 82.3489Z" fill="#F0997A"/>
<path d="M104.115 30.8958C103.78 30.7039 103.54 30.4641 103.348 30.1282C103.156 29.7924 103.084 29.4086 103.084 28.9768V27.2977C103.084 26.866 103.18 26.4822 103.348 26.1463C103.54 25.8105 103.78 25.5466 104.115 25.3787C104.451 25.1868 104.835 25.1149 105.267 25.1149C105.699 25.1149 106.082 25.2108 106.418 25.3787C106.754 25.5706 106.994 25.8105 107.186 26.1463C107.378 26.4822 107.45 26.866 107.45 27.2977V28.9768C107.45 29.4086 107.354 29.7924 107.186 30.1282C106.994 30.4641 106.754 30.7279 106.418 30.8958C106.082 31.0637 105.699 31.1597 105.267 31.1597C104.835 31.1837 104.451 31.0877 104.115 30.8958ZM105.795 29.9124C105.938 29.8164 106.058 29.6965 106.154 29.5525C106.226 29.3846 106.274 29.2167 106.274 29.0008V27.2497C106.274 27.0339 106.226 26.866 106.154 26.698C106.082 26.5301 105.962 26.4102 105.795 26.3382C105.651 26.2423 105.459 26.2183 105.267 26.2183C105.075 26.2183 104.883 26.2663 104.739 26.3382C104.595 26.4342 104.475 26.5541 104.379 26.698C104.307 26.866 104.259 27.0339 104.259 27.2497V29.0008C104.259 29.2167 104.307 29.3846 104.379 29.5525C104.451 29.7205 104.571 29.8404 104.739 29.9124C104.883 30.0083 105.075 30.0323 105.267 30.0323C105.459 30.0563 105.651 30.0083 105.795 29.9124Z" fill="#2B2B2B"/>
<path d="M109.537 30.8958C109.201 30.7039 108.962 30.4641 108.77 30.1282C108.578 29.7924 108.506 29.4086 108.506 28.9768V27.2977C108.506 26.866 108.602 26.4822 108.77 26.1463C108.962 25.8105 109.201 25.5466 109.537 25.3787C109.873 25.1868 110.257 25.1149 110.689 25.1149C111.12 25.1149 111.504 25.2108 111.84 25.3787C112.176 25.5706 112.416 25.8105 112.608 26.1463C112.8 26.4822 112.872 26.866 112.872 27.2977V28.9768C112.872 29.4086 112.776 29.7924 112.608 30.1282C112.416 30.4641 112.176 30.7279 111.84 30.8958C111.504 31.0637 111.12 31.1597 110.689 31.1597C110.257 31.1837 109.873 31.0877 109.537 30.8958ZM111.216 29.9124C111.36 29.8164 111.48 29.6965 111.576 29.5525C111.648 29.3846 111.696 29.2167 111.696 29.0008V27.2497C111.696 27.0339 111.648 26.866 111.576 26.698C111.504 26.5301 111.384 26.4102 111.216 26.3382C111.073 26.2423 110.881 26.2183 110.689 26.2183C110.497 26.2183 110.305 26.2663 110.161 26.3382C110.017 26.4342 109.897 26.5541 109.801 26.698C109.729 26.866 109.681 27.0339 109.681 27.2497V29.0008C109.681 29.2167 109.729 29.3846 109.801 29.5525C109.873 29.7205 109.993 29.8404 110.161 29.9124C110.305 30.0083 110.497 30.0323 110.689 30.0323C110.881 30.0563 111.049 30.0083 111.216 29.9124Z" fill="#2B2B2B"/>
<path d="M114.047 25.1629H115.174V31.1118H114.047V25.1629ZM114.551 27.7056H116.446C116.59 27.7056 116.709 27.6816 116.805 27.6096C116.901 27.5377 116.997 27.4657 117.045 27.3458C117.093 27.2258 117.141 27.1059 117.141 26.962C117.141 26.818 117.117 26.6741 117.045 26.5782C116.973 26.4822 116.901 26.3863 116.805 26.3143C116.709 26.2423 116.59 26.2183 116.446 26.2183H114.551V25.1389H116.422C116.781 25.1389 117.117 25.2109 117.405 25.3548C117.693 25.4987 117.909 25.7146 118.053 26.0025C118.221 26.2903 118.293 26.6021 118.293 26.962C118.293 27.3218 118.221 27.6336 118.053 27.9215C117.909 28.1853 117.669 28.4012 117.405 28.5691C117.117 28.713 116.805 28.785 116.422 28.785H114.551V27.7056Z" fill="#2B2B2B"/>
<path d="M120.308 31.0877C120.044 31.0398 119.78 30.9438 119.54 30.8239C119.3 30.7039 119.084 30.584 118.893 30.4161L119.42 29.4806C119.66 29.6725 119.924 29.8164 120.212 29.9124C120.524 30.0083 120.812 30.0563 121.147 30.0563C121.507 30.0563 121.795 29.9843 122.011 29.8644C122.203 29.7444 122.323 29.5765 122.323 29.3367C122.323 29.1687 122.275 29.0488 122.179 28.9529C122.083 28.8569 121.963 28.7849 121.819 28.737C121.675 28.689 121.483 28.665 121.267 28.617H121.243H121.219L121.123 28.593C120.716 28.5211 120.404 28.4491 120.14 28.3532C119.876 28.2572 119.66 28.0893 119.468 27.8494C119.276 27.6096 119.204 27.2737 119.204 26.842C119.204 26.4582 119.3 26.1223 119.468 25.8585C119.636 25.5946 119.9 25.3787 120.212 25.2348C120.548 25.0909 120.932 25.0189 121.411 25.0189C121.627 25.0189 121.843 25.0429 122.059 25.0909C122.275 25.1389 122.491 25.2108 122.707 25.3068C122.922 25.4027 123.114 25.5227 123.306 25.6426L122.827 26.6021C122.587 26.4342 122.347 26.3142 122.107 26.2423C121.867 26.1463 121.627 26.1223 121.387 26.1223C121.051 26.1223 120.788 26.1703 120.596 26.2903C120.404 26.4102 120.308 26.5541 120.308 26.77C120.308 26.9379 120.356 27.0818 120.452 27.1778C120.548 27.2737 120.668 27.3457 120.812 27.3937C120.955 27.4416 121.171 27.4896 121.411 27.5376H121.435H121.459C121.483 27.5376 121.483 27.5376 121.507 27.5376C121.531 27.5376 121.531 27.5376 121.555 27.5376C121.939 27.6096 122.251 27.7055 122.491 27.8015C122.755 27.8974 122.946 28.0653 123.114 28.3052C123.282 28.5451 123.378 28.8569 123.378 29.2647C123.378 29.6485 123.282 29.9603 123.114 30.2482C122.946 30.512 122.683 30.7279 122.347 30.8718C122.011 31.0158 121.603 31.0877 121.123 31.0877C120.86 31.1837 120.572 31.1357 120.308 31.0877Z" fill="#2B2B2B"/>
<path d="M124.361 25.1628H125.489V29.3367H124.361V25.1628ZM124.361 29.9843H125.489V31.1117H124.361V29.9843Z" fill="#2B2B2B"/>
</svg>
