<svg width="14" height="14" viewBox="0 0 14 14" fill="none" xmlns="http://www.w3.org/2000/svg">
<path d="M9 1.75002C9.00027 1.49066 8.94289 1.23448 8.832 1.00002C8.70423 0.730728 8.5098 0.498535 8.26713 0.325455C8.02447 0.152375 7.74162 0.0441428 7.4454 0.0110216C7.14918 -0.0220996 6.84941 0.0209875 6.57452 0.136197C6.29962 0.251407 6.0587 0.434922 5.87461 0.669341C5.69052 0.903761 5.56935 1.18132 5.5226 1.47569C5.47585 1.77007 5.50506 2.0715 5.60746 2.35142C5.70987 2.63134 5.88207 2.88047 6.10775 3.07518C6.33343 3.26989 6.6051 3.40373 6.897 3.46402L6.903 3.46602C7.24539 3.53461 7.60045 3.4998 7.923 3.36602C7.88433 3.73402 7.82018 4.0989 7.731 4.45802C7.69051 4.61755 7.64347 4.77535 7.59 4.93102C7.306 5.75302 6.853 6.44002 6.146 7.14602C6.09951 7.19251 6.06264 7.24769 6.03748 7.30843C6.01232 7.36917 5.99937 7.43427 5.99937 7.50002C5.99937 7.56576 6.01232 7.63086 6.03748 7.6916C6.06264 7.75234 6.09951 7.80753 6.146 7.85402C6.23989 7.9479 6.36722 8.00065 6.5 8.00065C6.56574 8.00065 6.63084 7.9877 6.69158 7.96254C6.75232 7.93738 6.80751 7.90051 6.854 7.85402C7.647 7.06002 8.194 6.24702 8.535 5.25702C8.705 4.76702 8.82 4.24002 8.895 3.66102V3.65902L8.918 3.45902C8.971 2.97202 8.996 2.44902 9 1.88102V1.75002ZM13.535 5.25702C13.7313 4.67439 13.8598 4.07108 13.918 3.45902C13.9327 3.32035 13.9457 3.17902 13.957 3.03502C13.9857 2.63368 14 2.20535 14 1.75002C14 1.37448 13.8791 1.00892 13.6553 0.707343C13.4316 0.405768 13.1167 0.18418 12.7573 0.0753218C12.3979 -0.0335367 12.013 -0.0238912 11.6595 0.102833C11.306 0.229557 11.0026 0.466638 10.7942 0.779044C10.5858 1.09145 10.4834 1.46261 10.5022 1.83767C10.521 2.21274 10.6599 2.57182 10.8984 2.86185C11.137 3.15188 11.4625 3.35748 11.8269 3.44827C12.1913 3.53906 12.5753 3.51022 12.922 3.36602C12.8837 3.734 12.8198 4.09887 12.731 4.45802C12.6905 4.61755 12.6435 4.77535 12.59 4.93102C12.306 5.75302 11.853 6.44002 11.146 7.14602C11.0995 7.19251 11.0626 7.24769 11.0375 7.30843C11.0123 7.36917 10.9994 7.43427 10.9994 7.50002C10.9994 7.56576 11.0123 7.63086 11.0375 7.6916C11.0626 7.75234 11.0995 7.80753 11.146 7.85402C11.1925 7.90051 11.2477 7.93738 11.3084 7.96254C11.3692 7.9877 11.4343 8.00065 11.5 8.00065C11.5657 8.00065 11.6308 7.9877 11.6916 7.96254C11.7523 7.93738 11.8075 7.90051 11.854 7.85402C12.647 7.06002 13.194 6.24702 13.535 5.25702ZM9.943 3.24702C10.1414 3.55284 10.3987 3.81615 10.6998 4.02165C11.0009 4.22714 11.3399 4.37072 11.697 4.44402L11.644 4.60402C11.419 5.25902 11.059 5.82002 10.439 6.43902C10.1576 6.72041 9.99952 7.10207 9.99952 7.50002C9.99952 7.89797 10.1576 8.27962 10.439 8.56102C10.7204 8.84241 11.102 9.0005 11.5 9.0005C11.898 9.0005 12.2796 8.84241 12.561 8.56102C13.147 7.97402 13.627 7.36102 14 6.67602V8.50002C14 8.82832 13.9353 9.15341 13.8097 9.45673C13.6841 9.76004 13.4999 10.0356 13.2678 10.2678C13.0356 10.4999 12.76 10.6841 12.4567 10.8097C12.1534 10.9354 11.8283 11 11.5 11H7.688L4.625 13.68C4.48327 13.8039 4.30885 13.8844 4.12261 13.9118C3.93636 13.9392 3.74617 13.9123 3.57476 13.8345C3.40336 13.7566 3.25801 13.6311 3.15608 13.4728C3.05415 13.3145 2.99996 13.1303 3 12.942V11H2.5C1.83696 11 1.20107 10.7366 0.732233 10.2678C0.263392 9.79894 0 9.16306 0 8.50002V3.50002C0 2.83698 0.263392 2.20109 0.732233 1.73225C1.20107 1.26341 1.83696 1.00002 2.5 1.00002H4.604C4.50083 1.36392 4.47383 1.74519 4.5247 2.12C4.57558 2.4948 4.70322 2.85509 4.89966 3.17832C5.0961 3.50156 5.3571 3.78079 5.66636 3.99857C5.97562 4.21635 6.32647 4.36799 6.697 4.44402L6.644 4.60402C6.42 5.26002 6.06 5.82002 5.44 6.44002C5.30067 6.57935 5.19014 6.74476 5.11474 6.92681C5.03933 7.10886 5.00052 7.30397 5.00052 7.50102C5.00052 7.69806 5.03933 7.89318 5.11474 8.07523C5.19014 8.25727 5.30067 8.42268 5.44 8.56202C5.57933 8.70135 5.74474 8.81187 5.92679 8.88728C6.10884 8.96269 6.30395 9.0015 6.501 9.0015C6.69805 9.0015 6.89316 8.96269 7.07521 8.88728C7.25726 8.81187 7.42267 8.70135 7.562 8.56202C8.442 7.68202 9.082 6.74202 9.482 5.58402C9.73 4.86202 9.873 4.09102 9.944 3.24902" fill="white"/>
</svg>
