<svg width="30" height="30" viewBox="0 0 30 30" fill="none" xmlns="http://www.w3.org/2000/svg">
<path d="M8.03606 3.01628C8.19365 2.82819 8.27122 2.5858 8.25211 2.34116C8.23299 2.09652 8.11872 1.86913 7.93383 1.70779C7.74893 1.54646 7.50816 1.46405 7.26318 1.47826C7.01821 1.49246 6.78857 1.60215 6.62356 1.78378L5.00856 3.63378C4.09279 4.68324 3.57511 6.02124 3.54606 7.41378L3.47481 10.8125C3.46967 11.0612 3.56352 11.3017 3.7357 11.4811C3.90788 11.6606 4.14429 11.7643 4.39293 11.7694C4.64158 11.7745 4.88207 11.6807 5.06152 11.5085C5.24097 11.3363 5.34467 11.0999 5.34981 10.8513L5.41981 7.45378C5.43986 6.50094 5.79428 5.58548 6.42106 4.86753L8.03606 3.01628Z" fill="#C28D3E"/>
<path fill-rule="evenodd" clip-rule="evenodd" d="M7.79594 9.625C7.87989 8.28767 8.47034 7.0326 9.4471 6.1153C10.4239 5.19799 11.7135 4.68741 13.0534 4.6875H13.7497V3.75C13.7497 3.41848 13.8814 3.10054 14.1158 2.86612C14.3502 2.6317 14.6682 2.5 14.9997 2.5C15.3312 2.5 15.6492 2.6317 15.8836 2.86612C16.118 3.10054 16.2497 3.41848 16.2497 3.75V4.6875H16.9459C18.2859 4.68741 19.5755 5.19799 20.5523 6.1153C21.529 7.0326 22.1195 8.28767 22.2034 9.625L22.4797 14.0425C22.5865 15.7265 23.1519 17.3492 24.1147 18.735C24.3139 19.0213 24.4356 19.3543 24.468 19.7016C24.5004 20.0489 24.4424 20.3987 24.2996 20.7169C24.1567 21.0352 23.934 21.311 23.653 21.5177C23.372 21.7243 23.0423 21.8548 22.6959 21.8962L18.4372 22.4062V23.75C18.4372 24.6617 18.075 25.536 17.4304 26.1807C16.7857 26.8253 15.9114 27.1875 14.9997 27.1875C14.088 27.1875 13.2137 26.8253 12.569 26.1807C11.9244 25.536 11.5622 24.6617 11.5622 23.75V22.4062L7.30344 21.895C6.95731 21.8534 6.62783 21.723 6.347 21.5164C6.06617 21.3098 5.84355 21.0341 5.70076 20.7161C5.55797 20.398 5.49986 20.0485 5.53209 19.7013C5.56432 19.3542 5.68579 19.0213 5.88469 18.735C6.8475 17.3492 7.4129 15.7265 7.51969 14.0425L7.79594 9.625ZM13.4372 23.75C13.4372 24.1644 13.6018 24.5618 13.8948 24.8549C14.1879 25.1479 14.5853 25.3125 14.9997 25.3125C15.4141 25.3125 15.8115 25.1479 16.1045 24.8549C16.3976 24.5618 16.5622 24.1644 16.5622 23.75V22.8125H13.4372V23.75Z" fill="#C28D3E"/>
<path d="M22.0534 1.69375C21.8661 1.85722 21.7515 2.08837 21.7346 2.33637C21.7177 2.58437 21.8 2.82892 21.9634 3.01625L23.5784 4.86625C24.205 5.58471 24.559 6.50064 24.5784 7.45375L24.6497 10.85C24.6522 10.9731 24.679 11.0945 24.7284 11.2073C24.7779 11.3201 24.8491 11.422 24.9379 11.5072C25.0268 11.5925 25.1316 11.6594 25.2463 11.7042C25.361 11.7489 25.4834 11.7707 25.6065 11.7681C25.7296 11.7656 25.8511 11.7388 25.9638 11.6894C26.0766 11.6399 26.1785 11.5687 26.2638 11.4798C26.349 11.391 26.4159 11.2862 26.4607 11.1715C26.5055 11.0568 26.5272 10.9344 26.5247 10.8113L26.4534 7.41375C26.4244 6.02122 25.9067 4.68321 24.9909 3.63375L23.3759 1.78375C23.2124 1.59649 22.9813 1.48181 22.7333 1.46493C22.4853 1.44806 22.2407 1.53036 22.0534 1.69375Z" fill="#C28D3E"/>
</svg>
