<svg width="20" height="20" viewBox="0 0 20 20" fill="none" xmlns="http://www.w3.org/2000/svg">
<path d="M7.8918 1.6917C8.07806 1.6925 8.25938 1.75159 8.41034 1.86069C8.56129 1.9698 8.67429 2.12343 8.73347 2.30004L9.25014 3.8667C9.41461 4.35857 9.69159 4.80527 10.059 5.17128C10.4265 5.53729 10.8743 5.8125 11.3668 5.97504L12.9251 6.5167C13.099 6.57891 13.2501 6.69219 13.3585 6.8417C13.4401 6.95501 13.4937 7.08606 13.5148 7.22408C13.536 7.36211 13.5241 7.50319 13.4802 7.63574C13.4363 7.7683 13.3616 7.88855 13.2622 7.98664C13.1628 8.08473 13.0416 8.15786 12.9085 8.20004L11.3418 8.72504C10.8478 8.89434 10.4019 9.18019 10.0418 9.55837C9.66645 9.92406 9.38118 10.3719 9.20847 10.8667L8.68347 12.4334C8.62762 12.6108 8.5167 12.7658 8.3668 12.8759C8.2146 12.9839 8.03259 13.0419 7.84597 13.0419C7.65934 13.0419 7.47734 12.9839 7.32514 12.8759C7.17083 12.7651 7.05676 12.6072 7.00014 12.4259L6.47514 10.8675C6.30647 10.366 6.02081 9.9118 5.6418 9.54254C5.27264 9.16754 4.8218 8.8817 4.32514 8.7092L2.78347 8.19254C2.60733 8.14368 2.45214 8.03827 2.3418 7.89254C2.22417 7.74592 2.15956 7.56384 2.15847 7.37587C2.15398 7.1897 2.2063 7.00657 2.30847 6.85087C2.40781 6.69254 2.55749 6.57221 2.73347 6.5092L4.32514 5.9842C4.8218 5.8117 5.27264 5.52587 5.6418 5.15087C6.0197 4.78398 6.30528 4.33277 6.47514 3.8342L7.02514 2.27587C7.08002 2.10046 7.19135 1.94811 7.3418 1.84254C7.50347 1.7342 7.69597 1.68004 7.8918 1.6917ZM13.6668 9.9167C13.8367 9.91711 14.0025 9.96945 14.1418 10.0667C14.2773 10.1674 14.379 10.3069 14.4335 10.4667L14.8085 11.5917C14.9196 11.9069 15.1021 12.1921 15.3418 12.425C15.5766 12.6624 15.8612 12.8446 16.1751 12.9584L17.2918 13.35C17.4516 13.4045 17.5911 13.5062 17.6918 13.6417C17.7904 13.782 17.8433 13.9494 17.8433 14.1209C17.8433 14.2924 17.7904 14.4597 17.6918 14.6C17.5911 14.7355 17.4516 14.8372 17.2918 14.8917L16.1751 15.2584C15.8612 15.3724 15.5765 15.5548 15.3418 15.7925C15.1044 16.0273 14.9222 16.312 14.8085 16.6259L14.4418 17.7509C14.3851 17.9118 14.2804 18.0514 14.1418 18.1509C14.0034 18.2511 13.8376 18.3064 13.6668 18.3092C13.495 18.3062 13.3282 18.2501 13.1895 18.1487C13.0508 18.0472 12.9468 17.9054 12.8918 17.7425L12.5251 16.6259C12.4092 16.3131 12.227 16.0291 11.9911 15.7932C11.7553 15.5573 11.4712 15.3752 11.1585 15.2592L10.0585 14.8842C9.9008 14.8343 9.76156 14.7385 9.65847 14.6092C9.55547 14.474 9.49628 14.3105 9.48883 14.1407C9.48139 13.9709 9.52604 13.8029 9.6168 13.6592C9.71514 13.5167 9.8543 13.4067 10.0168 13.3425L11.1585 12.9675C11.4712 12.8516 11.7553 12.6694 11.9911 12.4335C12.227 12.1977 12.4092 11.9136 12.5251 11.6009L12.9168 10.4842C12.9676 10.3248 13.0703 10.1869 13.2085 10.0925C13.3386 9.98663 13.4992 9.92529 13.6668 9.91754" fill="#C28D3E"/>
</svg>
