<svg width="22" height="22" viewBox="0 0 22 22" fill="none" xmlns="http://www.w3.org/2000/svg">
<rect width="22" height="22" rx="11" fill="#F3F8FE"/>
<g clip-path="url(#clip0_119_849)">
<path d="M11.8737 6.61939C12.0415 6.61512 12.2039 6.67766 12.3257 6.79315L15.9423 10.2249C16.064 10.3405 16.135 10.4994 16.1395 10.6672C16.1439 10.8351 16.0814 10.9983 15.9658 11.1201L12.534 14.7367C12.4178 14.8541 12.2606 14.9221 12.0954 14.925C11.9295 14.9279 11.7688 14.8653 11.6483 14.7511C11.5279 14.6369 11.4571 14.4796 11.4512 14.3138C11.4454 14.1478 11.505 13.9854 11.6172 13.863L13.6793 11.6207L13.9196 11.3594L6.1244 11.5638C5.9566 11.5681 5.79421 11.5055 5.67242 11.39C5.55055 11.2744 5.47959 11.1148 5.47519 10.9468C5.47091 10.779 5.5334 10.6166 5.64895 10.4948C5.76453 10.3731 5.92339 10.3021 6.0912 10.2976L13.8864 10.0932L13.6327 9.8449L11.456 7.71275L11.454 7.71183L11.3724 7.61725C11.3008 7.51578 11.26 7.39457 11.2567 7.2686C11.2524 7.10082 11.314 6.93749 11.4295 6.81568L11.4305 6.81663C11.5461 6.69479 11.7058 6.6238 11.8737 6.61939Z" fill="#C28D3E" stroke="white" stroke-width="0.3"/>
</g>
<defs>
<clipPath id="clip0_119_849">
<rect width="11.7524" height="11.7524" fill="white" transform="translate(4.7793 5.0873) rotate(-1.50201)"/>
</clipPath>
</defs>
</svg>
