<svg width="20" height="20" viewBox="0 0 20 20" fill="none" xmlns="http://www.w3.org/2000/svg">
<path d="M10.4337 0.351344C10.2086 0.126378 9.90345 0 9.58525 0C9.26706 0 8.96189 0.126378 8.73685 0.351344L0.336854 8.75134C0.118264 8.97767 -0.00268874 9.28079 4.53632e-05 9.59542C0.00277947 9.91006 0.128982 10.211 0.351472 10.4335C0.573962 10.656 0.874936 10.7822 1.18957 10.785C1.50421 10.7877 1.80733 10.6667 2.03365 10.4481L2.38525 10.0965V17.9997C2.38525 18.318 2.51168 18.6232 2.73673 18.8483C2.96177 19.0733 3.26699 19.1997 3.58525 19.1997H5.98525C6.30351 19.1997 6.60874 19.0733 6.83378 18.8483C7.05883 18.6232 7.18525 18.318 7.18525 17.9997V15.5997C7.18525 15.2815 7.31168 14.9763 7.53673 14.7512C7.76177 14.5262 8.06699 14.3997 8.38525 14.3997H10.7853C11.1035 14.3997 11.4087 14.5262 11.6338 14.7512C11.8588 14.9763 11.9853 15.2815 11.9853 15.5997V17.9997C11.9853 18.318 12.1117 18.6232 12.3367 18.8483C12.5618 19.0733 12.867 19.1997 13.1853 19.1997H15.5853C15.9035 19.1997 16.2087 19.0733 16.4338 18.8483C16.6588 18.6232 16.7853 18.318 16.7853 17.9997V10.0965L17.1369 10.4481C17.3632 10.6667 17.6663 10.7877 17.9809 10.785C18.2956 10.7822 18.5965 10.656 18.819 10.4335C19.0415 10.211 19.1677 9.91006 19.1705 9.59542C19.1732 9.28079 19.0522 8.97767 18.8337 8.75134L10.4337 0.351344Z" fill="white"/>
</svg>
