<svg width="21" height="20" viewBox="0 0 21 20" fill="none" xmlns="http://www.w3.org/2000/svg">
<path d="M1.3335 15.8333V3.33334H3.00016V11.6667H9.66683V5.00001H16.3335C17.2502 5.00001 18.0349 5.3264 18.6877 5.97918C19.3404 6.63195 19.6668 7.41668 19.6668 8.33334V15.8333H18.0002V13.3333H3.00016V15.8333H1.3335ZM6.3335 10.8333C5.63905 10.8333 5.04877 10.5903 4.56266 10.1042C4.07655 9.61807 3.8335 9.02779 3.8335 8.33334C3.8335 7.6389 4.07655 7.04862 4.56266 6.56251C5.04877 6.0764 5.63905 5.83334 6.3335 5.83334C7.02794 5.83334 7.61822 6.0764 8.10433 6.56251C8.59044 7.04862 8.8335 7.6389 8.8335 8.33334C8.8335 9.02779 8.59044 9.61807 8.10433 10.1042C7.61822 10.5903 7.02794 10.8333 6.3335 10.8333ZM11.3335 11.6667H18.0002V8.33334C18.0002 7.87501 17.8371 7.48279 17.511 7.15668C17.1849 6.83057 16.7924 6.66723 16.3335 6.66668H11.3335V11.6667ZM6.3335 9.16668C6.56961 9.16668 6.76766 9.08668 6.92766 8.92668C7.08766 8.76668 7.16739 8.5689 7.16683 8.33334C7.16627 8.09779 7.08627 7.90001 6.92683 7.74001C6.76739 7.58001 6.56961 7.50001 6.3335 7.50001C6.09739 7.50001 5.89961 7.58001 5.74016 7.74001C5.58072 7.90001 5.50072 8.09779 5.50016 8.33334C5.49961 8.5689 5.57961 8.76695 5.74016 8.92751C5.90072 9.08807 6.0985 9.16779 6.3335 9.16668Z" fill="#C28D3E"/>
</svg>
