<svg width="20" height="20" viewBox="0 0 20 20" fill="none" xmlns="http://www.w3.org/2000/svg">
<path d="M0.833252 15.8333V3.33334H2.49992V11.6667H9.16659V5.00001H15.8333C16.7499 5.00001 17.5346 5.3264 18.1874 5.97918C18.8402 6.63195 19.1666 7.41668 19.1666 8.33334V15.8333H17.4999V13.3333H2.49992V15.8333H0.833252ZM5.83325 10.8333C5.13881 10.8333 4.54853 10.5903 4.06242 10.1042C3.57631 9.61807 3.33325 9.02779 3.33325 8.33334C3.33325 7.6389 3.57631 7.04862 4.06242 6.56251C4.54853 6.0764 5.13881 5.83334 5.83325 5.83334C6.5277 5.83334 7.11797 6.0764 7.60409 6.56251C8.0902 7.04862 8.33325 7.6389 8.33325 8.33334C8.33325 9.02779 8.0902 9.61807 7.60409 10.1042C7.11797 10.5903 6.5277 10.8333 5.83325 10.8333ZM10.8333 11.6667H17.4999V8.33334C17.4999 7.87501 17.3369 7.48279 17.0108 7.15668C16.6846 6.83057 16.2921 6.66723 15.8333 6.66668H10.8333V11.6667ZM5.83325 9.16668C6.06936 9.16668 6.26742 9.08668 6.42742 8.92668C6.58742 8.76668 6.66714 8.5689 6.66659 8.33334C6.66603 8.09779 6.58603 7.90001 6.42659 7.74001C6.26714 7.58001 6.06936 7.50001 5.83325 7.50001C5.59714 7.50001 5.39936 7.58001 5.23992 7.74001C5.08047 7.90001 5.00047 8.09779 4.99992 8.33334C4.99936 8.5689 5.07936 8.76695 5.23992 8.92751C5.40047 9.08807 5.59825 9.16779 5.83325 9.16668Z" fill="#888888" fill-opacity="0.5"/>
</svg>
