<svg width="18" height="10" viewBox="0 0 18 10" fill="none" xmlns="http://www.w3.org/2000/svg">
<path d="M1.50033 1.66667H16.5003C16.7213 1.66667 16.9333 1.57887 17.0896 1.42259C17.2459 1.26631 17.3337 1.05435 17.3337 0.833333C17.3337 0.61232 17.2459 0.400358 17.0896 0.244078C16.9333 0.0877975 16.7213 0 16.5003 0H1.50033C1.27931 0 1.06735 0.0877975 0.91107 0.244078C0.75479 0.400358 0.666992 0.61232 0.666992 0.833333C0.666992 1.05435 0.75479 1.26631 0.91107 1.42259C1.06735 1.57887 1.27931 1.66667 1.50033 1.66667ZM16.5003 8.33333H1.50033C1.27931 8.33333 1.06735 8.42113 0.91107 8.57741C0.75479 8.73369 0.666992 8.94565 0.666992 9.16667C0.666992 9.38768 0.75479 9.59964 0.91107 9.75592C1.06735 9.9122 1.27931 10 1.50033 10H16.5003C16.7213 10 16.9333 9.9122 17.0896 9.75592C17.2459 9.59964 17.3337 9.38768 17.3337 9.16667C17.3337 8.94565 17.2459 8.73369 17.0896 8.57741C16.9333 8.42113 16.7213 8.33333 16.5003 8.33333ZM16.5003 4.16667H1.50033C1.27931 4.16667 1.06735 4.25446 0.91107 4.41074C0.75479 4.56702 0.666992 4.77899 0.666992 5C0.666992 5.22101 0.75479 5.43297 0.91107 5.58926C1.06735 5.74554 1.27931 5.83333 1.50033 5.83333H16.5003C16.7213 5.83333 16.9333 5.74554 17.0896 5.58926C17.2459 5.43297 17.3337 5.22101 17.3337 5C17.3337 4.77899 17.2459 4.56702 17.0896 4.41074C16.9333 4.25446 16.7213 4.16667 16.5003 4.16667Z" fill="#232323"/>
</svg>
