<svg width="20" height="20" viewBox="0 0 20 20" fill="none" xmlns="http://www.w3.org/2000/svg">
<path d="M2.50033 6.66667H17.5003C17.7213 6.66667 17.9333 6.57887 18.0896 6.42259C18.2459 6.26631 18.3337 6.05435 18.3337 5.83333C18.3337 5.61232 18.2459 5.40036 18.0896 5.24408C17.9333 5.0878 17.7213 5 17.5003 5H2.50033C2.27931 5 2.06735 5.0878 1.91107 5.24408C1.75479 5.40036 1.66699 5.61232 1.66699 5.83333C1.66699 6.05435 1.75479 6.26631 1.91107 6.42259C2.06735 6.57887 2.27931 6.66667 2.50033 6.66667ZM17.5003 13.3333H2.50033C2.27931 13.3333 2.06735 13.4211 1.91107 13.5774C1.75479 13.7337 1.66699 13.9457 1.66699 14.1667C1.66699 14.3877 1.75479 14.5996 1.91107 14.7559C2.06735 14.9122 2.27931 15 2.50033 15H17.5003C17.7213 15 17.9333 14.9122 18.0896 14.7559C18.2459 14.5996 18.3337 14.3877 18.3337 14.1667C18.3337 13.9457 18.2459 13.7337 18.0896 13.5774C17.9333 13.4211 17.7213 13.3333 17.5003 13.3333ZM17.5003 9.16667H2.50033C2.27931 9.16667 2.06735 9.25446 1.91107 9.41074C1.75479 9.56702 1.66699 9.77899 1.66699 10C1.66699 10.221 1.75479 10.433 1.91107 10.5893C2.06735 10.7455 2.27931 10.8333 2.50033 10.8333H17.5003C17.7213 10.8333 17.9333 10.7455 18.0896 10.5893C18.2459 10.433 18.3337 10.221 18.3337 10C18.3337 9.77899 18.2459 9.56702 18.0896 9.41074C17.9333 9.25446 17.7213 9.16667 17.5003 9.16667Z" fill="white"/>
</svg>
