<svg width="20" height="20" viewBox="0 0 20 20" fill="none" xmlns="http://www.w3.org/2000/svg">
<g clip-path="url(#clip0_55_485)">
<path d="M10 5.36667V8.14167" stroke="#05090A" stroke-width="1.5" stroke-miterlimit="10" stroke-linecap="round"/>
<path d="M10.0166 1.66667C6.94998 1.66667 4.46664 4.15 4.46664 7.21667V8.96667C4.46664 9.53333 4.23331 10.3833 3.94164 10.8667L2.88331 12.6333C2.23331 13.725 2.68331 14.9417 3.88331 15.3417C7.86664 16.6667 12.175 16.6667 16.1583 15.3417C17.2833 14.9667 17.7666 13.65 17.1583 12.6333L16.1 10.8667C15.8083 10.3833 15.575 9.525 15.575 8.96667V7.21667C15.5666 4.16667 13.0666 1.66667 10.0166 1.66667Z" stroke="#05090A" stroke-width="1.5" stroke-miterlimit="10" stroke-linecap="round"/>
<path d="M12.775 15.6833C12.775 17.2083 11.525 18.4583 9.99998 18.4583C9.24164 18.4583 8.54164 18.1417 8.04164 17.6417C7.54164 17.1417 7.22498 16.4417 7.22498 15.6833" stroke="#05090A" stroke-width="1.5" stroke-miterlimit="10"/>
<circle cx="16" cy="4" r="4" fill="#E74C3C"/>
</g>
<defs>
<clipPath id="clip0_55_485">
<rect width="20" height="20" fill="white"/>
</clipPath>
</defs>
</svg>
