<svg width="17" height="17" viewBox="0 0 17 17" fill="none" xmlns="http://www.w3.org/2000/svg">
<g clip-path="url(#clip0_211_1442)">
<g clip-path="url(#clip1_211_1442)">
<path d="M17 15.6134C17 16.3797 16.4566 17 15.7852 17H1.21476C0.543446 17 0 16.3797 0 15.6134V5.3322C0 4.56742 0.543446 3.94708 1.21476 3.94708H15.7866C16.4579 3.94708 17.0013 4.56742 17.0013 5.3322V15.6149L17 15.6134Z" fill="#C28D3E"/>
<path d="M15.7854 3.94556H8.49951V17H15.7854C16.4567 17 17.0002 16.3797 17.0002 15.6134V5.33219C17.0002 4.56741 16.4567 3.94708 15.7854 3.94708V3.94556Z" fill="#C28D3E" fill-opacity="0.6"/>
<path d="M5.26287 3.94553V2.06627C5.26287 1.5478 5.63183 1.12664 6.08603 1.12664H10.9144C11.3686 1.12664 11.7376 1.5478 11.7376 2.06627V3.94553H12.7246V2.06627C12.7246 0.927466 11.9121 0 10.9144 0H6.08603C5.08838 0 4.27588 0.927466 4.27588 2.06627V3.94553H5.26287Z" fill="#A9701C"/>
<path d="M4.94274 12.2152C4.79755 11.9339 4.51251 11.9339 4.36733 12.2152L3.09396 14.6828C3.02203 14.8227 3.01271 14.9611 3.06998 15.0706C3.12592 15.18 3.24047 15.2424 3.38566 15.2424H5.92574C6.07092 15.2424 6.18547 15.18 6.24141 15.0706C6.29736 14.9611 6.28803 14.8227 6.21611 14.6828L4.94274 12.2152Z" fill="#76D8E1"/>
<path d="M15.4978 7.81504C15.631 7.58393 15.5244 7.33762 15.2833 7.31634L13.1695 7.13388C13.0496 7.12324 12.9537 7.16733 12.9017 7.25704C12.8511 7.34675 12.8511 7.4699 12.9057 7.59458L13.8528 9.79465C13.9074 9.91932 13.9913 9.99687 14.0845 10.0045C14.1791 10.0121 14.267 9.95429 14.3336 9.83874L15.4991 7.81656L15.4978 7.81504Z" fill="white"/>
<path d="M4.77766 9.07396L5.18658 7.38323L4.09303 6.1532L2.59189 6.61389L2.18164 8.30462L3.27519 9.53465L4.77766 9.07396Z" fill="white"/>
<path d="M12.7988 12.2654L11.2057 10.4728L8.78418 13.1989L10.4412 15.063L12.8627 12.3384L12.7988 12.2654Z" fill="#76D8E1"/>
<path d="M8.50064 8.80484C8.82298 8.80484 9.14665 8.66648 9.39306 8.38976C9.63948 8.11304 9.76335 7.74814 9.76202 7.38627C9.76202 7.02289 9.63948 6.65951 9.39306 6.38279C9.14665 6.10455 8.82431 5.96619 8.50064 5.96619C8.1783 5.96619 7.85463 6.10455 7.60822 6.38279C7.3618 6.65951 7.23926 7.02289 7.23926 7.38627C7.23926 7.74966 7.3618 8.11304 7.60822 8.38976C7.85463 8.66648 8.1783 8.80484 8.50064 8.80484Z" fill="#76D8E1"/>
</g>
</g>
<defs>
<clipPath id="clip0_211_1442">
<rect width="17" height="17" fill="white"/>
</clipPath>
<clipPath id="clip1_211_1442">
<rect width="17" height="17" fill="white"/>
</clipPath>
</defs>
</svg>
