<svg width="16" height="16" viewBox="0 0 16 16" fill="none" xmlns="http://www.w3.org/2000/svg">
<path d="M5.18128 1.62597L5.89928 1.39664C6.57128 1.18197 7.28995 1.52931 7.57795 2.20797L8.15128 3.55997C8.40128 4.14864 8.26261 4.84131 7.80861 5.27197L6.54661 6.47064C6.62439 7.18797 6.86528 7.89398 7.26928 8.58864C7.65346 9.26055 8.16824 9.84877 8.78328 10.3186L10.3006 9.81197C10.8753 9.62064 11.5013 9.84131 11.8539 10.3593L12.6753 11.566C13.0859 12.1686 13.0119 12.9993 12.5033 13.51L11.9579 14.0573C11.4153 14.602 10.6406 14.8 9.92328 14.576C8.23083 14.048 6.67461 12.4806 5.25461 9.87397C3.83283 7.26286 3.33106 5.04775 3.74928 3.22864C3.92528 2.46331 4.47061 1.85331 5.18261 1.62597" fill="white"/>
</svg>
