<svg width="17" height="17" viewBox="0 0 17 17" fill="none" xmlns="http://www.w3.org/2000/svg">
<path d="M5.32928 17.0017L3.50721 13.8901C3.0866 14.146 2.82975 14.2677 2.78232 14.2194C2.734 14.1702 2.8566 13.9142 3.11165 13.4945L0 11.6724L4.47463 11.4791C5.50558 10.0312 6.92762 8.1366 8.53759 6.08454C8.58144 6.02816 8.62529 5.97804 8.66914 5.92255L1.2869 0.0760071L3.44904 0.212931L5.67651 1.19198C6.01837 0.706034 6.47389 0.504676 6.72536 0.75436C6.92046 0.953034 6.83544 1.27968 6.55175 1.5768L8.32817 2.35896C8.67361 1.86228 9.13271 1.65287 9.38776 1.90881C9.58733 2.10838 9.49695 2.44219 9.2043 2.74288L10.834 3.46061C13.4543 0.788367 15.8742 -0.610401 16.7441 0.255887C17.6112 1.12665 16.2125 3.54832 13.5402 6.16597L14.2588 7.79742C14.5595 7.50478 14.8924 7.41439 15.0947 7.61486C15.3471 7.86812 15.1386 8.32811 14.6437 8.67355L15.4249 10.4491C15.722 10.1654 16.0487 10.0795 16.2492 10.2773C16.4988 10.526 16.2948 10.9816 15.8097 11.3234L16.7888 13.5527L16.9266 15.7139L11.0765 8.3308C11.0228 8.37554 10.9718 8.4194 10.9163 8.46235C8.86602 10.0723 6.97057 11.4944 5.52348 12.5262L5.33017 16.9999L5.32928 17.0017Z" fill="#C28D3E" fill-opacity="0.5"/>
<path d="M13.3092 11.1513L16.9256 15.7146L16.7878 13.5533L15.8087 11.3241C16.2938 10.9813 16.4978 10.5258 16.2481 10.2779C16.0477 10.0792 15.721 10.1651 15.4239 10.4497L14.6426 8.67418C15.1375 8.32874 15.346 7.86875 15.0937 7.61549C14.8914 7.41502 14.5585 7.50541 14.2578 7.79805L13.5392 6.1666C16.2114 3.54895 17.6102 1.12638 16.743 0.256516C16.7314 0.244882 16.718 0.234143 16.7045 0.223404L2.77593 14.1511C2.77056 14.1842 2.77056 14.2075 2.78219 14.2191C2.82962 14.2666 3.08647 14.1458 3.50708 13.8898L5.32915 17.0015L5.52245 12.5277C6.96955 11.4959 8.865 10.0747 10.9153 8.46388C10.9708 8.42092 11.0227 8.37707 11.0755 8.33232L13.3092 11.1513Z" fill="#C28D3E"/>
</svg>
