<svg width="20" height="20" viewBox="0 0 20 20" fill="none" xmlns="http://www.w3.org/2000/svg">
<path d="M3.33331 15C3.33331 14.1159 3.6845 13.2681 4.30962 12.643C4.93474 12.0179 5.78259 11.6667 6.66665 11.6667H13.3333C14.2174 11.6667 15.0652 12.0179 15.6903 12.643C16.3155 13.2681 16.6666 14.1159 16.6666 15C16.6666 15.442 16.4911 15.8659 16.1785 16.1785C15.8659 16.4911 15.442 16.6667 15 16.6667H4.99998C4.55795 16.6667 4.13403 16.4911 3.82147 16.1785C3.50891 15.8659 3.33331 15.442 3.33331 15Z" stroke="#05090A" stroke-width="1.5" stroke-linejoin="round"/>
<path d="M10 8.33333C11.3807 8.33333 12.5 7.21404 12.5 5.83333C12.5 4.45262 11.3807 3.33333 10 3.33333C8.61929 3.33333 7.5 4.45262 7.5 5.83333C7.5 7.21404 8.61929 8.33333 10 8.33333Z" stroke="#05090A" stroke-width="1.5"/>
</svg>
