<svg width="17" height="15" viewBox="0 0 17 15" fill="none" xmlns="http://www.w3.org/2000/svg">
<path d="M11.8172 0L8.37279 1.93372L4.93819 0.00430993L1.15479 1.89493V15L4.92975 13.1137L8.37279 14.8333L11.8172 13.1137L15.5922 15V2.11905L11.8172 0Z" fill="white"/>
<mask id="mask0_214_1639" style="mask-type:luminance" maskUnits="userSpaceOnUse" x="1" y="0" width="15" height="15">
<path d="M11.8173 0.386475L8.37289 2.3202L4.92985 0.386475L1.48682 2.10614V14.457L4.92985 12.7373L8.37289 14.457L11.8173 12.7373L15.2604 14.457V2.3202L11.8173 0.386475Z" fill="white"/>
</mask>
<g mask="url(#mask0_214_1639)">
<path d="M17 0.386475H0V14.4555H17V0.386475Z" fill="#FFE18F"/>
<path d="M12.9127 14.457C13.3051 13.8995 13.5738 13.1927 13.7538 12.4299C14.3501 9.89561 14.983 6.97922 16.9999 6.29825V5.38599C15.1167 5.92473 14.0548 8.1113 13.4486 10.5708C13.3586 10.9357 13.2826 11.3136 13.201 11.6871C13.1631 11.6023 13.0956 11.5363 12.9929 11.5133C11.4514 11.1843 10.0196 10.3381 8.51328 9.82809C8.08712 9.68299 7.90568 10.5435 8.33184 10.6886C9.83817 11.1986 11.27 12.0448 12.8114 12.3738C12.9057 12.3939 12.9873 12.3666 13.0548 12.3149C12.8382 13.1568 12.5302 13.924 11.8832 14.4024C11.8565 14.421 11.8297 14.4383 11.803 14.4555H12.9155L12.9127 14.457Z" fill="#FFC929"/>
<path d="M17.0001 3.07013C15.3869 2.98105 13.9734 1.6852 12.7132 0.386475H11.6246C12.114 0.89792 12.6246 1.43522 13.1576 1.9323C12.4291 2.85032 11.806 3.93355 10.9143 4.59297C10.3574 5.00385 9.63865 5.07568 9.01559 5.16906C8.3658 5.26675 7.71038 5.30267 7.05638 5.32709C5.93823 5.37019 4.80884 5.30267 3.68085 5.2567C3.70335 3.64622 3.29548 2.132 2.90729 0.619211C2.87916 0.512899 2.83134 0.436757 2.77367 0.386475H2.37424C2.26172 0.476983 2.1928 0.642197 2.24906 0.856257C2.61474 2.28428 3.01277 3.71087 2.9973 5.23084C1.99449 5.20211 0.994491 5.21216 0.00292969 5.34577V6.23362C1.26031 6.05834 2.53458 6.14454 3.79618 6.20201C4.43753 6.23074 5.07888 6.24511 5.72164 6.24367C4.5838 8.25785 3.8651 10.6183 2.81446 12.7086C2.57255 13.1913 3.16327 13.6381 3.40377 13.1597C4.5191 10.9386 5.23922 8.37134 6.53879 6.30832C6.55427 6.2839 6.56692 6.25804 6.57818 6.23074C7.00012 6.22069 7.42206 6.20488 7.844 6.17759C9.02262 6.10432 10.3517 6.03105 11.3996 5.2567C12.3236 4.57429 12.9692 3.38475 13.7343 2.44231C14.7343 3.27988 15.8145 3.912 17.0001 3.96084V3.06725V3.07013Z" fill="#FFC929"/>
<path d="M11.6008 14.4569L12.2028 12.5175L5.18025 9.49622L3.33496 14.4569H11.6008Z" fill="#3A9341"/>
</g>
<path opacity="0.15" d="M4.93115 0.386475V12.7373L8.37419 14.457V2.3202L4.93115 0.386475Z" fill="black"/>
<path opacity="0.15" d="M11.8174 0.386475V12.7373L15.2604 14.457V2.3202L11.8174 0.386475Z" fill="black"/>
<path d="M8.74408 5.99658V7.26801C8.97334 7.26801 9.15899 7.45765 9.15899 7.69182C9.15899 7.92599 8.97334 8.11563 8.74408 8.11563V11.0823L10.1801 8.53944C10.3221 8.28947 10.4023 8.0007 10.4023 7.69182C10.4023 6.75513 9.65969 5.99658 8.74268 5.99658H8.74408Z" fill="#DA0000"/>
<path d="M8.74416 5.99658V7.26801C8.51491 7.26801 8.32926 7.45765 8.32926 7.69182C8.32926 7.92599 8.51491 8.11563 8.74416 8.11563V11.0823L7.30816 8.53944C7.16611 8.28947 7.08594 8.0007 7.08594 7.69182C7.08594 6.75513 7.82855 5.99658 8.74557 5.99658H8.74416Z" fill="#F00000"/>
</svg>
