<svg width="16" height="16" viewBox="0 0 16 16" fill="none" xmlns="http://www.w3.org/2000/svg">
<path d="M13.8526 6.67133C13.6147 5.62533 13.1008 4.66223 12.3643 3.88231C11.6278 3.1024 10.6957 2.53419 9.665 2.23687C8.63433 1.93954 7.54279 1.92397 6.50405 2.19177C5.46531 2.45957 4.51736 3.00095 3.75892 3.75954C3.00047 4.51813 2.45927 5.46617 2.19166 6.50496C1.92405 7.54375 1.93983 8.63528 2.23734 9.6659C2.53486 10.6965 3.10324 11.6285 3.88329 12.3649C4.66334 13.1012 5.62654 13.615 6.67258 13.8527M8.66658 14H13.9999V9.33333" stroke="#C28D3E" stroke-linecap="round" stroke-linejoin="round"/>
<path d="M8 5.33333V7.99999L10 10" stroke="#C28D3E" stroke-linecap="round" stroke-linejoin="round"/>
</svg>
