<svg width="16" height="16" viewBox="0 0 16 16" fill="none" xmlns="http://www.w3.org/2000/svg">
<g clip-path="url(#clip0_452_1717)">
<path d="M12.7259 9.74346C12.6319 9.64942 12.5791 9.52191 12.5791 9.38896C12.5791 9.25601 12.6319 9.1285 12.7259 9.03446L13.6559 8.10446C13.7025 8.0579 13.7578 8.02099 13.8187 7.99582C13.8796 7.97065 13.9448 7.95772 14.0107 7.95776C14.0766 7.95781 14.1418 7.97083 14.2027 7.99609C14.2635 8.02134 14.3188 8.05834 14.3654 8.10496C14.4119 8.15158 14.4488 8.20691 14.474 8.26779C14.4992 8.32868 14.5121 8.39393 14.5121 8.45981C14.512 8.52569 14.499 8.59092 14.4737 8.65177C14.4485 8.71262 14.4115 8.7679 14.3649 8.81446L13.4349 9.74346C13.3408 9.83744 13.2133 9.89023 13.0804 9.89023C12.9474 9.89023 12.8199 9.83744 12.7259 9.74346Z" fill="url(#paint0_radial_452_1717)"/>
<path d="M12.7259 9.74346C12.6319 9.64942 12.5791 9.52191 12.5791 9.38896C12.5791 9.25601 12.6319 9.1285 12.7259 9.03446L13.6559 8.10446C13.7025 8.0579 13.7578 8.02099 13.8187 7.99582C13.8796 7.97065 13.9448 7.95772 14.0107 7.95776C14.0766 7.95781 14.1418 7.97083 14.2027 7.99609C14.2635 8.02134 14.3188 8.05834 14.3654 8.10496C14.4119 8.15158 14.4488 8.20691 14.474 8.26779C14.4992 8.32868 14.5121 8.39393 14.5121 8.45981C14.512 8.52569 14.499 8.59092 14.4737 8.65177C14.4485 8.71262 14.4115 8.7679 14.3649 8.81446L13.4349 9.74346C13.3408 9.83744 13.2133 9.89023 13.0804 9.89023C12.9474 9.89023 12.8199 9.83744 12.7259 9.74346Z" fill="url(#paint1_linear_452_1717)"/>
<path d="M12.7259 9.74346C12.6319 9.64942 12.5791 9.52191 12.5791 9.38896C12.5791 9.25601 12.6319 9.1285 12.7259 9.03446L13.6559 8.10446C13.7025 8.0579 13.7578 8.02099 13.8187 7.99582C13.8796 7.97065 13.9448 7.95772 14.0107 7.95776C14.0766 7.95781 14.1418 7.97083 14.2027 7.99609C14.2635 8.02134 14.3188 8.05834 14.3654 8.10496C14.4119 8.15158 14.4488 8.20691 14.474 8.26779C14.4992 8.32868 14.5121 8.39393 14.5121 8.45981C14.512 8.52569 14.499 8.59092 14.4737 8.65177C14.4485 8.71262 14.4115 8.7679 14.3649 8.81446L13.4349 9.74346C13.3408 9.83744 13.2133 9.89023 13.0804 9.89023C12.9474 9.89023 12.8199 9.83744 12.7259 9.74346Z" fill="url(#paint2_linear_452_1717)"/>
<path d="M6.23003 3.25C6.18342 3.20343 6.14645 3.14812 6.12122 3.08725C6.09599 3.02638 6.08301 2.96114 6.08301 2.89525C6.08301 2.82936 6.09599 2.76411 6.12122 2.70324C6.14645 2.64237 6.18342 2.58707 6.23003 2.5405L7.15953 1.611C7.25362 1.51698 7.3812 1.46419 7.51421 1.46423C7.64722 1.46428 7.77476 1.51716 7.86878 1.61125C7.9628 1.70533 8.01559 1.83292 8.01554 1.96593C8.0155 2.09894 7.96262 2.22648 7.86853 2.3205L6.94003 3.2495C6.89346 3.29611 6.83815 3.33308 6.77728 3.35831C6.71641 3.38354 6.65117 3.39652 6.58528 3.39652C6.51939 3.39652 6.45414 3.38354 6.39327 3.35831C6.3324 3.33308 6.2771 3.29611 6.23053 3.2495" fill="url(#paint3_radial_452_1717)"/>
<path d="M6.23003 3.25C6.18342 3.20343 6.14645 3.14812 6.12122 3.08725C6.09599 3.02638 6.08301 2.96114 6.08301 2.89525C6.08301 2.82936 6.09599 2.76411 6.12122 2.70324C6.14645 2.64237 6.18342 2.58707 6.23003 2.5405L7.15953 1.611C7.25362 1.51698 7.3812 1.46419 7.51421 1.46423C7.64722 1.46428 7.77476 1.51716 7.86878 1.61125C7.9628 1.70533 8.01559 1.83292 8.01554 1.96593C8.0155 2.09894 7.96262 2.22648 7.86853 2.3205L6.94003 3.2495C6.89346 3.29611 6.83815 3.33308 6.77728 3.35831C6.71641 3.38354 6.65117 3.39652 6.58528 3.39652C6.51939 3.39652 6.45414 3.38354 6.39327 3.35831C6.3324 3.33308 6.2771 3.29611 6.23053 3.2495" fill="url(#paint4_linear_452_1717)"/>
<path d="M6.23003 3.25C6.18342 3.20343 6.14645 3.14812 6.12122 3.08725C6.09599 3.02638 6.08301 2.96114 6.08301 2.89525C6.08301 2.82936 6.09599 2.76411 6.12122 2.70324C6.14645 2.64237 6.18342 2.58707 6.23003 2.5405L7.15953 1.611C7.25362 1.51698 7.3812 1.46419 7.51421 1.46423C7.64722 1.46428 7.77476 1.51716 7.86878 1.61125C7.9628 1.70533 8.01559 1.83292 8.01554 1.96593C8.0155 2.09894 7.96262 2.22648 7.86853 2.3205L6.94003 3.2495C6.89346 3.29611 6.83815 3.33308 6.77728 3.35831C6.71641 3.38354 6.65117 3.39652 6.58528 3.39652C6.51939 3.39652 6.45414 3.38354 6.39327 3.35831C6.3324 3.33308 6.2771 3.29611 6.23053 3.2495" fill="url(#paint5_linear_452_1717)"/>
<g filter="url(#filter0_ii_452_1717)">
<path d="M8.63338 6.28998L3.48188 3.46498C3.27899 3.35326 3.12322 3.1721 3.04317 2.95476C2.96312 2.73742 2.96417 2.4985 3.04613 2.28187C3.12808 2.06524 3.28545 1.88546 3.48931 1.77553C3.69317 1.66561 3.92985 1.63292 4.15588 1.68348L10.6569 3.14848L8.63338 6.28998Z" fill="#4282DA"/>
<path d="M8.63338 6.28998L3.48188 3.46498C3.27899 3.35326 3.12322 3.1721 3.04317 2.95476C2.96312 2.73742 2.96417 2.4985 3.04613 2.28187C3.12808 2.06524 3.28545 1.88546 3.48931 1.77553C3.69317 1.66561 3.92985 1.63292 4.15588 1.68348L10.6569 3.14848L8.63338 6.28998Z" fill="url(#paint6_linear_452_1717)"/>
</g>
<g filter="url(#filter1_ii_452_1717)">
<path d="M9.68799 7.34504L12.512 12.4955C12.6235 12.6987 12.8046 12.8549 13.0221 12.9352C13.2395 13.0155 13.4786 13.0146 13.6954 12.9326C13.9123 12.8507 14.0922 12.6932 14.2022 12.4891C14.3122 12.2851 14.3448 12.0482 14.294 11.822L12.829 5.32104L9.68799 7.34504Z" fill="#4282DA"/>
<path d="M9.68799 7.34504L12.512 12.4955C12.6235 12.6987 12.8046 12.8549 13.0221 12.9352C13.2395 13.0155 13.4786 13.0146 13.6954 12.9326C13.9123 12.8507 14.0922 12.6932 14.2022 12.4891C14.3122 12.2851 14.3448 12.0482 14.294 11.822L12.829 5.32104L9.68799 7.34504Z" fill="url(#paint7_linear_452_1717)"/>
</g>
<g filter="url(#filter2_ii_452_1717)">
<path d="M4.02354 9.3515C4.0947 9.37137 4.16998 9.37115 4.24103 9.35085C4.31208 9.33055 4.37611 9.29097 4.42604 9.2365L11.361 1.6785C11.5528 1.47171 11.7844 1.30576 12.0418 1.19062C12.2993 1.07547 12.5773 1.01349 12.8593 1.0084C13.1413 1.0033 13.4214 1.05519 13.6828 1.16096C13.9443 1.26673 14.1817 1.42419 14.3808 1.62392C14.5799 1.82365 14.7367 2.06152 14.8416 2.32329C14.9466 2.58505 14.9976 2.86532 14.9917 3.14728C14.9857 3.42925 14.9229 3.70711 14.807 3.96421C14.6911 4.22131 14.5244 4.45235 14.317 4.6435L6.70004 11.59C6.64457 11.6405 6.60442 11.7056 6.58417 11.7778C6.56392 11.85 6.5644 11.9265 6.58554 11.9985L7.23804 14.224C7.27136 14.3377 7.26589 14.4593 7.22248 14.5695C7.17908 14.6797 7.10021 14.7724 6.99832 14.8329C6.89642 14.8933 6.7773 14.9181 6.65974 14.9034C6.54217 14.8887 6.43286 14.8352 6.34904 14.7515L1.20254 9.612C1.09863 9.50807 1.03766 9.36884 1.03173 9.222C1.0258 9.07516 1.07535 8.93147 1.17054 8.8195C1.22489 8.75579 1.29629 8.70892 1.37636 8.68439C1.45642 8.65985 1.54183 8.65868 1.62254 8.681L4.02354 9.3515Z" fill="url(#paint8_linear_452_1717)"/>
</g>
<path d="M4.02354 9.3515C4.0947 9.37137 4.16998 9.37115 4.24103 9.35085C4.31208 9.33055 4.37611 9.29097 4.42604 9.2365L11.361 1.6785C11.5528 1.47171 11.7844 1.30576 12.0418 1.19062C12.2993 1.07547 12.5773 1.01349 12.8593 1.0084C13.1413 1.0033 13.4214 1.05519 13.6828 1.16096C13.9443 1.26673 14.1817 1.42419 14.3808 1.62392C14.5799 1.82365 14.7367 2.06152 14.8416 2.32329C14.9466 2.58505 14.9976 2.86532 14.9917 3.14728C14.9857 3.42925 14.9229 3.70711 14.807 3.96421C14.6911 4.22131 14.5244 4.45235 14.317 4.6435L6.70004 11.59C6.64457 11.6405 6.60442 11.7056 6.58417 11.7778C6.56392 11.85 6.5644 11.9265 6.58554 11.9985L7.23804 14.224C7.27136 14.3377 7.26589 14.4593 7.22248 14.5695C7.17908 14.6797 7.10021 14.7724 6.99832 14.8329C6.89642 14.8933 6.7773 14.9181 6.65974 14.9034C6.54217 14.8887 6.43286 14.8352 6.34904 14.7515L1.20254 9.612C1.09863 9.50807 1.03766 9.36884 1.03173 9.222C1.0258 9.07516 1.07535 8.93147 1.17054 8.8195C1.22489 8.75579 1.29629 8.70892 1.37636 8.68439C1.45642 8.65985 1.54183 8.65868 1.62254 8.681L4.02354 9.3515Z" fill="url(#paint9_linear_452_1717)"/>
<path d="M4.02354 9.3515C4.0947 9.37137 4.16998 9.37115 4.24103 9.35085C4.31208 9.33055 4.37611 9.29097 4.42604 9.2365L11.361 1.6785C11.5528 1.47171 11.7844 1.30576 12.0418 1.19062C12.2993 1.07547 12.5773 1.01349 12.8593 1.0084C13.1413 1.0033 13.4214 1.05519 13.6828 1.16096C13.9443 1.26673 14.1817 1.42419 14.3808 1.62392C14.5799 1.82365 14.7367 2.06152 14.8416 2.32329C14.9466 2.58505 14.9976 2.86532 14.9917 3.14728C14.9857 3.42925 14.9229 3.70711 14.807 3.96421C14.6911 4.22131 14.5244 4.45235 14.317 4.6435L6.70004 11.59C6.64457 11.6405 6.60442 11.7056 6.58417 11.7778C6.56392 11.85 6.5644 11.9265 6.58554 11.9985L7.23804 14.224C7.27136 14.3377 7.26589 14.4593 7.22248 14.5695C7.17908 14.6797 7.10021 14.7724 6.99832 14.8329C6.89642 14.8933 6.7773 14.9181 6.65974 14.9034C6.54217 14.8887 6.43286 14.8352 6.34904 14.7515L1.20254 9.612C1.09863 9.50807 1.03766 9.36884 1.03173 9.222C1.0258 9.07516 1.07535 8.93147 1.17054 8.8195C1.22489 8.75579 1.29629 8.70892 1.37636 8.68439C1.45642 8.65985 1.54183 8.65868 1.62254 8.681L4.02354 9.3515Z" fill="url(#paint10_radial_452_1717)"/>
<path d="M4.02354 9.3515C4.0947 9.37137 4.16998 9.37115 4.24103 9.35085C4.31208 9.33055 4.37611 9.29097 4.42604 9.2365L11.361 1.6785C11.5528 1.47171 11.7844 1.30576 12.0418 1.19062C12.2993 1.07547 12.5773 1.01349 12.8593 1.0084C13.1413 1.0033 13.4214 1.05519 13.6828 1.16096C13.9443 1.26673 14.1817 1.42419 14.3808 1.62392C14.5799 1.82365 14.7367 2.06152 14.8416 2.32329C14.9466 2.58505 14.9976 2.86532 14.9917 3.14728C14.9857 3.42925 14.9229 3.70711 14.807 3.96421C14.6911 4.22131 14.5244 4.45235 14.317 4.6435L6.70004 11.59C6.64457 11.6405 6.60442 11.7056 6.58417 11.7778C6.56392 11.85 6.5644 11.9265 6.58554 11.9985L7.23804 14.224C7.27136 14.3377 7.26589 14.4593 7.22248 14.5695C7.17908 14.6797 7.10021 14.7724 6.99832 14.8329C6.89642 14.8933 6.7773 14.9181 6.65974 14.9034C6.54217 14.8887 6.43286 14.8352 6.34904 14.7515L1.20254 9.612C1.09863 9.50807 1.03766 9.36884 1.03173 9.222C1.0258 9.07516 1.07535 8.93147 1.17054 8.8195C1.22489 8.75579 1.29629 8.70892 1.37636 8.68439C1.45642 8.65985 1.54183 8.65868 1.62254 8.681L4.02354 9.3515Z" fill="url(#paint11_radial_452_1717)"/>
<path d="M4.02354 9.3515C4.0947 9.37137 4.16998 9.37115 4.24103 9.35085C4.31208 9.33055 4.37611 9.29097 4.42604 9.2365L11.361 1.6785C11.5528 1.47171 11.7844 1.30576 12.0418 1.19062C12.2993 1.07547 12.5773 1.01349 12.8593 1.0084C13.1413 1.0033 13.4214 1.05519 13.6828 1.16096C13.9443 1.26673 14.1817 1.42419 14.3808 1.62392C14.5799 1.82365 14.7367 2.06152 14.8416 2.32329C14.9466 2.58505 14.9976 2.86532 14.9917 3.14728C14.9857 3.42925 14.9229 3.70711 14.807 3.96421C14.6911 4.22131 14.5244 4.45235 14.317 4.6435L6.70004 11.59C6.64457 11.6405 6.60442 11.7056 6.58417 11.7778C6.56392 11.85 6.5644 11.9265 6.58554 11.9985L7.23804 14.224C7.27136 14.3377 7.26589 14.4593 7.22248 14.5695C7.17908 14.6797 7.10021 14.7724 6.99832 14.8329C6.89642 14.8933 6.7773 14.9181 6.65974 14.9034C6.54217 14.8887 6.43286 14.8352 6.34904 14.7515L1.20254 9.612C1.09863 9.50807 1.03766 9.36884 1.03173 9.222C1.0258 9.07516 1.07535 8.93147 1.17054 8.8195C1.22489 8.75579 1.29629 8.70892 1.37636 8.68439C1.45642 8.65985 1.54183 8.65868 1.62254 8.681L4.02354 9.3515Z" fill="url(#paint12_radial_452_1717)"/>
<path d="M4.02354 9.3515C4.0947 9.37137 4.16998 9.37115 4.24103 9.35085C4.31208 9.33055 4.37611 9.29097 4.42604 9.2365L11.361 1.6785C11.5528 1.47171 11.7844 1.30576 12.0418 1.19062C12.2993 1.07547 12.5773 1.01349 12.8593 1.0084C13.1413 1.0033 13.4214 1.05519 13.6828 1.16096C13.9443 1.26673 14.1817 1.42419 14.3808 1.62392C14.5799 1.82365 14.7367 2.06152 14.8416 2.32329C14.9466 2.58505 14.9976 2.86532 14.9917 3.14728C14.9857 3.42925 14.9229 3.70711 14.807 3.96421C14.6911 4.22131 14.5244 4.45235 14.317 4.6435L6.70004 11.59C6.64457 11.6405 6.60442 11.7056 6.58417 11.7778C6.56392 11.85 6.5644 11.9265 6.58554 11.9985L7.23804 14.224C7.27136 14.3377 7.26589 14.4593 7.22248 14.5695C7.17908 14.6797 7.10021 14.7724 6.99832 14.8329C6.89642 14.8933 6.7773 14.9181 6.65974 14.9034C6.54217 14.8887 6.43286 14.8352 6.34904 14.7515L1.20254 9.612C1.09863 9.50807 1.03766 9.36884 1.03173 9.222C1.0258 9.07516 1.07535 8.93147 1.17054 8.8195C1.22489 8.75579 1.29629 8.70892 1.37636 8.68439C1.45642 8.65985 1.54183 8.65868 1.62254 8.681L4.02354 9.3515Z" fill="url(#paint13_radial_452_1717)"/>
<g filter="url(#filter3_i_452_1717)">
<path d="M13.9871 2.95071L13.0155 1.97915C12.9085 1.87214 12.735 1.87214 12.628 1.97915C12.521 2.08615 12.521 2.25964 12.628 2.36664L13.5996 3.33821C13.7066 3.44521 13.8801 3.44521 13.9871 3.33821C14.0941 3.2312 14.0941 3.05772 13.9871 2.95071Z" fill="#48DBFF"/>
</g>
<path d="M4.54649 10.5789L2.72003 12.4053C2.49118 12.6342 2.49118 13.0052 2.72003 13.2341C2.94888 13.4629 3.31991 13.4629 3.54876 13.2341L5.37521 11.4076C5.60406 11.1788 5.60406 10.8077 5.37521 10.5789C5.14637 10.35 4.77533 10.35 4.54649 10.5789Z" fill="url(#paint14_radial_452_1717)"/>
<path d="M4.54649 10.5789L2.72003 12.4053C2.49118 12.6342 2.49118 13.0052 2.72003 13.2341C2.94888 13.4629 3.31991 13.4629 3.54876 13.2341L5.37521 11.4076C5.60406 11.1788 5.60406 10.8077 5.37521 10.5789C5.14637 10.35 4.77533 10.35 4.54649 10.5789Z" fill="url(#paint15_linear_452_1717)"/>
<path d="M4.54649 10.5789L2.72003 12.4053C2.49118 12.6342 2.49118 13.0052 2.72003 13.2341C2.94888 13.4629 3.31991 13.4629 3.54876 13.2341L5.37521 11.4076C5.60406 11.1788 5.60406 10.8077 5.37521 10.5789C5.14637 10.35 4.77533 10.35 4.54649 10.5789Z" fill="url(#paint16_radial_452_1717)"/>
<g filter="url(#filter4_f_452_1717)">
<path d="M1.6958 9.12598L4.2428 9.90698" stroke="#B3ADB8" stroke-width="0.25" stroke-linecap="round"/>
</g>
<g filter="url(#filter5_f_452_1717)">
<path d="M6.0708 11.657L6.9303 14.3135" stroke="#D1C7DB" stroke-width="0.25" stroke-linecap="round"/>
</g>
</g>
<defs>
<filter id="filter0_ii_452_1717" x="2.98389" y="1.36028" width="7.82285" height="5.17976" filterUnits="userSpaceOnUse" color-interpolation-filters="sRGB">
<feFlood flood-opacity="0" result="BackgroundImageFix"/>
<feBlend mode="normal" in="SourceGraphic" in2="BackgroundImageFix" result="shape"/>
<feColorMatrix in="SourceAlpha" type="matrix" values="0 0 0 0 0 0 0 0 0 0 0 0 0 0 0 0 0 0 127 0" result="hardAlpha"/>
<feOffset dy="0.25"/>
<feGaussianBlur stdDeviation="0.1875"/>
<feComposite in2="hardAlpha" operator="arithmetic" k2="-1" k3="1"/>
<feColorMatrix type="matrix" values="0 0 0 0 0.258824 0 0 0 0 0.619608 0 0 0 0 0.901961 0 0 0 1 0"/>
<feBlend mode="normal" in2="shape" result="effect1_innerShadow_452_1717"/>
<feColorMatrix in="SourceAlpha" type="matrix" values="0 0 0 0 0 0 0 0 0 0 0 0 0 0 0 0 0 0 127 0" result="hardAlpha"/>
<feOffset dx="0.15" dy="-0.3"/>
<feGaussianBlur stdDeviation="0.1875"/>
<feComposite in2="hardAlpha" operator="arithmetic" k2="-1" k3="1"/>
<feColorMatrix type="matrix" values="0 0 0 0 0.270588 0 0 0 0 0.352941 0 0 0 0 0.752941 0 0 0 1 0"/>
<feBlend mode="normal" in2="effect1_innerShadow_452_1717" result="effect2_innerShadow_452_1717"/>
</filter>
<filter id="filter1_ii_452_1717" x="9.68799" y="5.02104" width="4.77939" height="8.47371" filterUnits="userSpaceOnUse" color-interpolation-filters="sRGB">
<feFlood flood-opacity="0" result="BackgroundImageFix"/>
<feBlend mode="normal" in="SourceGraphic" in2="BackgroundImageFix" result="shape"/>
<feColorMatrix in="SourceAlpha" type="matrix" values="0 0 0 0 0 0 0 0 0 0 0 0 0 0 0 0 0 0 127 0" result="hardAlpha"/>
<feOffset dy="0.5"/>
<feGaussianBlur stdDeviation="0.3125"/>
<feComposite in2="hardAlpha" operator="arithmetic" k2="-1" k3="1"/>
<feColorMatrix type="matrix" values="0 0 0 0 0.34902 0 0 0 0 0.784314 0 0 0 0 1 0 0 0 1 0"/>
<feBlend mode="normal" in2="shape" result="effect1_innerShadow_452_1717"/>
<feColorMatrix in="SourceAlpha" type="matrix" values="0 0 0 0 0 0 0 0 0 0 0 0 0 0 0 0 0 0 127 0" result="hardAlpha"/>
<feOffset dx="0.15" dy="-0.3"/>
<feGaussianBlur stdDeviation="0.1875"/>
<feComposite in2="hardAlpha" operator="arithmetic" k2="-1" k3="1"/>
<feColorMatrix type="matrix" values="0 0 0 0 0.270588 0 0 0 0 0.352941 0 0 0 0 0.752941 0 0 0 1 0"/>
<feBlend mode="normal" in2="effect1_innerShadow_452_1717" result="effect2_innerShadow_452_1717"/>
</filter>
<filter id="filter2_ii_452_1717" x="0.53125" y="0.758057" width="14.9609" height="14.3995" filterUnits="userSpaceOnUse" color-interpolation-filters="sRGB">
<feFlood flood-opacity="0" result="BackgroundImageFix"/>
<feBlend mode="normal" in="SourceGraphic" in2="BackgroundImageFix" result="shape"/>
<feColorMatrix in="SourceAlpha" type="matrix" values="0 0 0 0 0 0 0 0 0 0 0 0 0 0 0 0 0 0 127 0" result="hardAlpha"/>
<feOffset dx="0.5" dy="0.25"/>
<feGaussianBlur stdDeviation="0.5"/>
<feComposite in2="hardAlpha" operator="arithmetic" k2="-1" k3="1"/>
<feColorMatrix type="matrix" values="0 0 0 0 0.486275 0 0 0 0 0.482353 0 0 0 0 0.490196 0 0 0 1 0"/>
<feBlend mode="normal" in2="shape" result="effect1_innerShadow_452_1717"/>
<feColorMatrix in="SourceAlpha" type="matrix" values="0 0 0 0 0 0 0 0 0 0 0 0 0 0 0 0 0 0 127 0" result="hardAlpha"/>
<feOffset dx="-0.5" dy="-0.25"/>
<feGaussianBlur stdDeviation="0.5"/>
<feComposite in2="hardAlpha" operator="arithmetic" k2="-1" k3="1"/>
<feColorMatrix type="matrix" values="0 0 0 0 0.760784 0 0 0 0 0.639216 0 0 0 0 0.858824 0 0 0 1 0"/>
<feBlend mode="normal" in2="effect1_innerShadow_452_1717" result="effect2_innerShadow_452_1717"/>
</filter>
<filter id="filter3_i_452_1717" x="12.3479" y="1.89893" width="1.71953" height="1.71953" filterUnits="userSpaceOnUse" color-interpolation-filters="sRGB">
<feFlood flood-opacity="0" result="BackgroundImageFix"/>
<feBlend mode="normal" in="SourceGraphic" in2="BackgroundImageFix" result="shape"/>
<feColorMatrix in="SourceAlpha" type="matrix" values="0 0 0 0 0 0 0 0 0 0 0 0 0 0 0 0 0 0 127 0" result="hardAlpha"/>
<feOffset dx="-0.2" dy="0.2"/>
<feGaussianBlur stdDeviation="0.1"/>
<feComposite in2="hardAlpha" operator="arithmetic" k2="-1" k3="1"/>
<feColorMatrix type="matrix" values="0 0 0 0 0.0823529 0 0 0 0 0.447059 0 0 0 0 0.792157 0 0 0 1 0"/>
<feBlend mode="normal" in2="shape" result="effect1_innerShadow_452_1717"/>
</filter>
<filter id="filter4_f_452_1717" x="1.0708" y="8.50098" width="3.79688" height="2.03101" filterUnits="userSpaceOnUse" color-interpolation-filters="sRGB">
<feFlood flood-opacity="0" result="BackgroundImageFix"/>
<feBlend mode="normal" in="SourceGraphic" in2="BackgroundImageFix" result="shape"/>
<feGaussianBlur stdDeviation="0.25" result="effect1_foregroundBlur_452_1717"/>
</filter>
<filter id="filter5_f_452_1717" x="5.4458" y="11.032" width="2.10938" height="3.90649" filterUnits="userSpaceOnUse" color-interpolation-filters="sRGB">
<feFlood flood-opacity="0" result="BackgroundImageFix"/>
<feBlend mode="normal" in="SourceGraphic" in2="BackgroundImageFix" result="shape"/>
<feGaussianBlur stdDeviation="0.25" result="effect1_foregroundBlur_452_1717"/>
</filter>
<radialGradient id="paint0_radial_452_1717" cx="0" cy="0" r="1" gradientUnits="userSpaceOnUse" gradientTransform="translate(14.5115 8.29905) rotate(135) scale(1.70652 0.64974)">
<stop offset="0.233" stop-color="#86848F"/>
<stop offset="1" stop-color="#5A5C5E"/>
</radialGradient>
<linearGradient id="paint1_linear_452_1717" x1="14.2464" y1="8.99846" x2="13.9929" y2="8.76646" gradientUnits="userSpaceOnUse">
<stop stop-color="#7C758F"/>
<stop offset="1" stop-color="#7C758F" stop-opacity="0"/>
</linearGradient>
<linearGradient id="paint2_linear_452_1717" x1="14.5114" y1="8.05696" x2="14.1449" y2="8.44746" gradientUnits="userSpaceOnUse">
<stop offset="0.205" stop-color="#B3B2B4"/>
<stop offset="1" stop-color="#B3B2B4" stop-opacity="0"/>
</linearGradient>
<radialGradient id="paint3_radial_452_1717" cx="0" cy="0" r="1" gradientUnits="userSpaceOnUse" gradientTransform="translate(8.01597 1.80569) rotate(135) scale(1.70652 0.789495)">
<stop offset="0.233" stop-color="#86848F"/>
<stop offset="1" stop-color="#5A5C5E"/>
</radialGradient>
<linearGradient id="paint4_linear_452_1717" x1="7.75053" y1="2.505" x2="7.62953" y2="2.3835" gradientUnits="userSpaceOnUse">
<stop stop-color="#7C758F"/>
<stop offset="1" stop-color="#7C758F" stop-opacity="0"/>
</linearGradient>
<linearGradient id="paint5_linear_452_1717" x1="8.01553" y1="1.5635" x2="7.64903" y2="1.954" gradientUnits="userSpaceOnUse">
<stop offset="0.205" stop-color="#B3B2B4"/>
<stop offset="1" stop-color="#B3B2B4" stop-opacity="0"/>
</linearGradient>
<linearGradient id="paint6_linear_452_1717" x1="9.00838" y1="4.87598" x2="8.48488" y2="4.35248" gradientUnits="userSpaceOnUse">
<stop offset="0.104" stop-color="#256198"/>
<stop offset="1" stop-color="#256198" stop-opacity="0"/>
</linearGradient>
<linearGradient id="paint7_linear_452_1717" x1="11.3365" y1="6.95404" x2="11.6805" y2="7.32904" gradientUnits="userSpaceOnUse">
<stop stop-color="#256198"/>
<stop offset="1" stop-color="#256198" stop-opacity="0"/>
</linearGradient>
<linearGradient id="paint8_linear_452_1717" x1="11.4715" y1="4.424" x2="2.59204" y2="12.943" gradientUnits="userSpaceOnUse">
<stop stop-color="#CBBCD8"/>
<stop offset="1" stop-color="#B1A1D1"/>
</linearGradient>
<linearGradient id="paint9_linear_452_1717" x1="3.60754" y1="12.255" x2="4.14804" y2="11.714" gradientUnits="userSpaceOnUse">
<stop stop-color="#9871C0"/>
<stop offset="1" stop-color="#9871C0" stop-opacity="0"/>
</linearGradient>
<radialGradient id="paint10_radial_452_1717" cx="0" cy="0" r="1" gradientUnits="userSpaceOnUse" gradientTransform="translate(1.03104 8.951) rotate(15.5742) scale(0.397972 0.948149)">
<stop stop-color="#76707B"/>
<stop offset="1" stop-color="#76707B" stop-opacity="0"/>
</radialGradient>
<radialGradient id="paint11_radial_452_1717" cx="0" cy="0" r="1" gradientUnits="userSpaceOnUse" gradientTransform="translate(3.75875 11.5167) rotate(153.435) scale(1.88668 0.830105)">
<stop offset="0.129" stop-color="#5F677B"/>
<stop offset="1" stop-color="#5F677B" stop-opacity="0"/>
</radialGradient>
<radialGradient id="paint12_radial_452_1717" cx="0" cy="0" r="1" gradientUnits="userSpaceOnUse" gradientTransform="translate(4.49304 10.548) rotate(-88.5312) scale(2.4383 0.547095)">
<stop stop-color="#7D7D8A"/>
<stop offset="1" stop-color="#7D7D8A" stop-opacity="0"/>
</radialGradient>
<radialGradient id="paint13_radial_452_1717" cx="0" cy="0" r="1" gradientUnits="userSpaceOnUse" gradientTransform="translate(15.18 1.76698) rotate(143.13) scale(3.4375 3.322)">
<stop offset="0.175" stop-color="#EDEBEE"/>
<stop offset="1" stop-color="#EDEBEE" stop-opacity="0"/>
</radialGradient>
<radialGradient id="paint14_radial_452_1717" cx="0" cy="0" r="1" gradientUnits="userSpaceOnUse" gradientTransform="translate(4.97711 10.9544) rotate(134.772) scale(2.77321 2.02764)">
<stop stop-color="#4DC0FF"/>
<stop offset="1" stop-color="#4763E6"/>
</radialGradient>
<linearGradient id="paint15_linear_452_1717" x1="3.48476" y1="11.345" x2="3.80544" y2="11.6183" gradientUnits="userSpaceOnUse">
<stop stop-color="#3F618F"/>
<stop offset="1" stop-color="#3F618F" stop-opacity="0"/>
</linearGradient>
<radialGradient id="paint16_radial_452_1717" cx="0" cy="0" r="1" gradientUnits="userSpaceOnUse" gradientTransform="translate(3.2143 13.6484) rotate(-88.6212) scale(0.681053 1.52413)">
<stop stop-color="#847FFF"/>
<stop offset="1" stop-color="#847FFF" stop-opacity="0"/>
</radialGradient>
<clipPath id="clip0_452_1717">
<rect width="16" height="16" fill="white"/>
</clipPath>
</defs>
</svg>
