<svg width="21" height="20" viewBox="0 0 21 20" fill="none" xmlns="http://www.w3.org/2000/svg">
<path d="M16.3335 2.5C15.9461 2.50226 15.5645 2.59453 15.2189 2.76952C14.8732 2.94451 14.573 3.19743 14.3418 3.50833C13.5578 3.35079 12.7571 3.292 11.9585 3.33333L12.0668 5C12.6579 4.96996 13.2505 5.0063 13.8335 5.10833C13.8547 5.59761 14.0192 6.06988 14.3065 6.46651C14.5937 6.86314 14.9912 7.16665 15.4495 7.33937C15.9077 7.51208 16.4066 7.5464 16.8842 7.43805C17.3618 7.32969 17.7971 7.08345 18.136 6.72989C18.4749 6.37632 18.7024 5.93102 18.7904 5.44925C18.8784 4.96748 18.823 4.47048 18.631 4.01994C18.439 3.5694 18.1189 3.18517 17.7105 2.91496C17.302 2.64475 16.8232 2.50046 16.3335 2.5ZM16.3335 5.83333C16.1687 5.83333 16.0075 5.78446 15.8705 5.69289C15.7335 5.60132 15.6267 5.47117 15.5636 5.3189C15.5005 5.16663 15.484 4.99908 15.5162 4.83742C15.5483 4.67577 15.6277 4.52729 15.7442 4.41074C15.8608 4.2942 16.0093 4.21483 16.1709 4.18268C16.3326 4.15052 16.5001 4.16703 16.6524 4.2301C16.8047 4.29317 16.9348 4.39998 17.0264 4.53702C17.1179 4.67407 17.1668 4.83518 17.1668 5C17.1668 5.22101 17.079 5.43298 16.9227 5.58926C16.7665 5.74554 16.5545 5.83333 16.3335 5.83333ZM7.88348 6.55L6.89182 5.20833C7.87369 4.48222 8.9853 3.95045 10.1668 3.64167L10.5835 5.25833C9.60954 5.51329 8.69316 5.95168 7.88348 6.55ZM18.0001 15C18.0034 15.4021 17.9096 15.799 17.7267 16.1571C17.5438 16.5152 17.2772 16.8239 16.9496 17.057C16.622 17.2901 16.243 17.4408 15.8447 17.4962C15.4465 17.5516 15.0407 17.5101 14.6619 17.3753C14.2831 17.2404 13.9424 17.0162 13.6687 16.7217C13.395 16.4271 13.1964 16.0708 13.0898 15.6832C12.9831 15.2955 12.9716 14.8878 13.0561 14.4947C13.1405 14.1016 13.3186 13.7346 13.5751 13.425C12.7941 12.6694 11.8655 12.0832 10.8474 11.7032C9.82923 11.3232 8.7436 11.1575 7.65848 11.2167C7.47515 11.225 7.30015 11.25 7.11682 11.2833C7.03506 11.7297 6.83333 12.1455 6.53326 12.486C6.23318 12.8264 5.84609 13.0788 5.41348 13.216C4.98088 13.3532 4.51909 13.3701 4.07764 13.2648C3.63619 13.1594 3.23173 12.936 2.90764 12.6183C2.58355 12.3006 2.35205 11.9006 2.23798 11.4614C2.1239 11.0221 2.13155 10.5601 2.26011 10.1248C2.38867 9.68957 2.63328 9.29752 2.96771 8.99073C3.30215 8.68393 3.71379 8.47396 4.15848 8.38333C4.53261 7.67276 4.99456 7.01202 5.53348 6.41667L6.75015 7.55C6.439 7.89909 6.16008 8.27563 5.91682 8.675C6.30817 8.90505 6.63052 9.23603 6.85015 9.63333C7.09182 9.58333 7.32515 9.58333 7.58348 9.55C8.97069 9.47612 10.3573 9.7055 11.6468 10.2222C12.9363 10.7388 14.0977 11.5304 15.0501 12.5417C15.1986 12.5142 15.3492 12.5003 15.5001 12.5C16.1632 12.5 16.7991 12.7634 17.2679 13.2322C17.7368 13.7011 18.0001 14.337 18.0001 15Z" fill="#888888" fill-opacity="0.5"/>
</svg>
