<svg width="20" height="20" viewBox="0 0 20 20" fill="none" xmlns="http://www.w3.org/2000/svg">
<path d="M15.8332 2.5C15.4458 2.50226 15.0642 2.59453 14.7186 2.76952C14.373 2.94451 14.0727 3.19743 13.8416 3.50833C13.0575 3.35079 12.2569 3.292 11.4582 3.33333L11.5666 5C12.1577 4.96996 12.7503 5.0063 13.3332 5.10833C13.3545 5.59761 13.5189 6.06988 13.8062 6.46651C14.0935 6.86314 14.4909 7.16665 14.9492 7.33937C15.4075 7.51208 15.9064 7.5464 16.384 7.43805C16.8616 7.32969 17.2969 7.08345 17.6357 6.72989C17.9746 6.37632 18.2022 5.93102 18.2902 5.44925C18.3782 4.96748 18.3228 4.47048 18.1308 4.01994C17.9388 3.5694 17.6187 3.18517 17.2102 2.91496C16.8018 2.64475 16.323 2.50046 15.8332 2.5ZM15.8332 5.83333C15.6684 5.83333 15.5073 5.78446 15.3703 5.69289C15.2332 5.60132 15.1264 5.47117 15.0633 5.3189C15.0003 5.16663 14.9838 4.99908 15.0159 4.83742C15.0481 4.67577 15.1274 4.52729 15.244 4.41074C15.3605 4.2942 15.509 4.21483 15.6707 4.18268C15.8323 4.15052 15.9999 4.16703 16.1521 4.2301C16.3044 4.29317 16.4346 4.39998 16.5261 4.53702C16.6177 4.67407 16.6666 4.83518 16.6666 5C16.6666 5.22101 16.5788 5.43298 16.4225 5.58926C16.2662 5.74554 16.0543 5.83333 15.8332 5.83333ZM7.38324 6.55L6.39157 5.20833C7.37345 4.48222 8.48506 3.95045 9.66657 3.64167L10.0832 5.25833C9.1093 5.51329 8.19292 5.95168 7.38324 6.55ZM17.4999 15C17.5031 15.4021 17.4093 15.799 17.2264 16.1571C17.0435 16.5152 16.777 16.8239 16.4494 17.057C16.1217 17.2901 15.7427 17.4408 15.3445 17.4962C14.9462 17.5516 14.5405 17.5101 14.1617 17.3753C13.7829 17.2404 13.4422 17.0162 13.1685 16.7217C12.8948 16.4271 12.6962 16.0708 12.5895 15.6832C12.4829 15.2955 12.4713 14.8878 12.5558 14.4947C12.6403 14.1016 12.8184 13.7346 13.0749 13.425C12.2939 12.6694 11.3652 12.0832 10.3471 11.7032C9.32899 11.3232 8.24335 11.1575 7.15824 11.2167C6.97491 11.225 6.79991 11.25 6.61657 11.2833C6.53482 11.7297 6.33309 12.1455 6.03301 12.486C5.73294 12.8264 5.34584 13.0788 4.91324 13.216C4.48064 13.3532 4.01885 13.3701 3.5774 13.2648C3.13594 13.1594 2.73148 12.936 2.40739 12.6183C2.0833 12.3006 1.85181 11.9006 1.73773 11.4614C1.62366 11.0221 1.63131 10.5601 1.75987 10.1248C1.88842 9.68957 2.13304 9.29752 2.46747 8.99073C2.8019 8.68393 3.21354 8.47396 3.65824 8.38333C4.03236 7.67276 4.49432 7.01202 5.03324 6.41667L6.24991 7.55C5.93876 7.89909 5.65984 8.27563 5.41657 8.675C5.80793 8.90505 6.13028 9.23603 6.34991 9.63333C6.59157 9.58333 6.82491 9.58333 7.08324 9.55C8.47044 9.47612 9.85708 9.7055 11.1466 10.2222C12.4361 10.7388 13.5975 11.5304 14.5499 12.5417C14.6983 12.5142 14.849 12.5003 14.9999 12.5C15.6629 12.5 16.2988 12.7634 16.7677 13.2322C17.2365 13.7011 17.4999 14.337 17.4999 15Z" fill="#C28D3E"/>
</svg>
