<svg width="20" height="20" viewBox="0 0 20 20" fill="none" xmlns="http://www.w3.org/2000/svg">
<path d="M6.66683 10.8333C6.44582 10.8333 6.23385 10.7455 6.07757 10.5893C5.92129 10.433 5.8335 10.221 5.8335 10C5.8335 9.779 5.92129 9.56703 6.07757 9.41075C6.23385 9.25447 6.44582 9.16668 6.66683 9.16668C6.88784 9.16668 7.0998 9.25447 7.25608 9.41075C7.41237 9.56703 7.50016 9.779 7.50016 10C7.50016 10.221 7.41237 10.433 7.25608 10.5893C7.0998 10.7455 6.88784 10.8333 6.66683 10.8333ZM6.66683 14.1667C6.44582 14.1667 6.23385 14.0789 6.07757 13.9226C5.92129 13.7663 5.8335 13.5544 5.8335 13.3333C5.8335 13.1123 5.92129 12.9004 6.07757 12.7441C6.23385 12.5878 6.44582 12.5 6.66683 12.5C6.88784 12.5 7.0998 12.5878 7.25608 12.7441C7.41237 12.9004 7.50016 13.1123 7.50016 13.3333C7.50016 13.5544 7.41237 13.7663 7.25608 13.9226C7.0998 14.0789 6.88784 14.1667 6.66683 14.1667ZM9.16683 13.3333C9.16683 13.5544 9.25463 13.7663 9.41091 13.9226C9.56719 14.0789 9.77915 14.1667 10.0002 14.1667C10.2212 14.1667 10.4331 14.0789 10.5894 13.9226C10.7457 13.7663 10.8335 13.5544 10.8335 13.3333C10.8335 13.1123 10.7457 12.9004 10.5894 12.7441C10.4331 12.5878 10.2212 12.5 10.0002 12.5C9.77915 12.5 9.56719 12.5878 9.41091 12.7441C9.25463 12.9004 9.16683 13.1123 9.16683 13.3333ZM13.3335 14.1667C13.1125 14.1667 12.9005 14.0789 12.7442 13.9226C12.588 13.7663 12.5002 13.5544 12.5002 13.3333C12.5002 13.1123 12.588 12.9004 12.7442 12.7441C12.9005 12.5878 13.1125 12.5 13.3335 12.5C13.5545 12.5 13.7665 12.5878 13.9228 12.7441C14.079 12.9004 14.1668 13.1123 14.1668 13.3333C14.1668 13.5544 14.079 13.7663 13.9228 13.9226C13.7665 14.0789 13.5545 14.1667 13.3335 14.1667ZM9.16683 10C9.16683 10.221 9.25463 10.433 9.41091 10.5893C9.56719 10.7455 9.77915 10.8333 10.0002 10.8333C10.2212 10.8333 10.4331 10.7455 10.5894 10.5893C10.7457 10.433 10.8335 10.221 10.8335 10C10.8335 9.779 10.7457 9.56703 10.5894 9.41075C10.4331 9.25447 10.2212 9.16668 10.0002 9.16668C9.77915 9.16668 9.56719 9.25447 9.41091 9.41075C9.25463 9.56703 9.16683 9.779 9.16683 10ZM13.3335 10.8333C13.1125 10.8333 12.9005 10.7455 12.7442 10.5893C12.588 10.433 12.5002 10.221 12.5002 10C12.5002 9.779 12.588 9.56703 12.7442 9.41075C12.9005 9.25447 13.1125 9.16668 13.3335 9.16668C13.5545 9.16668 13.7665 9.25447 13.9228 9.41075C14.079 9.56703 14.1668 9.779 14.1668 10C14.1668 10.221 14.079 10.433 13.9228 10.5893C13.7665 10.7455 13.5545 10.8333 13.3335 10.8333ZM6.66683 5.83334C6.44582 5.83334 6.23385 5.92114 6.07757 6.07742C5.92129 6.2337 5.8335 6.44566 5.8335 6.66668C5.8335 6.88769 5.92129 7.09965 6.07757 7.25593C6.23385 7.41221 6.44582 7.50001 6.66683 7.50001H13.3335C13.5545 7.50001 13.7665 7.41221 13.9228 7.25593C14.079 7.09965 14.1668 6.88769 14.1668 6.66668C14.1668 6.44566 14.079 6.2337 13.9228 6.07742C13.7665 5.92114 13.5545 5.83334 13.3335 5.83334H6.66683Z" fill="#C28D3E"/>
<path fill-rule="evenodd" clip-rule="evenodd" d="M5 2.5C4.33696 2.5 3.70107 2.76339 3.23223 3.23223C2.76339 3.70107 2.5 4.33696 2.5 5V15C2.5 15.663 2.76339 16.2989 3.23223 16.7678C3.70107 17.2366 4.33696 17.5 5 17.5H15C15.663 17.5 16.2989 17.2366 16.7678 16.7678C17.2366 16.2989 17.5 15.663 17.5 15V5C17.5 4.33696 17.2366 3.70107 16.7678 3.23223C16.2989 2.76339 15.663 2.5 15 2.5H5ZM15 4.16667H5C4.77899 4.16667 4.56702 4.25446 4.41074 4.41074C4.25446 4.56702 4.16667 4.77899 4.16667 5V15C4.16667 15.221 4.25446 15.433 4.41074 15.5893C4.56702 15.7455 4.77899 15.8333 5 15.8333H15C15.221 15.8333 15.433 15.7455 15.5893 15.5893C15.7455 15.433 15.8333 15.221 15.8333 15V5C15.8333 4.77899 15.7455 4.56702 15.5893 4.41074C15.433 4.25446 15.221 4.16667 15 4.16667Z" fill="#C28D3E"/>
</svg>
