<svg width="20" height="20" viewBox="0 0 20 20" fill="none" xmlns="http://www.w3.org/2000/svg">
<path d="M6.66659 10.8333C6.44557 10.8333 6.23361 10.7455 6.07733 10.5893C5.92105 10.433 5.83325 10.221 5.83325 10C5.83325 9.779 5.92105 9.56703 6.07733 9.41075C6.23361 9.25447 6.44557 9.16668 6.66659 9.16668C6.8876 9.16668 7.09956 9.25447 7.25584 9.41075C7.41212 9.56703 7.49992 9.779 7.49992 10C7.49992 10.221 7.41212 10.433 7.25584 10.5893C7.09956 10.7455 6.8876 10.8333 6.66659 10.8333ZM6.66659 14.1667C6.44557 14.1667 6.23361 14.0789 6.07733 13.9226C5.92105 13.7663 5.83325 13.5544 5.83325 13.3333C5.83325 13.1123 5.92105 12.9004 6.07733 12.7441C6.23361 12.5878 6.44557 12.5 6.66659 12.5C6.8876 12.5 7.09956 12.5878 7.25584 12.7441C7.41212 12.9004 7.49992 13.1123 7.49992 13.3333C7.49992 13.5544 7.41212 13.7663 7.25584 13.9226C7.09956 14.0789 6.8876 14.1667 6.66659 14.1667ZM9.16659 13.3333C9.16659 13.5544 9.25438 13.7663 9.41066 13.9226C9.56694 14.0789 9.7789 14.1667 9.99992 14.1667C10.2209 14.1667 10.4329 14.0789 10.5892 13.9226C10.7455 13.7663 10.8333 13.5544 10.8333 13.3333C10.8333 13.1123 10.7455 12.9004 10.5892 12.7441C10.4329 12.5878 10.2209 12.5 9.99992 12.5C9.7789 12.5 9.56694 12.5878 9.41066 12.7441C9.25438 12.9004 9.16659 13.1123 9.16659 13.3333ZM13.3333 14.1667C13.1122 14.1667 12.9003 14.0789 12.744 13.9226C12.5877 13.7663 12.4999 13.5544 12.4999 13.3333C12.4999 13.1123 12.5877 12.9004 12.744 12.7441C12.9003 12.5878 13.1122 12.5 13.3333 12.5C13.5543 12.5 13.7662 12.5878 13.9225 12.7441C14.0788 12.9004 14.1666 13.1123 14.1666 13.3333C14.1666 13.5544 14.0788 13.7663 13.9225 13.9226C13.7662 14.0789 13.5543 14.1667 13.3333 14.1667ZM9.16659 10C9.16659 10.221 9.25438 10.433 9.41066 10.5893C9.56694 10.7455 9.7789 10.8333 9.99992 10.8333C10.2209 10.8333 10.4329 10.7455 10.5892 10.5893C10.7455 10.433 10.8333 10.221 10.8333 10C10.8333 9.779 10.7455 9.56703 10.5892 9.41075C10.4329 9.25447 10.2209 9.16668 9.99992 9.16668C9.7789 9.16668 9.56694 9.25447 9.41066 9.41075C9.25438 9.56703 9.16659 9.779 9.16659 10ZM13.3333 10.8333C13.1122 10.8333 12.9003 10.7455 12.744 10.5893C12.5877 10.433 12.4999 10.221 12.4999 10C12.4999 9.779 12.5877 9.56703 12.744 9.41075C12.9003 9.25447 13.1122 9.16668 13.3333 9.16668C13.5543 9.16668 13.7662 9.25447 13.9225 9.41075C14.0788 9.56703 14.1666 9.779 14.1666 10C14.1666 10.221 14.0788 10.433 13.9225 10.5893C13.7662 10.7455 13.5543 10.8333 13.3333 10.8333ZM6.66659 5.83334C6.44557 5.83334 6.23361 5.92114 6.07733 6.07742C5.92105 6.2337 5.83325 6.44566 5.83325 6.66668C5.83325 6.88769 5.92105 7.09965 6.07733 7.25593C6.23361 7.41221 6.44557 7.50001 6.66659 7.50001H13.3333C13.5543 7.50001 13.7662 7.41221 13.9225 7.25593C14.0788 7.09965 14.1666 6.88769 14.1666 6.66668C14.1666 6.44566 14.0788 6.2337 13.9225 6.07742C13.7662 5.92114 13.5543 5.83334 13.3333 5.83334H6.66659Z" fill="#888888" fill-opacity="0.5"/>
<path fill-rule="evenodd" clip-rule="evenodd" d="M5 2.5C4.33696 2.5 3.70107 2.76339 3.23223 3.23223C2.76339 3.70107 2.5 4.33696 2.5 5V15C2.5 15.663 2.76339 16.2989 3.23223 16.7678C3.70107 17.2366 4.33696 17.5 5 17.5H15C15.663 17.5 16.2989 17.2366 16.7678 16.7678C17.2366 16.2989 17.5 15.663 17.5 15V5C17.5 4.33696 17.2366 3.70107 16.7678 3.23223C16.2989 2.76339 15.663 2.5 15 2.5H5ZM15 4.16667H5C4.77899 4.16667 4.56702 4.25446 4.41074 4.41074C4.25446 4.56702 4.16667 4.77899 4.16667 5V15C4.16667 15.221 4.25446 15.433 4.41074 15.5893C4.56702 15.7455 4.77899 15.8333 5 15.8333H15C15.221 15.8333 15.433 15.7455 15.5893 15.5893C15.7455 15.433 15.8333 15.221 15.8333 15V5C15.8333 4.77899 15.7455 4.56702 15.5893 4.41074C15.433 4.25446 15.221 4.16667 15 4.16667Z" fill="#888888" fill-opacity="0.5"/>
</svg>
