<svg width="22" height="22" viewBox="0 0 22 22" fill="none" xmlns="http://www.w3.org/2000/svg">
<path d="M7.92458 18.7917C8.12262 19.4534 8.52882 20.0337 9.08287 20.4462C9.63691 20.8587 10.3092 21.0815 11 21.0815C11.6908 21.0815 12.3631 20.8587 12.9171 20.4462C13.4712 20.0337 13.8774 19.4534 14.0754 18.7917H7.92458ZM2.75 17.875H19.25V15.125L17.4167 12.375V7.79167C17.4167 6.94902 17.2507 6.11462 16.9282 5.33612C16.6058 4.55761 16.1331 3.85024 15.5373 3.2544C14.9414 2.65856 14.2341 2.18591 13.4556 1.86344C12.677 1.54097 11.8426 1.375 11 1.375C10.1574 1.375 9.32295 1.54097 8.54445 1.86344C7.76594 2.18591 7.05857 2.65856 6.46273 3.2544C5.86689 3.85024 5.39424 4.55761 5.07177 5.33612C4.74931 6.11462 4.58333 6.94902 4.58333 7.79167V12.375L2.75 15.125V17.875Z" fill="white"/>
<circle cx="15" cy="4" r="4" fill="#EC1C24"/>
</svg>
