<svg width="20" height="20" viewBox="0 0 20 20" fill="none" xmlns="http://www.w3.org/2000/svg">
<path d="M7.00011 1.87496L6.04178 2.83329C2.75011 6.20829 3.20845 14.2916 6.04178 17.2083L7.00011 18.1666C7.25011 18.4166 7.66678 18.4166 7.95845 18.1666L9.83345 16.25C10.0834 16 10.0834 15.5416 9.83345 15.2916L7.79178 13.1666L5.58345 13.3333C4.91678 12.6666 4.91678 7.33329 5.58345 6.66663L7.87511 6.79163L9.83345 4.74996C10.0834 4.49996 10.0834 4.04163 9.83345 3.79163L7.95845 1.87496C7.66678 1.58329 7.25011 1.58329 7.00011 1.87496Z" fill="#F44336"/>
<path d="M16.8748 10L12.9165 13.3334V6.66671L16.8748 10Z" fill="#B71C1C"/>
<path d="M10 11.25V8.75H13.125V11.25H10Z" fill="#B71C1C"/>
</svg>
